<?xml version="1.0" encoding="utf-8"?>
<!-- Generator: Adobe Illustrator 16.2.0, SVG Export Plug-In . SVG Version: 6.00 Build 0)  -->
<!DOCTYPE svg PUBLIC "-//W3C//DTD SVG 1.1//EN" "http://www.w3.org/Graphics/SVG/1.1/DTD/svg11.dtd">
<svg version="1.1" id="Layer_1" xmlns="http://www.w3.org/2000/svg" xmlns:xlink="http://www.w3.org/1999/xlink" x="0px" y="0px"
	 width="128px" height="128px" viewBox="0 0 128 128" enable-background="new 0 0 128 128" xml:space="preserve">
<g>
	<g>
		<path opacity="0.2" fill="#59B6DC" d="M54.91,123.639l-38.075-21.979c-5.555-3.205-8.974-9.133-8.974-15.545V42.152
			c0-6.414,3.419-12.339,8.974-15.543L54.91,4.627c5.552-3.208,12.393-3.208,17.944,0l38.072,21.981
			c5.555,3.205,8.974,9.13,8.974,15.543v43.962c0,6.412-3.419,12.34-8.974,15.545l-38.072,21.979
			C67.303,126.847,60.462,126.847,54.91,123.639z"/>
		<path opacity="0.36" fill="#59B6DC" d="M97.697,98.605H76.354c-0.069,0-0.137-0.029-0.18-0.082l-41.86-51.279H56.24L97.871,98.24
			C97.99,98.385,97.889,98.605,97.697,98.605z"/>
		<path fill="#59B6DC" d="M100.427,54.65c-0.047,13.357-10.979,24.124-24.333,24.124H52.926v18.877c0,0.122-0.099,0.227-0.22,0.227
			H34.538c-0.122,0-0.223-0.104-0.223-0.227V62.119c0-0.123,0.102-0.225,0.223-0.225h41.946c4.036-0.077,7.271-3.391,7.195-7.455
			c-0.053-4.039-3.391-7.247-7.43-7.194H34.315l8.2-16.852H76.25C89.637,30.393,100.473,41.258,100.427,54.65z"/>
	</g>
</g>
</svg>
