<?xml version="1.0" encoding="utf-8"?>
<!-- Generator: Adobe Illustrator 16.2.0, SVG Export Plug-In . SVG Version: 6.00 Build 0)  -->
<!DOCTYPE svg PUBLIC "-//W3C//DTD SVG 1.1//EN" "http://www.w3.org/Graphics/SVG/1.1/DTD/svg11.dtd">
<svg version="1.1" id="Layer_1" xmlns="http://www.w3.org/2000/svg" xmlns:xlink="http://www.w3.org/1999/xlink" x="0px" y="0px"
	 width="128px" height="128px" viewBox="0 0 128 128" enable-background="new 0 0 128 128" xml:space="preserve">
<g id="original_6_">
	<g>
		<path fill-rule="evenodd" clip-rule="evenodd" fill="#59B6DC" d="M39.383,66.834c-0.775,1.61-1.449,2.969-2.089,4.342
			c-3.207,6.895-5.857,13.975-7.228,21.477c-0.763,4.171-1.178,8.372-0.09,12.562c0.935,3.601,2.882,5.445,6.215,5.602
			c1.461,0.066,2.981-0.243,4.403-0.643c3.76-1.067,7.029-3.12,10.194-5.347c0.767-0.544,1.554-0.881,2.513-0.522
			c1.698,0.631,2.311,2.882,0.88,3.948c-5.166,3.85-10.633,7.168-17.329,7.372c-5.481,0.169-9.448-2.768-11.197-7.997
			c-1.308-3.897-1.386-7.913-0.908-11.934c1.424-11.982,6.046-22.864,11.6-33.413c0.475-0.908,0.505-1.629,0.168-2.597
			c-1.388-3.985-2.675-7.997-3.943-12.018c-0.24-0.763-0.487-0.98-1.313-0.796c-5.437,1.196-10.798,2.654-15.625,5.515
			c-1.863,1.103-3.648,2.473-5.139,4.039c-2.477,2.603-2.524,5.479-0.499,8.448c1.764,2.597,4.252,4.367,6.882,5.972
			c0.82,0.502,1.686,0.932,2.512,1.425c1.205,0.715,1.617,2.112,0.998,3.272c-0.619,1.163-2.007,1.62-3.27,0.971
			c-3.69-1.896-7.131-4.147-9.894-7.306c-1.689-1.936-2.927-4.111-3.339-6.69C3.38,59.299,4.3,56.462,6.232,53.92
			c1.993-2.626,4.607-4.499,7.462-6.05c5.067-2.762,10.525-4.409,16.132-5.62c0.385-0.084,0.764-0.189,1.28-0.319
			c-0.261-1.493-0.547-2.948-0.772-4.409c-0.917-5.947-1.344-11.897,0.117-17.824c0.577-2.344,1.487-4.562,3.065-6.428
			c3.221-3.811,7.363-4.655,12.012-3.519c4.592,1.118,8.448,3.664,12.042,6.621c1.021,0.838,1.045,2.35,0.216,3.327
			c-0.848,0.995-2.164,1.124-3.318,0.333c-1.815-1.232-3.576-2.548-5.458-3.663c-2.161-1.277-4.478-2.182-7.06-2.194
			c-2.134-0.012-3.79,0.856-5.004,2.584c-1.544,2.191-2.091,4.721-2.386,7.312c-0.613,5.487,0.114,10.879,1.184,16.246
			c0.117,0.565,0.337,0.77,0.938,0.707c4.328-0.43,8.655-0.863,12.995-1.223c0.944-0.078,1.557-0.418,2.143-1.157
			c5.635-7.12,11.814-13.713,19.081-19.212c4.048-3.063,8.325-5.734,13.247-7.192c3.084-0.914,6.206-1.25,9.311-0.156
			c3.877,1.361,6.047,4.307,7.165,8.111c1.184,4.039,0.997,8.153,0.517,12.271c-0.123,1.055-0.307,2.104-0.505,3.144
			c-0.271,1.421-1.322,2.173-2.741,2.007c-1.286-0.147-2.127-1.187-1.992-2.624c0.187-1.983,0.637-3.958,0.661-5.936
			c0.021-2.344-0.027-4.745-0.514-7.017c-1.019-4.73-4.292-6.591-9.13-5.521c-3.631,0.799-6.858,2.506-9.921,4.529
			c-6.299,4.153-11.676,9.34-16.667,14.954c-0.929,1.043-1.824,2.119-2.726,3.186c-0.054,0.063-0.048,0.177-0.12,0.445
			c0.481,0,0.896-0.003,1.308,0c12.853,0.132,25.524,1.659,37.899,5.223c5.896,1.695,11.586,3.91,16.818,7.165
			c2.788,1.737,5.349,3.739,7.368,6.356c4.124,5.337,3.781,11.327-0.968,16.111c-3.203,3.228-7.146,5.265-11.354,6.849
			c-1.19,0.448-2.497-0.207-2.957-1.35c-0.496-1.25,0.048-2.548,1.316-3.161c1.944-0.94,3.967-1.758,5.797-2.873
			c1.512-0.926,2.96-2.07,4.175-3.363c2.569-2.731,2.662-5.722,0.486-8.784c-1.635-2.29-3.825-3.967-6.185-5.431
			c-5.818-3.615-12.201-5.857-18.771-7.603c-6.857-1.824-13.818-3.099-20.89-3.601c-5.632-0.399-11.285-0.514-16.932-0.784
			c-0.814-0.036-1.373,0.205-1.824,0.901c-3.312,5.106-6.656,10.182-9.947,15.3c-0.24,0.37-0.343,1.04-0.18,1.437
			c5.575,13.259,12.634,25.638,21.987,36.625c3.937,4.625,8.219,8.904,13.418,12.139c2.44,1.518,4.992,2.785,7.943,2.98
			c2.675,0.181,4.628-0.94,5.956-3.209c1.257-2.143,1.755-4.508,1.98-6.942c0.73-7.85-0.826-15.42-2.885-22.915
			c-2.109-7.676-5.091-15.026-8.514-22.209c-0.273-0.577-0.496-1.266-0.469-1.884c0.054-1.136,0.949-1.938,2.064-2.113
			c0.982-0.156,2.014,0.385,2.503,1.437c1.227,2.621,2.465,5.232,3.586,7.898c3.459,8.225,6.241,16.667,7.714,25.5
			c1.025,6.161,1.515,12.349,0.091,18.519c-0.319,1.386-0.788,2.753-1.377,4.042c-2.428,5.308-7.348,7.702-13.049,6.455
			c-4.634-1.016-8.547-3.435-12.195-6.329c-6.708-5.316-12.153-11.805-17.082-18.753c-5.614-7.916-10.356-16.33-14.323-25.184
			C39.846,67.75,39.675,67.429,39.383,66.834z M36.955,45.767c1.052,3.339,2.025,6.438,3.071,9.755
			c2.422-3.7,4.682-7.15,7.113-10.861C43.668,45.036,40.459,45.385,36.955,45.767z"/>
		<path fill-rule="evenodd" clip-rule="evenodd" fill="#59B6DC" d="M64.194,70.954c-3.855-0.006-6.996-3.132-6.987-6.96
			c0.009-3.889,3.141-6.99,7.062-6.987c3.856,0,6.987,3.125,6.987,6.963C71.26,67.855,68.119,70.96,64.194,70.954z"/>
	</g>
</g>
</svg>
