<?xml version="1.0" encoding="utf-8"?>
<!-- Generator: Adobe Illustrator 16.2.0, SVG Export Plug-In . SVG Version: 6.00 Build 0)  -->
<!DOCTYPE svg PUBLIC "-//W3C//DTD SVG 1.1//EN" "http://www.w3.org/Graphics/SVG/1.1/DTD/svg11.dtd">
<svg version="1.1" id="Layer_1" xmlns="http://www.w3.org/2000/svg" xmlns:xlink="http://www.w3.org/1999/xlink" x="0px" y="0px"
	 width="128px" height="128px" viewBox="0 0 128 128" enable-background="new 0 0 128 128" xml:space="preserve">
<g>
	<g>
		<path fill="#59B6DC" d="M70.951,121.666H57.703c-3.411,0-6.195-2.778-6.195-6.192v-8.564c0-0.887-0.828-2.04-1.672-2.32
			l-4.031-1.659c-1.241-0.599-2.398-0.207-2.974,0.377l-6.073,6.066c-2.326,2.324-6.42,2.324-8.744,0l-9.38-9.377
			c-1.164-1.157-1.812-2.716-1.812-4.379c0-1.655,0.648-3.215,1.825-4.383l6.054-6.048c0.608-0.617,0.837-2.036,0.453-2.819
			l-1.668-4.05c-0.342-0.998-1.495-1.825-2.379-1.825h-8.578c-3.416,0-6.195-2.778-6.195-6.193V57.047
			c0-3.411,2.779-6.195,6.195-6.195h8.578c0.885,0,2.038-0.826,2.313-1.67l1.655-4.029c0.469-0.962,0.24-2.361-0.384-2.997
			l-6.056-6.054c-1.164-1.153-1.812-2.708-1.812-4.373c0-1.663,0.648-3.218,1.825-4.382l9.367-9.372
			c2.315-2.33,6.422-2.332,8.751,0.002l6.06,6.06c0.586,0.587,2.077,0.83,2.812,0.462l4.029-1.681
			c1.018-0.344,1.842-1.485,1.842-2.376v-8.568c0-3.416,2.784-6.195,6.195-6.195h13.249c3.421,0,6.203,2.779,6.203,6.195v8.568
			c0,0.891,0.824,2.032,1.667,2.315l4.031,1.665c1.219,0.593,2.391,0.205,2.989-0.386l6.056-6.06
			c2.339-2.333,6.418-2.332,8.753-0.002l9.371,9.385c1.164,1.153,1.811,2.708,1.811,4.371c0,1.665-0.646,3.22-1.825,4.384
			l-6.053,6.056c-0.613,0.623-0.843,2.021-0.451,2.814l1.678,4.039c0.344,1.009,1.485,1.831,2.38,1.831h8.58
			c3.406,0,6.182,2.784,6.182,6.195v13.251c0,3.415-2.775,6.193-6.182,6.193h-8.58c-0.895,0-2.036,0.82-2.313,1.655l-1.67,4.05
			c-0.458,0.953-0.229,2.372,0.385,2.992l6.06,6.057c1.164,1.156,1.811,2.716,1.811,4.371c0,1.663-0.646,3.222-1.825,4.386
			l-9.349,9.367c-2.35,2.335-6.426,2.327-8.757,0.007l-6.071-6.067c-0.587-0.587-2.068-0.835-2.812-0.454l-4.031,1.674
			c-1.009,0.34-1.833,1.493-1.833,2.38v8.564C77.154,118.888,74.372,121.666,70.951,121.666L70.951,121.666z M44.672,97.505
			c1.171,0,2.302,0.255,3.266,0.739l3.701,1.512c2.795,0.935,5.023,4.034,5.023,7.153v8.564c0,0.576,0.469,1.038,1.04,1.038h13.249
			c0.576,0,1.049-0.462,1.049-1.038v-8.564c0-3.115,2.229-6.215,5.181-7.209l3.702-1.533c2.221-1.139,6.478-0.621,8.595,1.5
			l6.06,6.06c0.514,0.51,0.953,0.518,1.478-0.008l9.356-9.37c0.266-0.259,0.31-0.569,0.31-0.731c0-0.155-0.044-0.466-0.303-0.717
			l-6.067-6.074c-2.202-2.21-2.815-5.972-1.418-8.758l1.521-3.709c0.917-2.786,4.013-5.021,7.146-5.021h8.58
			c0.554,0,1.026-0.477,1.026-1.039V57.047c0-0.562-0.473-1.04-1.026-1.04h-8.58c-3.134,0-6.229-2.236-7.209-5.193l-1.533-3.699
			c-1.312-2.614-0.706-6.379,1.485-8.587l6.07-6.067c0.263-0.26,0.307-0.567,0.307-0.731c0-0.163-0.044-0.464-0.303-0.719
			l-9.37-9.389c-0.514-0.518-0.946-0.519-1.471,0.002l-6.06,6.058c-2.125,2.119-6.067,2.773-8.761,1.424l-3.702-1.521
			C74.232,26.658,72,23.565,72,20.441v-8.568c0-0.563-0.48-1.041-1.049-1.041H57.703c-0.562,0-1.04,0.477-1.04,1.041v8.568
			c0,3.126-2.235,6.221-5.193,7.207l-3.697,1.533c-2.223,1.14-6.494,0.617-8.596-1.502l-6.06-6.058
			c-0.522-0.518-0.948-0.516-1.459-0.002L22.281,31c-0.262,0.266-0.299,0.567-0.299,0.73c0,0.165,0.037,0.471,0.294,0.726
			l6.067,6.067c2.201,2.213,2.807,5.979,1.419,8.759l-1.511,3.702c-0.933,2.799-4.029,5.023-7.144,5.023h-8.578
			c-0.563,0-1.041,0.479-1.041,1.04v13.251c0,0.563,0.477,1.039,1.041,1.039h8.578c3.115,0,6.211,2.224,7.203,5.184l1.532,3.717
			c1.317,2.616,0.704,6.378-1.497,8.588l-6.063,6.06c-0.262,0.266-0.299,0.576-0.299,0.731c0,0.162,0.037,0.473,0.294,0.724
			l9.379,9.386c0.512,0.514,0.95,0.514,1.461,0l6.062-6.06C40.518,98.314,42.576,97.505,44.672,97.505L44.672,97.505z M64.329,83.72
			c-11.047,0-20.039-8.994-20.039-20.047c0-11.052,8.992-20.047,20.039-20.047c11.048,0,20.046,8.995,20.046,20.047
			C84.375,74.726,75.377,83.72,64.329,83.72L64.329,83.72z M64.329,48.78c-8.208,0-14.879,6.683-14.879,14.893
			c0,8.208,6.671,14.892,14.879,14.892c8.211,0,14.891-6.684,14.891-14.892C79.22,55.462,72.54,48.78,64.329,48.78L64.329,48.78z"/>
	</g>
</g>
</svg>
