<?xml version="1.0" encoding="utf-8"?>
<!-- Generator: Adobe Illustrator 16.2.0, SVG Export Plug-In . SVG Version: 6.00 Build 0)  -->
<!DOCTYPE svg PUBLIC "-//W3C//DTD SVG 1.1//EN" "http://www.w3.org/Graphics/SVG/1.1/DTD/svg11.dtd">
<svg version="1.1" id="Layer_1" xmlns="http://www.w3.org/2000/svg" xmlns:xlink="http://www.w3.org/1999/xlink" x="0px" y="0px"
	 width="128px" height="128px" viewBox="0 0 128 128" enable-background="new 0 0 128 128" xml:space="preserve">
<g id="Icon_External_Link_2_">
	<g>
		<polygon fill="#59B6DC" points="59.413,74.556 53.944,69.083 116.354,6.672 121.824,12.149 		"/>
		<polygon fill="#59B6DC" points="123.25,46.857 114.929,46.857 114.929,13.571 81.643,13.571 81.643,5.25 123.25,5.25 		"/>
		<path fill="#59B6DC" d="M102.446,121.75H19.232c-6.883,0-12.482-5.599-12.482-12.482V26.054c0-6.883,5.599-12.482,12.482-12.482
			H65v8.322H19.232c-2.295,0-4.161,1.869-4.161,4.161v83.214c0,2.296,1.865,4.161,4.161,4.161h83.214
			c2.296,0,4.161-1.865,4.161-4.161V63.5h8.321v45.768C114.929,116.151,109.329,121.75,102.446,121.75z"/>
	</g>
</g>
</svg>
