<?xml version="1.0" encoding="utf-8"?>
<!-- Generator: Adobe Illustrator 16.2.0, SVG Export Plug-In . SVG Version: 6.00 Build 0)  -->
<!DOCTYPE svg PUBLIC "-//W3C//DTD SVG 1.1//EN" "http://www.w3.org/Graphics/SVG/1.1/DTD/svg11.dtd">
<svg version="1.1" id="Layer_1" xmlns="http://www.w3.org/2000/svg" xmlns:xlink="http://www.w3.org/1999/xlink" x="0px" y="0px"
	 width="128px" height="128px" viewBox="0 0 128 128" enable-background="new 0 0 128 128" xml:space="preserve">
<g id="Icon_Eye_2_">
	<g>
		<path fill="#59B6DC" d="M64.43,102.85c-40.339,0-58.577-35.551-59.334-37.062c-0.461-0.923-0.461-2.01,0-2.933
			C5.853,61.34,24.091,25.79,64.43,25.79s58.577,35.55,59.334,37.065c0.462,0.923,0.462,2.01,0,2.933
			C123.007,67.299,104.769,102.85,64.43,102.85z M11.781,64.321c3.807,6.462,20.858,31.971,52.649,31.971
			s48.842-25.509,52.649-31.971c-3.808-6.461-20.858-31.973-52.649-31.973S15.588,57.86,11.781,64.321z"/>
		<path fill="#59B6DC" d="M64.43,95.8c-17.357,0-31.478-14.121-31.478-31.479c0-17.356,14.121-31.481,31.478-31.481
			c17.356,0,31.478,14.125,31.478,31.481C95.907,81.679,81.786,95.8,64.43,95.8z M64.43,39.398
			c-13.742,0-24.923,11.181-24.923,24.923s11.181,24.92,24.923,24.92s24.924-11.178,24.924-24.92S78.172,39.398,64.43,39.398z"/>
		<path fill="#59B6DC" d="M64.43,81.699c-9.584,0-17.377-7.794-17.377-17.378c0-1.811,1.466-3.28,3.277-3.28
			c1.811,0,3.277,1.47,3.277,3.28c0,5.97,4.857,10.82,10.823,10.82s10.823-4.851,10.823-10.82c0-5.969-4.857-10.823-10.823-10.823
			c-1.811,0-3.277-1.467-3.277-3.277s1.467-3.281,3.277-3.281c9.584,0,17.378,7.797,17.378,17.381
			C81.808,73.905,74.014,81.699,64.43,81.699z"/>
	</g>
</g>
</svg>
