<?xml version="1.0" encoding="utf-8"?>
<!-- Generator: Adobe Illustrator 16.2.0, SVG Export Plug-In . SVG Version: 6.00 Build 0)  -->
<!DOCTYPE svg PUBLIC "-//W3C//DTD SVG 1.1//EN" "http://www.w3.org/Graphics/SVG/1.1/DTD/svg11.dtd">
<svg version="1.1" id="Layer_1" xmlns="http://www.w3.org/2000/svg" xmlns:xlink="http://www.w3.org/1999/xlink" x="0px" y="0px"
	 width="128px" height="128px" viewBox="0 0 128 128" enable-background="new 0 0 128 128" xml:space="preserve">
<g id="plain_36_">
	<g>
		<path fill-rule="evenodd" clip-rule="evenodd" fill="#59B6DC" d="M9.784,51.906c-1.054,0.847-2.012,1.615-3.085,2.472
			c-0.456-1.858-0.042-3.483,0.437-5.059c0.991-3.246,2.738-6.118,4.727-8.846c0.725-0.988,1.241-1.969,1.214-3.299
			c-0.079-4.717,0.42-9.372,2.035-13.846c0.824-2.278,1.94-4.398,3.844-6.243c0.749,3.67,1.428,7.195,3.437,9.834
			c1.444-1.284,2.895-2.505,4.271-3.798c8.265-7.773,17.998-12.631,29.217-14.23c14.069-2.005,27.055,1.011,38.846,9.04
			c1.109,0.758,2.39,1.277,3.607,1.881c5.583,2.774,9.795,6.9,12.434,12.576c0.439,0.948,0.784,1.946,1.175,2.918
			c0.118-0.02,0.233-0.04,0.352-0.063c-0.489-2.921-0.979-5.846-1.52-9.102c6.089,8.541,8.006,18.021,8.527,27.967
			c1.136-1.589,1.13-3.466,1.743-5.262c0.204,1.31,0.456,2.603,0.598,3.916c0.562,5.157-0.439,10.153-1.389,15.188
			c-2.238,11.89-7.389,22.413-15.151,31.559c-8.837,10.412-19.876,17.364-33.683,19.016c-20.033,2.396-36.865-4.044-50.461-18.94
			c-6.522-7.149-10.835-15.467-12.766-24.94c-1.461-7.169-1.109-14.298,1.271-21.277c0.121-0.354,0.256-0.709,0.374-1.066
			C9.856,52.237,9.817,52.152,9.784,51.906z M100.489,42.399c0.125-0.108,0.253-0.216,0.377-0.325
			c1.398,1.077,2.794,2.157,4.281,3.299c-0.057-0.998-0.014-2.058-0.19-3.076c-0.762-4.432-3.447-7.648-6.789-10.406
			c-4.191-3.459-8.993-5.836-13.973-7.901c-0.493-0.207-0.972-0.433-1.451-0.646c0.02-0.167,0.039-0.335,0.059-0.499
			c2.305-0.138,4.615-0.276,7.019-0.42c-2.594-4.281-7.048-5.472-11.567-6.7c0.167-0.089,0.278-0.148,0.561-0.299
			c-9.151-2.856-18.224-3.079-27.362-0.742c-8.502,2.173-21.268,9.926-23.24,14.105c0.22-0.053,0.4-0.095,0.574-0.138
			c3.207-0.788,6.414-1.004,9.644-0.065c0.351,0.098,0.936-0.135,1.244-0.407c3.023-2.711,6.391-4.835,10.294-6.037
			c1.228-0.374,2.495-0.627,3.745-0.938c-0.105,0.423-0.292,0.594-0.499,0.742c-4.047,2.78-6.775,6.431-7.534,11.38
			c-0.039,0.272,0,0.68,0.174,0.84c1.792,1.684,3.568,3.394,5.455,4.963c0.653,0.542,1.573,0.909,2.423,1.041
			c1.631,0.263,3.305,0.309,4.963,0.427c1.018,0.072,1.677,0.791,1.31,1.618c-0.542,1.228-1.133,2.367-2.374,3.197
			c-2.354,1.569-4.53,3.4-6.801,5.098c-0.564,0.427-0.587,0.811-0.289,1.438c0.542,1.159,1.061,2.344,1.405,3.575
			c0.443,1.546,0.591,3.151,0.19,4.792c-1.28-0.282-2.456-0.562-3.634-0.798c-1.188-0.236-2.383-0.42-3.575-0.637
			c-1.487-0.275-2.757,0.25-3.519,1.461c-0.886,1.408-0.899,2.875,0.046,4.083c1.927,2.452,4.11,4.655,6.69,6.43
			c2.13,1.474,4.526,2.291,7.077,1.743c1.776-0.378,3.516-1.136,5.134-1.989c4.897-2.59,10.425-1.717,13.816,2.311
			c0.606,0.719,0.971,1.536,0.456,2.38c-0.496,0.814-1.323,1.005-2.278,0.765c-0.991-0.246-1.907-0.075-2.803,0.52
			c-2.364,1.568-4.681,3.239-7.189,4.543c-4.038,2.11-8.436,2.822-12.976,2.655c-0.466-0.02-0.936-0.004-1.565-0.004
			c0.233,0.276,0.315,0.395,0.417,0.496c3.283,3.178,7.044,5.626,11.384,7.054c4.779,1.576,9.667,2.223,14.624,0.851
			c5.558-1.533,9.923-4.897,13.658-9.155c1.507-1.713,2.869-3.555,4.301-5.334c0.114,0.023,0.236,0.053,0.357,0.079
			c-0.41,2.777-0.814,5.554-1.264,8.606c6.851-8.383,7.074-17.965,6.108-28.068c1.97,2.196,2.567,4.77,3.696,7.35
			C103.407,57.64,102.269,50.012,100.489,42.399z"/>
	</g>
</g>
</svg>
