<?xml version="1.0" encoding="utf-8"?>
<!-- Generator: Adobe Illustrator 16.2.0, SVG Export Plug-In . SVG Version: 6.00 Build 0)  -->
<!DOCTYPE svg PUBLIC "-//W3C//DTD SVG 1.1//EN" "http://www.w3.org/Graphics/SVG/1.1/DTD/svg11.dtd">
<svg version="1.1" id="Layer_1" xmlns="http://www.w3.org/2000/svg" xmlns:xlink="http://www.w3.org/1999/xlink" x="0px" y="0px"
	 width="128px" height="128px" viewBox="0 0 128 128" enable-background="new 0 0 128 128" xml:space="preserve">
<path fill="#59B6DC" d="M118.521,17.827H95.498c-3.228,0-5.872,2.959-5.872,6.573c-0.17,3.67-3.369,3.542-3.369,3.542H34.42
	c-3.229,0-7.426,0.935-8.548,6.541l-1.041,6.41H8.519c-3.044,0-5.528,2.551-5.528,5.673l10.017,57.914
	c1.037,4.612,5.182,5.794,9.326,5.678h87.73c-0.004,0-0.008-0.003-0.011-0.003c0.003,0,0.007,0.003,0.011,0.003
	c0.948-0.035,1.15-1.483,1.497-3.225l12.837-82.533C125.2,18.471,122.782,17.827,118.521,17.827z M113.233,37.108l-8.536,52.966
	l-7.415-43.508c-0.719-4.017-5.009-5.762-8.979-5.673h-60.87l0.566-3.777c0.255-1.691,1.721-3.079,3.256-3.079h79.688
	C112.477,34.037,113.51,35.417,113.233,37.108z"/>
</svg>
