<?xml version="1.0" encoding="utf-8"?>
<!-- Generator: Adobe Illustrator 16.2.0, SVG Export Plug-In . SVG Version: 6.00 Build 0)  -->
<!DOCTYPE svg PUBLIC "-//W3C//DTD SVG 1.1//EN" "http://www.w3.org/Graphics/SVG/1.1/DTD/svg11.dtd">
<svg version="1.1" id="Layer_1" xmlns="http://www.w3.org/2000/svg" xmlns:xlink="http://www.w3.org/1999/xlink" x="0px" y="0px"
	 width="128px" height="128px" viewBox="0 0 128 128" enable-background="new 0 0 128 128" xml:space="preserve">
<path fill="#59B6DC" d="M124.187,50.884c-0.403-1.243-1.562-1.884-2.868-1.884H80.044L67.288,9.546
	c-0.403-1.243-1.565-2.188-2.869-2.188c-1.31,0-2.466,0.995-2.869,2.238L48.792,49H7.518c-1.307,0-2.466,0.641-2.869,1.884
	c-0.403,1.243,0.037,2.506,1.095,3.275l33.393,24.208l-12.752,39.229c-0.403,1.246,0.037,2.594,1.095,3.363
	c1.055,0.77,2.493,0.763,3.548-0.007l33.393-24.265l33.393,24.261c0.527,0.383,1.148,0.577,1.773,0.577
	c0.621,0,1.243-0.196,1.773-0.579c1.055-0.77,1.498-2.13,1.096-3.376L89.702,78.316l33.393-24.157
	C124.149,53.39,124.594,52.127,124.187,50.884z"/>
</svg>
