<?xml version="1.0" encoding="utf-8"?>
<!-- Generator: Adobe Illustrator 16.2.0, SVG Export Plug-In . SVG Version: 6.00 Build 0)  -->
<!DOCTYPE svg PUBLIC "-//W3C//DTD SVG 1.1//EN" "http://www.w3.org/Graphics/SVG/1.1/DTD/svg11.dtd">
<svg version="1.1" id="Layer_1" xmlns="http://www.w3.org/2000/svg" xmlns:xlink="http://www.w3.org/1999/xlink" x="0px" y="0px"
	 width="128px" height="128px" viewBox="0 0 128 128" enable-background="new 0 0 128 128" xml:space="preserve">
<path fill="#59B6DC" d="M93.095,13.893c-14.614,0-22.877,7.937-28.417,13.91c-5.536-5.974-13.798-13.91-28.416-13.91
	c-17.489,0-31.718,13.612-31.718,30.345c0,20.348,12.37,32.877,58.05,68.474l2.084,1.62l2.088-1.62
	c45.677-35.597,58.05-48.125,58.05-68.474C124.816,27.504,110.584,13.893,93.095,13.893z M101.014,32.919
	c-2.541-2.45-5.819-3.857-9.203-3.698c-0.013,0-0.026,0-0.04,0c-1.056,0-1.915-0.839-1.938-1.898
	c-0.024-1.069,0.828-1.956,1.897-1.979c4.477,0.014,8.688,1.61,11.978,4.794c3.613,3.499,5.725,8.526,5.792,13.801
	c0.027,1.976-0.236,3.911-0.788,5.752c-0.254,0.842-1.021,1.384-1.857,1.384c-0.183,0-0.372-0.027-0.555-0.081
	c-1.028-0.308-1.61-1.387-1.299-2.413c0.436-1.465,0.646-3.008,0.622-4.595C105.571,39.74,103.89,35.707,101.014,32.919z"/>
</svg>
