<?xml version="1.0" encoding="utf-8"?>
<!-- Generator: Adobe Illustrator 16.2.0, SVG Export Plug-In . SVG Version: 6.00 Build 0)  -->
<!DOCTYPE svg PUBLIC "-//W3C//DTD SVG 1.1//EN" "http://www.w3.org/Graphics/SVG/1.1/DTD/svg11.dtd">
<svg version="1.1" id="Layer_1" xmlns="http://www.w3.org/2000/svg" xmlns:xlink="http://www.w3.org/1999/xlink" x="0px" y="0px"
	 width="128px" height="128px" viewBox="0 0 128 128" enable-background="new 0 0 128 128" xml:space="preserve">
<path id="plain_9_" fill="#59B6DC" d="M120.177,58.804L69.235,7.865c-2.936-2.933-7.688-2.933-10.63,0l-10.571,10.58l13.415,13.418
	c3.121-1.051,6.694-0.345,9.18,2.138c2.502,2.501,3.198,6.107,2.12,9.237l12.93,12.933c3.133-1.081,6.739-0.384,9.237,2.12
	c3.493,3.49,3.493,9.154,0,12.641c-3.49,3.496-9.15,3.496-12.644,0c-2.626-2.627-2.329-6.486-1.001-9.72L70.165,49.149v31.741
	c0,0.416,0.702,0.982,1.417,1.685c3.484,3.496,3.017,9.151-0.477,12.65c-3.49,3.489-9.395,3.489-12.882,0
	c-3.493-3.499-5.083-9.154-1.593-12.65c0.864-0.857,1.337-1.51,1.337-1.947V48.596c0-0.438-0.59-1.084-1.457-1.95
	c-2.641-2.645-2.543-6.524-1.191-9.773l-12.855-13.23L7.72,58.568c-2.934,2.936-2.844,7.694,0.092,10.628l50.989,50.938
	c2.93,2.933,7.709,2.933,10.646,0l50.718-50.7C123.099,66.498,123.11,61.737,120.177,58.804z"/>
</svg>
