<?xml version="1.0" encoding="utf-8"?>
<!-- Generator: Adobe Illustrator 16.2.0, SVG Export Plug-In . SVG Version: 6.00 Build 0)  -->
<!DOCTYPE svg PUBLIC "-//W3C//DTD SVG 1.1//EN" "http://www.w3.org/Graphics/SVG/1.1/DTD/svg11.dtd">
<svg version="1.1" id="Layer_1" xmlns="http://www.w3.org/2000/svg" xmlns:xlink="http://www.w3.org/1999/xlink" x="0px" y="0px"
	 width="128px" height="128px" viewBox="0 0 128 128" enable-background="new 0 0 128 128" xml:space="preserve">
<path fill="#59B6DC" d="M64.002,5.75C31.607,5.75,5.25,32.105,5.25,64.5c0,32.396,26.357,58.75,58.752,58.75
	c32.393,0,58.748-26.354,58.748-58.75C122.75,32.105,96.396,5.75,64.002,5.75z M104.606,95.271c0,0,0,0,0,0.002
	c-0.567-1.668-0.262-2.346,0.294-3.575c0.308-0.687,0.658-1.462,0.862-2.436c0.271-1.308-0.073-2.54-0.378-3.625
	c-0.535-1.905-0.695-2.479,0.895-3.481c3.275-2.063,7.351-5.458,4.982-11.078c-0.769-1.817-2.164-2.655-3.286-3.33
	c-1.389-0.83-2.227-1.333-2.47-3.775c-0.563-5.6-4.787-5.407-6.82-5.308c-1.664,0.073-2.747,0.071-3.704-0.645
	c-0.532-0.399-0.615-0.851-0.661-2.444c-0.034-1.095-0.073-2.456-0.633-3.814c-0.746-1.822-2.305-2.664-3.56-3.344
	c-1.489-0.805-1.98-1.152-2.089-2.159c-0.354-3.318,0.211-3.651,4.799-4.732c4.184-0.984,12.957-0.741,19.991-0.181
	c3.344,7.022,5.221,14.874,5.221,23.156c0,12.117-4.007,23.314-10.766,32.338C105.07,95.871,104.622,95.271,104.606,95.271z
	 M100.593,24.764c-1.189,0.748-2.58,0.635-4.6,0.374c-1.991-0.262-4.236-0.546-6.152,0.84c-0.425,0.308-4.236,2.933-6.538-0.105
	c-1.253-1.652-1.82-2.438,5.11-9.572C92.861,18.563,96.957,21.413,100.593,24.764z M68.647,15.196
	c-1.921,0.84-2.951-0.395-3.566-1.489c-0.094-0.406-0.264-1.583-0.386-3.238c2.368,0.03,4.7,0.211,6.985,0.537
	C71.808,12.977,70.894,14.225,68.647,15.196z M49.65,12.398c-0.002,4.44,1.797,7.617,3.194,10.029
	c0.98,1.698,1.756,3.039,1.756,4.326c0,3.819-0.324,4.239-1.827,4.519c-0.684,0.138-1.77-0.159-2.823-0.436
	c-2.183-0.569-4.9-1.281-7.502,0.411c-2.249,1.462-2.501,3.458-2.667,4.778c-0.151,1.198-0.202,1.602-1.405,2.235
	c-0.932,0.494-2.701,0.037-4.266-0.362c-2.366-0.613-6.327-1.625-8.011,2.049c-2.109,4.601,2.111,7.456,4.378,8.987
	c0.517,0.349,1.007,0.677,1.402,1.003c3.555,2.931,7.19,2.869,10.104,2.804c1.992-0.034,3.706-0.071,5.177,0.773
	c1.391,0.799,1.416,1.476,1.48,3.112c0.06,1.586,0.153,3.984,2.441,5.799c4.234,3.35,7.612,1.786,9.85,0.75
	c1.388-0.643,2.217-0.994,3.132-0.792c4.076,0.927,6.373,2.327,6.853,7.052c0.073,0.723-0.078,2.419-1.911,5.654
	c-0.226,0.397-1.207,0.615-2.249,0.85c-2.034,0.454-5.106,1.141-6.731,4.468c-1.425,2.917-1.187,4.469-0.757,6.057
	c0.198,0.725,0.314,1.163,0.051,2.254c-0.216,0.886-1.914,1.693-3.411,2.407c-2.256,1.073-4.81,2.29-5.693,4.943
	c-0.563,1.685-0.395,3.497-0.232,5.25c0.337,3.626,0.046,4.12-1.242,4.501c-1.306,0.388-1.79,0.009-1.967-0.136
	c-1.044-0.831-2.136-3.871-1.776-9.707c0.254-4.156-0.884-5.744-2.284-7.252c-0.856-0.923-1.595-1.72-1.34-5.868
	c0.533-8.646-3.58-10.603-6.58-12.032c-1.556-0.739-2.458-1.21-2.939-2.233c-0.748-1.588-0.695-3.42-0.638-5.358
	c0.089-3.087,0.202-6.926-3.867-8.962c-2.279-1.138-7.298-6.614-11.215-14.839C23.022,26.34,35.116,16.408,49.65,12.398z
	 M64.002,118.55C34.198,118.55,9.95,94.304,9.95,64.5c0-6.921,1.322-13.536,3.704-19.624c3.934,7.075,8.546,12.074,11.596,13.6
	c1.224,0.611,1.363,1.483,1.271,4.62c-0.064,2.18-0.145,4.893,1.081,7.497c1.223,2.596,3.413,3.638,5.173,4.476
	c2.559,1.219,4.248,2.021,3.911,7.5c-0.349,5.698,0.964,7.607,2.586,9.354c0.766,0.826,1.188,1.283,1.037,3.766
	c-0.292,4.721,0.087,10.927,3.539,13.676c0.838,0.666,2.111,1.326,3.872,1.326c0.707,0,1.492-0.105,2.359-0.362
	c5.315-1.576,4.858-6.499,4.585-9.441c-0.117-1.271-0.238-2.584,0.009-3.33c0.252-0.757,1.85-1.517,3.256-2.187
	c2.325-1.106,5.217-2.483,5.958-5.54c0.548-2.263,0.186-3.607-0.078-4.59c-0.223-0.824-0.326-1.2,0.44-2.768
	c0.606-1.239,1.627-1.52,3.534-1.946c1.809-0.404,4.06-0.906,5.313-3.116c1.914-3.381,2.731-6.142,2.5-8.445
	c-0.809-7.961-6.029-10.148-10.488-11.161c-2.52-0.585-4.53,0.358-6.148,1.106c-2.059,0.957-3.002,1.386-4.957-0.17
	c-0.537-0.424-0.608-0.84-0.666-2.295c-0.076-1.955-0.188-4.914-3.835-7.006c-2.596-1.492-5.251-1.446-7.607-1.396
	c-2.582,0.044-4.813,0.092-7.022-1.732c-0.498-0.411-1.113-0.831-1.763-1.269c-2.745-1.857-3.055-2.444-2.88-3.059
	c0.406-0.115,1.85,0.246,2.71,0.466c2.27,0.583,5.088,1.306,7.626-0.03c3.369-1.774,3.688-4.298,3.878-5.806
	c0.138-1.088,0.193-1.182,0.565-1.425c0.801-0.519,1.953-0.273,3.75,0.197c1.485,0.388,3.172,0.826,4.875,0.51
	c5.666-1.056,5.666-5.921,5.666-9.141c0-2.549-1.214-4.647-2.389-6.678c-1.482-2.563-2.867-5.012-2.513-8.752
	c1.836-0.331,3.702-0.569,5.597-0.707c0.122,1.827,0.37,4.246,0.856,5.154c1.732,3.238,4.202,4.404,6.552,4.404
	c1.093,0,2.157-0.25,3.112-0.664c4.459-1.93,5.693-5.053,5.852-7.617c2.577,0.606,5.081,1.396,7.5,2.354
	c-6.837,7.248-7.578,10.157-4.31,14.465c1.797,2.369,4.151,3.318,6.531,3.316c2.306,0,4.638-0.891,6.508-2.245
	c0.406-0.296,1.673-0.131,2.796,0.014c2.306,0.294,5.649,0.723,8.56-1.664c2.332,2.559,4.42,5.342,6.23,8.312
	c-5.241-0.323-13.707-0.606-18.423,0.503c-4.317,1.019-9.208,2.171-8.393,9.808c0.378,3.55,2.875,4.9,4.525,5.792
	c0.597,0.324,1.338,0.725,1.448,0.994c0.233,0.569,0.255,1.311,0.279,2.171c0.056,1.795,0.127,4.253,2.541,6.063
	c2.377,1.785,4.901,1.668,6.745,1.579c0.587-0.025,1.484-0.064,1.659-0.014c0.002,0.002,0.179,0.241,0.264,1.097
	c0.479,4.789,3.036,6.322,4.729,7.339c0.854,0.512,1.217,0.758,1.37,1.125c0.489,1.156,1.095,2.596-3.155,5.275
	c-4.556,2.871-3.488,6.681-2.915,8.726c0.131,0.468,0.331,1.178,0.304,1.397c-0.1,0.469-0.308,0.93-0.547,1.462
	c-0.686,1.52-1.625,3.599-0.456,7.022c0.486,1.428,1.769,2.637,4.046,3.794C94.302,111.604,79.949,118.55,64.002,118.55z"/>
</svg>
