<?xml version="1.0" encoding="utf-8"?>
<!-- Generator: Adobe Illustrator 16.2.0, SVG Export Plug-In . SVG Version: 6.00 Build 0)  -->
<!DOCTYPE svg PUBLIC "-//W3C//DTD SVG 1.1//EN" "http://www.w3.org/Graphics/SVG/1.1/DTD/svg11.dtd">
<svg version="1.1" id="Layer_1" xmlns="http://www.w3.org/2000/svg" xmlns:xlink="http://www.w3.org/1999/xlink" x="0px" y="0px"
	 width="128px" height="128px" viewBox="0 0 128 128" enable-background="new 0 0 128 128" xml:space="preserve">
<g id="plain_30_">
	<g>
		<path fill="#59B6DC" d="M42.946,63.31c0,11.42,9.26,20.677,20.677,20.677c11.417,0,20.678-9.257,20.678-20.677
			c0-11.417-9.261-20.674-20.678-20.674C52.206,42.635,42.946,51.892,42.946,63.31z"/>
		<path fill="#59B6DC" d="M63.964,40L63.964,40h49.501C104.381,18,85.472,8.383,63.623,8.383c-17.692,0-33.452,7.937-43.634,20.814
			l19.296,33.324C40.229,49.82,49.351,40,63.964,40z"/>
		<path fill="#59B6DC" d="M115.238,43H77.027c6.759,3,11.235,11.282,11.235,19.949c0,4.26-1.084,8.051-2.985,11.051h0.012
			l-25.357,44.237c1.221,0.073,2.453,0.392,3.691,0.392c30.704,0,55.59-24.567,55.59-55.269C119.213,56.048,117.801,49,115.238,43z"
			/>
		<path fill="#59B6DC" d="M63.623,87.948c-10.663,0-19.743-6.771-23.172-16.249L17.442,32.353
			C11.499,41.202,8.033,51.85,8.033,63.31c0,27.983,20.674,51.132,47.581,55.015l19.18-33.047
			C71.44,86.987,67.643,87.948,63.623,87.948z"/>
	</g>
</g>
</svg>
