<?xml version="1.0" encoding="utf-8"?>
<!-- Generator: Adobe Illustrator 16.2.0, SVG Export Plug-In . SVG Version: 6.00 Build 0)  -->
<!DOCTYPE svg PUBLIC "-//W3C//DTD SVG 1.1//EN" "http://www.w3.org/Graphics/SVG/1.1/DTD/svg11.dtd">
<svg version="1.1" id="Layer_1" xmlns="http://www.w3.org/2000/svg" xmlns:xlink="http://www.w3.org/1999/xlink" x="0px" y="0px"
	 width="128px" height="128px" viewBox="0 0 128 128" enable-background="new 0 0 128 128" xml:space="preserve">
<path id="plain_11_" fill="#59B6DC" d="M5.5,5.5v117h117V5.5H5.5z M67.386,105.195c-1.724,3.511-5.02,5.816-8.842,6.928
	c-5.869,1.347-11.485,0.578-15.66-1.929c-2.798-1.714-4.979-4.355-6.458-7.396c2.971-1.813,5.935-3.642,8.905-5.456
	c0.08,0.034,0.315,0.457,0.626,1.004c1.139,1.907,2.116,3.251,4.044,4.2c1.894,0.644,6.049,1.056,7.652-2.275
	c0.98-1.693,0.668-7.223,0.668-13.247c0-9.47,0.045-17.706,0.045-28.343h10.958c0,10.637,0.052,20.13,0,30.182
	C69.35,95.022,69.883,100.597,67.386,105.195z M112.854,102.1c-3.815,13.032-25.05,13.451-33.536,4.844
	c-1.793-2.025-2.919-3.085-3.988-5.422c4.508-2.597,4.508-2.597,8.898-5.135c2.385,3.663,4.587,5.679,8.555,6.506
	c5.377,0.654,10.793-1.194,9.577-6.907c-1.246-4.671-11.014-5.803-17.665-10.796c-6.748-4.528-8.334-15.546-2.78-21.84
	c1.846-2.327,5-4.065,8.307-4.896c1.149-0.149,2.306-0.301,3.452-0.45c6.627-0.132,10.771,1.617,13.811,5.013
	c0.849,0.859,1.538,1.783,2.829,3.788c-3.531,2.25-3.518,2.227-8.573,5.498c-1.083-2.327-2.877-3.784-4.771-4.418
	c-2.939-0.894-6.647,0.076-7.417,3.186c-0.267,0.955-0.207,1.849,0.212,3.431c1.194,2.719,5.193,3.899,8.776,5.544
	c10.325,4.186,13.812,8.68,14.671,14.025C114.034,98.672,113.01,101.653,112.854,102.1z"/>
</svg>
