<?xml version="1.0" encoding="utf-8"?>
<!-- Generator: Adobe Illustrator 16.2.0, SVG Export Plug-In . SVG Version: 6.00 Build 0)  -->
<!DOCTYPE svg PUBLIC "-//W3C//DTD SVG 1.1//EN" "http://www.w3.org/Graphics/SVG/1.1/DTD/svg11.dtd">
<svg version="1.1" id="Layer_1" xmlns="http://www.w3.org/2000/svg" xmlns:xlink="http://www.w3.org/1999/xlink" x="0px" y="0px"
	 width="128px" height="128px" viewBox="0 0 128 128" enable-background="new 0 0 128 128" xml:space="preserve">
<g id="Icon_LinkedIn_2_">
	<g>
		<path fill="#59B6DC" d="M114.556,6H14.417C9.633,6,5.75,9.791,5.75,14.473v100.549c0,4.678,3.883,8.478,8.667,8.478h100.138
			c4.793,0,8.694-3.8,8.694-8.478V14.473C123.25,9.791,119.349,6,114.556,6z M41.904,105.423H23.827V51.192h18.077V105.423z
			 M32.87,43.963c-6.006,0-10.852-4.858-10.852-10.848c0-5.984,4.846-10.848,10.852-10.848c5.985,0,10.843,4.864,10.843,10.848
			C43.713,39.104,38.854,43.963,32.87,43.963z M105.173,105.423H87.097V78.308c0-7.344-1.979-14.321-9.039-14.321
			c-7.062,0-9.038,7.088-9.038,14.401v27.035H50.942V51.192H69.02v6.523h0.904c2.321-4.409,8.134-8.156,15.045-8.156
			c16.673,0,20.204,10.954,20.204,24.23V105.423z"/>
	</g>
</g>
</svg>
