<?xml version="1.0" encoding="utf-8"?>
<!-- Generator: Adobe Illustrator 16.2.0, SVG Export Plug-In . SVG Version: 6.00 Build 0)  -->
<!DOCTYPE svg PUBLIC "-//W3C//DTD SVG 1.1//EN" "http://www.w3.org/Graphics/SVG/1.1/DTD/svg11.dtd">
<svg version="1.1" id="Layer_1" xmlns="http://www.w3.org/2000/svg" xmlns:xlink="http://www.w3.org/1999/xlink" x="0px" y="0px"
	 width="128px" height="128px" viewBox="0 0 128 128" enable-background="new 0 0 128 128" xml:space="preserve">
<g id="Icon_Link_2_">
	<g>
		<path fill="#59B6DC" d="M61.18,84.597c0.144,0.955,0.294,1.909,0.294,2.901c0,5.232-2.038,10.152-5.735,13.85l-7.726,7.727
			c-3.697,3.701-8.617,5.738-13.85,5.738c-10.801,0-19.584-8.787-19.584-19.588c0-5.232,2.037-10.148,5.734-13.85l7.688-7.682
			c3.705-3.727,8.636-5.779,13.888-5.779c0.992,0,1.95,0.15,2.901,0.29l5.946-5.941c-2.773-0.981-5.742-1.54-8.847-1.54
			c-7.18,0-13.921,2.807-18.977,7.896l-7.681,7.674c-5.055,5.06-7.843,11.782-7.843,18.932c0,14.763,12.012,26.774,26.775,26.774
			c7.149,0,13.872-2.788,18.931-7.843l7.727-7.727c5.056-5.056,7.844-11.778,7.844-18.932c0-3.104-0.559-6.074-1.536-8.847
			L61.18,84.597z"/>
		<path fill="#59B6DC" d="M95.976,6.64c-7.18,0-13.922,2.807-18.977,7.893l-7.682,7.676c-5.055,5.057-7.843,11.78-7.843,18.931
			c0,3.105,0.558,6.074,1.535,8.849l5.95-5.946c-0.144-0.955-0.294-1.909-0.294-2.903c0-5.233,2.037-10.15,5.734-13.85l7.688-7.683
			c3.705-3.727,8.636-5.78,13.888-5.78c10.801,0,19.584,8.787,19.584,19.586c0,5.233-2.037,10.15-5.734,13.85l-7.727,7.727
			c-3.697,3.697-8.617,5.734-13.85,5.734c-0.992,0-1.951-0.147-2.901-0.291l-5.946,5.946c2.773,0.977,5.742,1.535,8.848,1.535
			c7.149,0,13.872-2.788,18.931-7.843l7.727-7.727c5.056-5.058,7.844-11.78,7.844-18.932C122.75,18.65,110.737,6.64,95.976,6.64z"/>
		<path fill="#59B6DC" d="M45.753,87.498c-0.988,0-1.977-0.377-2.731-1.132c-1.509-1.509-1.509-3.954,0-5.463l38.633-38.632
			c1.509-1.509,3.953-1.509,5.463,0c1.509,1.509,1.509,3.954,0,5.463L48.484,86.366C47.73,87.121,46.742,87.498,45.753,87.498z"/>
	</g>
</g>
</svg>
