<?xml version="1.0" encoding="utf-8"?>
<!-- Generator: Adobe Illustrator 16.2.0, SVG Export Plug-In . SVG Version: 6.00 Build 0)  -->
<!DOCTYPE svg PUBLIC "-//W3C//DTD SVG 1.1//EN" "http://www.w3.org/Graphics/SVG/1.1/DTD/svg11.dtd">
<svg version="1.1" id="Layer_1" xmlns="http://www.w3.org/2000/svg" xmlns:xlink="http://www.w3.org/1999/xlink" x="0px" y="0px"
	 width="128px" height="128px" viewBox="0 0 128 128" enable-background="new 0 0 128 128" xml:space="preserve">
<g>
	<g>
		<g>
			<path fill="#59B6DC" d="M31.226,115.652c-0.414,0-0.828-0.09-1.214-0.274c-0.963-0.47-1.572-1.439-1.572-2.508V94.754H13.1
				c-4.609,0-8.359-3.749-8.359-8.358V23.694c0-4.611,3.75-8.36,8.359-8.36h101.718c4.608,0,8.358,3.75,8.358,8.36v62.702
				c0,4.609-3.75,8.358-8.358,8.358H58.646l-25.692,20.301C32.454,115.451,31.841,115.652,31.226,115.652L31.226,115.652z
				 M13.1,20.908c-1.535,0-2.787,1.249-2.787,2.786v62.702c0,1.537,1.252,2.786,2.787,2.786h18.126c1.541,0,2.786,1.245,2.786,2.786
				v15.148l21.936-17.332c0.494-0.39,1.103-0.603,1.729-0.603h57.142c1.533,0,2.786-1.249,2.786-2.786V23.694
				c0-1.538-1.253-2.786-2.786-2.786H13.1L13.1,20.908z"/>
		</g>
		<g>
			<path fill="#59B6DC" d="M96.701,48.774H34.002c-1.542,0-2.787-1.247-2.787-2.786c0-1.541,1.245-2.787,2.787-2.787h62.699
				c1.541,0,2.786,1.246,2.786,2.787C99.487,47.527,98.242,48.774,96.701,48.774L96.701,48.774z"/>
		</g>
		<g>
			<path fill="#59B6DC" d="M96.701,65.963H34.002c-1.542,0-2.787-1.247-2.787-2.786c0-1.541,1.245-2.788,2.787-2.788h62.699
				c1.541,0,2.786,1.247,2.786,2.788C99.487,64.716,98.242,65.963,96.701,65.963L96.701,65.963z"/>
		</g>
	</g>
</g>
</svg>
