<?xml version="1.0" encoding="utf-8"?>
<!-- Generator: Adobe Illustrator 16.2.0, SVG Export Plug-In . SVG Version: 6.00 Build 0)  -->
<!DOCTYPE svg PUBLIC "-//W3C//DTD SVG 1.1//EN" "http://www.w3.org/Graphics/SVG/1.1/DTD/svg11.dtd">
<svg version="1.1" id="Layer_1" xmlns="http://www.w3.org/2000/svg" xmlns:xlink="http://www.w3.org/1999/xlink" x="0px" y="0px"
	 width="128px" height="128px" viewBox="0 0 128 128" enable-background="new 0 0 128 128" xml:space="preserve">
<g id="plain-wordmark_4_">
	<g>
		<path fill-rule="evenodd" clip-rule="evenodd" fill="#59B6DC" d="M82.494,34.718c-2.562-7.976-6.669-15.032-12.46-21.105
			c-1.464-1.536-3.089-2.946-4.11-4.854c-0.645-1.211-1.26-2.437-1.889-3.653c-0.118-0.294-0.234-0.588-0.4-1.004
			c-0.065,0.229-0.109,0.31-0.112,0.395c-0.052,1.987-1.176,3.332-2.578,4.59c-1.576,1.416-3.043,2.951-4.557,4.435
			c-1.554,2.042-3.106,4.086-4.661,6.128c-1.255,2.309-2.51,4.617-3.765,6.925c-0.841,2.268-1.68,4.536-2.518,6.803
			c-0.027,0.035-0.065,0.068-0.076,0.106c-1.386,4.552-2.069,9.234-2.407,13.963c-0.125,1.775,0.019,3.577,0.12,5.365
			c0.142,2.554,0.585,5.061,1.25,7.533c2.417,8.975,7.323,16.421,14.03,22.748c1.244,1.176,2.592,2.243,3.89,3.362
			c0.193,0.658,0.384,1.317,0.575,1.976c0.18,1.021,0.356,2.042,0.536,3.063c0.084,1.066,0.169,2.134,0.256,3.201
			c-0.002,0.647-0.03,1.299,0.008,1.946c0.011,0.169,0.226,0.321,0.348,0.481c0.362,0.126,0.725,0.254,1.086,0.379
			c0.327,0.131,0.654,0.256,1.133,0.44c-0.073-1.064-0.133-1.954-0.196-2.842c-0.002-0.934-0.005-1.867-0.008-2.801
			c0.131-1.421,0.262-2.845,0.392-4.269c0.093-0.308,0.188-0.618,0.283-0.926c0.27-0.481,0.542-0.961,0.812-1.438
			c1.002-0.806,2.074-1.538,2.986-2.434c1.649-1.62,3.297-3.264,4.772-5.039c1.914-2.301,3.563-4.813,4.887-7.508
			c0.885-1.805,1.718-3.643,2.409-5.526c0.606-1.661,0.982-3.406,1.462-5.115c0.043-0.123,0.101-0.242,0.128-0.368
			c0.988-4.614,1.154-9.269,0.789-13.96C84.618,41.938,83.728,38.29,82.494,34.718z M62.921,84.169L62.921,84.169
			c0.152-0.76,0.337-1.514,0.477-2.273C63.259,82.655,63.074,83.409,62.921,84.169z M66.28,84.691
			c-0.212-0.466-0.422-0.928-0.634-1.394C65.858,83.764,66.068,84.226,66.28,84.691c0.313,0.264,0.624,0.531,0.935,0.798
			C66.904,85.223,66.594,84.955,66.28,84.691z"/>
		<path fill-rule="evenodd" clip-rule="evenodd" fill="#59B6DC" d="M105.775,102.324c-0.812-1.558-2.004-2.739-3.58-3.515
			c-1.32-0.651-2.738-0.937-4.197-0.978c-1.095-0.033-2.191,0.027-3.289,0.041c-0.972,0.011-1.943,0.027-2.918,0.019
			c-1.144-0.014-2.286-0.046-3.433-0.079c-0.188-0.005-0.324,0.033-0.411,0.224c-0.139,0.3-0.302,0.588-0.474,0.917
			c0.101,0.036,0.147,0.055,0.19,0.061c0.566,0.101,1.138,0.188,1.704,0.299c0.725,0.147,1.051,0.563,1.086,1.174
			c0.05,0.871,0.068,1.745,0.065,2.619c-0.014,3.454-0.04,6.914-0.065,10.366c-0.002,0.229-0.005,0.468-0.067,0.684
			c-0.074,0.247-0.15,0.568-0.335,0.688c-0.318,0.215-0.716,0.356-1.098,0.419c-0.55,0.09-0.645,0.114-0.816,0.656
			c-0.027,0.093-0.049,0.183-0.073,0.274c-0.084,0.295-0.038,0.352,0.27,0.357c1.772,0.019,3.544,0.057,5.316,0.052
			c1.614-0.006,3.231,0.092,4.84-0.213c1.522-0.286,2.943-0.786,4.239-1.636c1.683-1.103,2.894-2.575,3.53-4.5
			c0.515-1.555,0.629-3.139,0.455-4.762C106.595,104.374,106.296,103.317,105.775,102.324z M102.672,111.827
			c-0.95,1.764-2.362,2.943-4.386,3.253c-1.266,0.193-2.531,0.137-3.74-0.343c-0.762-0.3-1.048-0.961-1.069-1.742
			c-0.024-0.763-0.033-1.527-0.033-2.292c-0.005-2.689-0.005-5.38,0-8.066c0-0.847,0.017-1.696,0.03-2.545
			c0.008-0.597,0.134-0.795,0.716-0.844c2.554-0.213,4.99,0.06,7.013,1.856c1.252,1.113,1.963,2.531,2.26,4.156
			c0.122,0.678,0.16,1.375,0.236,2.062C103.636,108.896,103.424,110.425,102.672,111.827z"/>
		<path fill-rule="evenodd" clip-rule="evenodd" fill="#59B6DC" d="M124.102,108.914c-0.503-1.225-1.456-1.995-2.656-2.485
			c-0.408-0.169-0.83-0.308-1.271-0.471c0.065-0.044,0.111-0.07,0.155-0.098c0.477-0.306,1.007-0.553,1.418-0.932
			c0.999-0.914,1.416-2.066,1.22-3.433c-0.186-1.304-0.833-2.26-1.993-2.877c-1.053-0.562-2.188-0.766-3.361-0.766
			c-2.034,0.003-4.067,0.033-6.099,0.038c-0.699,0-1.401-0.052-2.102-0.063c-0.136-0.003-0.337,0.033-0.395,0.123
			c-0.16,0.247-0.267,0.527-0.381,0.803c-0.065,0.16,0,0.248,0.18,0.272c0.49,0.065,0.978,0.149,1.467,0.223
			c0.679,0.099,1.005,0.452,1.046,1.136c0.008,0.133,0.011,0.267,0.011,0.402c0,2.121,0.006,4.239-0.003,6.359
			c-0.011,2.115-0.032,4.233-0.06,6.352c-0.003,0.267-0.038,0.533-0.076,0.797c-0.058,0.4-0.272,0.676-0.681,0.763
			c-0.387,0.082-0.773,0.149-1.157,0.229c-0.139,0.027-0.335,0.024-0.392,0.109c-0.213,0.315-0.384,0.664-0.359,1.083
			c0.063,0.017,0.09,0.03,0.117,0.033c1.296,0.029,2.592,0.065,3.89,0.092c0.259,0.006,0.521,0,0.779,0
			c1.345-0.016,2.694,0.009,4.037-0.06c1.453-0.07,2.82-0.504,4.083-1.247c1.345-0.789,2.379-1.835,2.747-3.405
			C124.502,110.891,124.502,109.881,124.102,108.914z M114.226,99.882c0.006-0.422,0.193-0.609,0.615-0.618
			c1.043-0.029,2.077-0.024,3.082,0.335c1.301,0.463,2.099,1.585,2.085,2.954c-0.006,0.527,0,1.051-0.193,1.554
			c-0.381,0.997-1.116,1.52-2.156,1.626c-0.544,0.052-1.092,0.06-1.576,0.084c-0.58-0.027-1.097-0.052-1.614-0.07
			c-0.212-0.009-0.308-0.102-0.305-0.321C114.185,103.576,114.201,101.73,114.226,99.882z M120.917,113.155
			c-0.521,1.133-1.468,1.727-2.654,1.936c-0.95,0.164-1.905,0.117-2.845-0.125c-0.694-0.18-0.978-0.737-1.116-1.355
			c-0.093-0.414-0.076-0.521-0.084-0.951c-0.014-0.667-0.003-1.659-0.003-1.659c-0.006,0-0.009,0-0.014,0
			c0-2,0.003-2.223-0.003-3.165c-0.003-0.204,0.033-0.495,0.28-0.491c0.885,0.027,1.77-0.055,2.654-0.021
			c0.79,0.029,1.53,0.22,2.225,0.593c1.059,0.572,1.695,1.421,1.87,2.621C121.36,111.445,121.304,112.317,120.917,113.155z"/>
		<path fill-rule="evenodd" clip-rule="evenodd" fill="#59B6DC" d="M23.949,114.215c0.005-1.78,0.014-3.563,0.021-5.344
			c0-0.806-0.101-1.596-0.365-2.357c-0.727-2.102-2.733-3.061-4.818-2.304c-0.95,0.341-1.802,0.863-2.613,1.451
			c-0.474,0.343-0.474,0.343-0.817-0.146c-0.969-1.389-2.352-1.862-3.963-1.351c-1.04,0.329-1.952,0.896-2.815,1.555
			c-0.082,0.06-0.242,0.128-0.289,0.09c-0.082-0.058-0.139-0.202-0.136-0.311c0.005-0.315,0.052-0.632,0.06-0.947
			c0.002-0.201-0.036-0.403-0.055-0.612c-0.389,0.133-0.7,0.271-1.026,0.351c-1.004,0.245-2.017,0.471-3.03,0.702
			c-0.245,0.055-0.506,0.128-0.528,0.411c-0.027,0.275,0.243,0.321,0.447,0.406c0.436,0.174,0.868,0.359,1.298,0.55
			c0.362,0.157,0.496,0.446,0.493,0.833c-0.005,1.657,0.005,3.313-0.005,4.968c-0.002,0.676-0.035,1.348-0.065,2.022
			c-0.027,0.597-0.231,0.847-0.811,0.997c-0.305,0.081-0.618,0.133-0.926,0.207c-0.071,0.016-0.185,0.057-0.185,0.092
			c-0.011,0.292-0.027,0.591,0.022,0.874c0.008,0.052,0.318,0.052,0.49,0.071c0.038,0.005,0.077-0.006,0.115-0.006
			c1.192-0.017,2.384-0.035,3.577-0.049c0.632-0.006,1.263,0,1.949,0c0.022-0.286,0.049-0.615,0.076-0.956
			c-0.395-0.07-0.746-0.125-1.091-0.201c-0.542-0.117-0.771-0.402-0.784-0.95c-0.005-0.259-0.008-0.517-0.008-0.778
			c-0.005-2.022-0.016-4.045-0.016-6.068c0-0.294,0.125-0.527,0.381-0.705c0.55-0.367,1.127-0.661,1.767-0.827
			c1.35-0.343,2.521,0.136,3.041,1.285c0.164,0.359,0.292,0.762,0.327,1.154c0.191,2.027,0.109,4.059-0.005,6.084
			c-0.024,0.438-0.229,0.659-0.662,0.768c-0.334,0.082-0.68,0.131-1.015,0.213c-0.082,0.021-0.202,0.403-0.207,0.47
			c-0.021,0.283-0.011,1.145-0.011,1.145c0.13,0,0.188,0,0.245,0c1.029,0,2.058-0.334,3.087-0.334c0.849,0,1.696-0.118,2.542-0.096
			c0.152,0.003,0.286-0.086,0.294-0.26c0.014-0.278,0.003-0.591-0.011-0.869c0-0.016-0.104-0.042-0.161-0.055
			c-0.291-0.065-0.58-0.142-0.868-0.21c-0.588-0.136-0.792-0.371-0.795-0.965c-0.006-1.465,0.013-2.929,0-4.394
			c-0.006-0.836-0.038-1.675-0.093-2.51c-0.014-0.221,0.022-0.37,0.196-0.496c0.523-0.37,1.086-0.656,1.705-0.819
			c1.905-0.503,3.462,0.539,3.561,2.502c0.098,1.892,0.054,3.792,0.043,5.687c-0.005,0.662-0.223,0.863-0.876,1.04
			c-0.074,0.02-0.147,0.038-0.223,0.058c-0.665,0.158-0.659,0.158-0.621,0.865c0.014,0.221,0.076,0.278,0.31,0.272
			c1.356-0.03,2.714-0.038,4.07-0.049c0.556-0.006,1.108,0,1.712,0c0.038-0.291,0.084-0.618,0.125-0.92
			c-0.531-0.142-1.018-0.248-1.492-0.4C24.096,114.909,23.949,114.658,23.949,114.215z"/>
		<path fill-rule="evenodd" clip-rule="evenodd" fill="#59B6DC" d="M70.658,106.11c0.561-0.518,0.563-1.2,0.408-1.963
			c-0.443,0.463-0.939,0.676-1.506,0.716c-0.757,0.055-1.502-0.011-2.207-0.313c-1.911-0.822-3.792-0.766-5.668,0.136
			c-1.576,0.757-2.545,1.933-2.644,3.719c-0.06,1.144,0.155,2.227,0.917,3.136c0.458,0.548,1.045,0.898,1.707,1.144
			c0.286,0.106,0.305,0.24,0.068,0.422c-0.174,0.137-0.362,0.256-0.547,0.373c-0.4,0.253-0.803,0.501-1.206,0.743
			c-0.237,0.145-0.319,0.327-0.24,0.607c0.226,0.822,0.811,1.299,1.543,1.646c0.098,0.044,0.177,0.123,0.267,0.188
			c-0.079,0.076-0.149,0.163-0.234,0.231c-0.719,0.582-1.462,1.13-2.148,1.747c-0.577,0.521-0.762,1.212-0.588,1.979
			c0.351,1.53,1.364,2.475,2.804,2.91c2.513,0.76,4.876,0.324,7.029-1.165c1.276-0.885,2.191-2.036,2.472-3.618
			c0.311-1.78-0.678-3.324-2.447-3.643c-1.171-0.212-2.368-0.274-3.553-0.408c-0.553-0.065-1.113-0.101-1.652-0.229
			c-0.458-0.109-0.683-0.482-0.643-0.847c0.043-0.356,0.422-0.691,0.86-0.727c0.877-0.071,1.737-0.207,2.545-0.575
			c2.141-0.979,3.137-2.694,2.886-5.006c-0.032-0.311-0.104-0.618-0.166-0.98C69.403,106.453,70.103,106.628,70.658,106.11z
			 M64.16,116.945c0.871,0.027,1.862,0.081,2.82,0.362c0.844,0.244,1.535,0.675,1.739,1.616c0.248,1.139-0.3,2.269-1.399,2.875
			c-1.031,0.569-2.15,0.615-3.285,0.498c-0.972-0.101-1.846-0.436-2.546-1.154c-0.923-0.944-0.928-2.254-0.005-3.193
			C62.309,117.105,62.752,116.932,64.16,116.945z M66.341,110.099c-0.51,1.622-1.985,1.849-3.145,1.328
			c-0.985-0.44-1.416-1.31-1.642-2.303c-0.087-0.381-0.109-0.778-0.158-1.168c0.019-0.561,0.111-1.097,0.354-1.601
			c0.737-1.552,2.554-1.459,3.558-0.754c0.431,0.299,0.729,0.708,0.918,1.192C66.643,107.88,66.687,108.988,66.341,110.099z"/>
		<path fill-rule="evenodd" clip-rule="evenodd" fill="#59B6DC" d="M57.123,115.276c-0.349-0.055-0.7-0.128-1.04-0.231
			c-0.596-0.183-0.67-0.297-0.678-0.928c-0.017-1.765-0.03-3.525-0.049-5.287c-0.008-0.795-0.104-1.576-0.346-2.333
			c-0.64-1.998-2.597-3.07-4.557-2.48c-1.086,0.33-2.017,0.937-2.886,1.653c-0.084,0.067-0.171,0.13-0.318,0.242
			c0-0.161-0.002-0.245,0.003-0.324c0.019-0.376,0.06-0.752,0.057-1.124c-0.003-0.196-0.076-0.396-0.114-0.566
			c-0.741,0.223-1.405,0.449-2.083,0.62c-0.681,0.169-1.372,0.286-2.061,0.425c-0.34,0.071-0.591,0.275-0.585,0.51
			c0.008,0.332,0.283,0.396,0.525,0.495c0.433,0.177,0.869,0.356,1.299,0.547c0.305,0.137,0.43,0.393,0.427,0.722
			c-0.021,2.292-0.035,4.584-0.068,6.876c-0.011,0.725-0.193,0.912-0.907,1.073c-0.104,0.024-0.608,0.043-0.712,0.063
			c-0.659,0.111-1.031,0.139-1.031,0.836c0,0.038,0,0.076,0,0.114c0,0.267,0.511,0.354,0.786,0.351
			c1.75-0.021,3.704-0.029,5.457-0.024c0.746,0.003,0.928-0.057,0.912-0.824c0-0.114,0.03-0.229,0.017-0.335
			c-0.427-0.071-0.815-0.123-1.216-0.21c-0.419-0.095-0.557-0.267-0.595-0.694c-0.038-0.389-0.043-0.786-0.046-1.179
			c-0.019-1.802-0.034-3.602-0.042-5.403c-0.003-0.452,0.084-0.874,0.5-1.165c0.631-0.441,1.326-0.697,2.09-0.749
			c1.563-0.108,2.749,0.816,2.833,2.374c0.106,1.922,0.074,3.85,0.098,5.773c0.002,0.145-0.024,0.289-0.043,0.431
			c-0.038,0.283-0.174,0.495-0.46,0.568c-0.278,0.071-0.561,0.137-0.844,0.18c-0.425,0.063-0.436,0.061-0.465,0.487
			c-0.008,0.096,0,0.193,0.011,0.289c0.049,0.498,0.049,0.481,0.555,0.479c1.693-0.014,3.387-0.025,5.077-0.022
			c0.708,0.003,0.76-0.029,0.765-0.759c0.003-0.061-0.005-0.117,0-0.175C57.398,115.383,57.316,115.307,57.123,115.276z"/>
		<path fill-rule="evenodd" clip-rule="evenodd" fill="#59B6DC" d="M80.779,104.137c-1.774-0.433-3.457-0.108-5.058,0.719
			c-1.555,0.803-2.592,2.045-2.989,3.76c-0.397,1.733-0.207,3.427,0.558,5.036c0.501,1.048,1.267,1.854,2.312,2.379
			c2.444,1.233,5.437,0.673,7.354-0.975c1.513-1.298,2.071-3.029,2.104-5.169c-0.021-0.216-0.04-0.629-0.098-1.038
			C84.64,106.519,83.025,104.687,80.779,104.137z M82.124,113.145c-0.471,1.854-2.074,2.677-3.885,2.042
			c-0.923-0.324-1.614-0.944-2.079-1.786c-1.067-1.927-1.271-3.977-0.665-6.078c0.406-1.402,1.558-2.167,2.93-2.072
			c1.225,0.085,2.167,0.673,2.858,1.672c0.729,1.054,1.01,2.248,1.083,3.506c0.014,0.202,0.003,0.403,0.003,0.607
			c0.03,0.003,0.058,0.005,0.087,0.008C82.351,111.745,82.299,112.462,82.124,113.145z"/>
		<path fill-rule="evenodd" clip-rule="evenodd" fill="#59B6DC" d="M36.128,104.106c-1.867-0.424-3.615-0.002-5.238,0.945
			c-1.402,0.822-2.308,2.047-2.657,3.647c-0.324,1.497-0.19,2.965,0.337,4.399c0.324,0.874,0.812,1.642,1.53,2.24
			c1.508,1.261,3.272,1.579,5.15,1.228c1.59-0.296,2.989-1.004,4.002-2.324c0.953-1.236,1.312-2.654,1.35-4.189
			c-0.055-0.49-0.071-0.986-0.174-1.46C39.918,106.222,38.53,104.657,36.128,104.106z M37.653,113.137
			c-0.457,1.846-2.085,2.689-3.882,2.053c-1.154-0.411-1.906-1.255-2.379-2.339c-0.762-1.739-0.92-3.55-0.424-5.385
			c0.375-1.401,1.513-2.437,3.256-2.188c1.07,0.152,2.451,0.697,3.075,1.565c0.838,1.173,1.702,2.513,1.702,3.923
			c0,0.096,0,0.193,0,0.288c0,0.003-0.502,0.009-0.478,0.009C38.419,111.757,37.819,112.462,37.653,113.137z"/>
	</g>
</g>
</svg>
