<?xml version="1.0" encoding="utf-8"?>
<!-- Generator: Adobe Illustrator 16.2.0, SVG Export Plug-In . SVG Version: 6.00 Build 0)  -->
<!DOCTYPE svg PUBLIC "-//W3C//DTD SVG 1.1//EN" "http://www.w3.org/Graphics/SVG/1.1/DTD/svg11.dtd">
<svg version="1.1" id="Layer_1" xmlns="http://www.w3.org/2000/svg" xmlns:xlink="http://www.w3.org/1999/xlink" x="0px" y="0px"
	 width="128px" height="128px" viewBox="0 0 128 128" enable-background="new 0 0 128 128" xml:space="preserve">
<g id="plain_7_">
	<g>
		<path fill="#59B6DC" d="M123.568,120.092c-0.811-0.809-1.682-1.614-2.483-2.424c-2.372-3.139-5.412-5.898-8.603-8.19
			c-2.549-1.825-8.262-4.294-9.323-7.26c-0.062-0.063-0.13-0.121-0.199-0.184c1.808-0.207,3.918-0.857,5.587-1.307
			c2.798-0.751,3.979-0.557,6.868-1.304c1.304-0.373,2.585-0.743,2.585-1.12c0-0.245,0-0.494,0-0.74c0-1.5-1.179-3.484-2.772-4.84
			c-4.173-3.547-8.063-7.098-12.743-10.058c-2.602-1.639-5.483-2.703-8.235-4.094c-0.927-0.47-2.39-0.712-2.999-1.489
			c-1.452-1.843-2.151-4.181-3.268-6.327c-2.341-4.505-4.593-9.418-6.667-14.158c-1.411-3.226-2.312-6.41-4.071-9.304
			c-8.453-13.902-17.549-22.29-31.641-30.535c-3.001-1.756-6.607-2.448-10.424-3.35c-2.043-0.125-4.089-0.249-6.136-0.374
			c-1.251-0.522-2.551-2.05-3.724-2.793C20.648,7.293,8.672,0.873,5.212,9.309c-2.182,5.324,3.267,10.521,5.21,13.221
			c1.369,1.895,3.122,4.018,4.101,6.144c0.643,1.4,0.753,2.804,1.303,4.284c1.352,3.647,2.527,7.613,4.28,10.988
			c0.885,1.704,1.863,3.499,2.98,5.023c0.685,0.937,1.86,1.348,2.047,2.793c-1.151,1.607-1.217,4.104-1.863,6.144
			c-2.911,9.172-1.812,20.578,2.423,27.369c1.296,2.084,4.36,6.555,8.564,4.844c3.679-1.501,3.498-6.147,4.548-10.241
			c0.235-0.934,0.804-2.485,1.195-2.236c0,0.062,0,0.124,0,0.187c0,2.233,1.599,4.467,2.715,6.7C45.194,88.526,54,99.503,58,100.354
			c0-0.059-4.479-5.358-5.686-6.99c-3.392-4.612-6.389-9.503-9.121-14.752c-1.303-2.51-3.958-10.178-4.844-10.687
			c-1.203,1.864-2.977,3.392-3.907,5.598c-1.49,3.533-2.209,12.571-2.607,12.492c-2.593-0.626-3.505-3.294-4.467-5.583
			c-2.441-5.794-2.894-15.118-0.747-21.781c0.553-1.729,3.063-7.156,2.046-8.753c-0.484-1.587-2.081-2.506-2.977-3.72
			c-1.11-1.504-2.216-3.482-2.984-5.217c-1.991-4.515-2.925-9.583-5.02-14.147c-1.009-2.182-2.704-4.391-4.1-6.331
			c-1.542-2.147-3.271-3.73-4.467-6.327c-0.425-0.927-1.003-2.406-0.374-3.354c0.201-0.643,0.484-0.909,1.117-1.117
			c1.082-0.833,4.09,0.273,5.214,0.74c2.983,1.241,5.479,2.764,8.007,4.444C24.3,15.672,25.527,18,26.996,18
			c0.557,0,1.113,0,1.673,0c2.621,0,5.56-0.157,8.007,0.59c4.329,1.307,8.208,3.188,11.728,5.411
			c10.731,6.78,19.506,16.34,25.512,27.846c0.964,1.853,1.379,3.58,2.229,5.541c1.715,3.962,3.876,8.017,5.584,11.89
			c1.704,3.872,3.364,7.761,5.773,10.976c1.269,1.694,6.157,2.597,8.377,3.537c1.56,0.656,4.111,1.345,5.587,2.233
			c2.818,1.701,5.55,3.72,8.19,5.58c1.324,0.93,5.384,2.974,5.588,4.657c-6.549-0.184-11.552,0.429-15.828,2.229
			c-1.214,0.516-3.153,0.529-3.351,2.054c0.671,0.698,0.774,1.742,1.304,2.606c1.021,1.649,2.742,3.862,4.284,5.024
			c1.68,1.269,3.412,2.624,5.213,3.723c3.202,1.954,6.776,3.07,9.867,5.031c1.819,1.151,5.266,5.549,8.266,5.953
			c0-0.063,0-0.124,0-0.184C125,121.935,124.113,120.884,123.568,120.092z"/>
		<path fill="#59B6DC" d="M28.856,25c0.65,0,3.848,6.618,4.47,7.925c0.059-0.066,0.121-0.021,0.183-0.083
			c2.428-1.874,1.479-5.104,1.082-5.683C32.313,23.844,28.794,25,28.856,25z"/>
	</g>
</g>
</svg>
