<?xml version="1.0" encoding="utf-8"?>
<!-- Generator: Adobe Illustrator 16.2.0, SVG Export Plug-In . SVG Version: 6.00 Build 0)  -->
<!DOCTYPE svg PUBLIC "-//W3C//DTD SVG 1.1//EN" "http://www.w3.org/Graphics/SVG/1.1/DTD/svg11.dtd">
<svg version="1.1" id="Layer_1" xmlns="http://www.w3.org/2000/svg" xmlns:xlink="http://www.w3.org/1999/xlink" x="0px" y="0px"
	 width="128px" height="128px" viewBox="0 0 128 128" enable-background="new 0 0 128 128" xml:space="preserve">
<g id="plain_6_">
	<g>
		<path fill="#59B6DC" d="M111.979,31.384L69.295,6.577c-2.693-1.531-6.18-1.531-8.897,0L17.483,31.384
			C14.704,32.985,13,35.988,13,39.206V88.75c0,3.216,1.768,6.222,4.547,7.832l11.28,6.479c5.451,2.685,7.19,2.685,9.675,2.685
			c8.074,0,12.498-4.881,12.498-13.396V43.437C51,42.746,50.883,42,50.205,42h-5.448C44.07,42,41,42.746,41,43.437v48.912
			c0,3.776-2.649,7.531-9.029,4.341c0,0-9.971-7.467-9.971-7.939V39.206c0-0.469,42.67-25.939,42.67-25.939
			c0.401-0.224,0.775-0.224,1.174,0c0,0,41.156,25.458,41.156,25.939V88.75c0,0.473-41.885,25.94-41.885,25.94
			c-0.364,0.218-0.646,0.218-1.045,0l-10.868-6.541c-0.328-0.189-0.678-0.257-0.994-0.082c-3.049,1.727-3.587,1.956-6.443,2.947
			c-0.703,0.246-1.735,0.672,0.4,1.868l14.347,8.481c1.372,0.796,2.936,1.209,4.503,1.209c1.592,0,3.153-0.413,4.521-1.209
			l42.441-24.782c2.782-1.62,4.021-4.616,4.021-7.832V39.206C116,35.988,114.76,32.991,111.979,31.384z"/>
		<path fill="#59B6DC" d="M78.283,80.897c-11.363,0-13.863-1.521-14.697-7.175c-0.098-0.607-8.025-0.496-8.025,0.182
			c0,7.236,3.933,15.193,22.722,15.193c13.598,0,21.399-5.689,21.399-15.04c0-9.275-6.269-11.903-19.458-13.652
			c-13.332-1.762-14.685-2.752-14.685-5.881c0-2.574,1.147-6.058,11.019-6.058c8.819,0,12.07,0.264,13.408,6.208
			c0.117,0.559,8.043,0.762,8.013,0.406c-0.865-10.239-7.666-14.609-21.421-14.609c-12.237,0-19.538,5.371-19.538,14.03
			c0,9.396,7.264,12.095,19.007,13.258c14.056,1.377,15.147,3.481,15.147,6.245C91.176,78.803,87.32,80.897,78.283,80.897z"/>
	</g>
</g>
</svg>
