<?xml version="1.0" encoding="utf-8"?>
<!-- Generator: Adobe Illustrator 16.2.0, SVG Export Plug-In . SVG Version: 6.00 Build 0)  -->
<!DOCTYPE svg PUBLIC "-//W3C//DTD SVG 1.1//EN" "http://www.w3.org/Graphics/SVG/1.1/DTD/svg11.dtd">
<svg version="1.1" id="Layer_1" xmlns="http://www.w3.org/2000/svg" xmlns:xlink="http://www.w3.org/1999/xlink" x="0px" y="0px"
	 width="128px" height="128px" viewBox="0 0 128 128" enable-background="new 0 0 128 128" xml:space="preserve">
<path fill="#59B6DC" d="M73.273,34.724c0.313,0.098,0.621,0.195,0.93,0.305c2.169,0.759,4.99,0.195,6.439-1.588l13.29-16.365
	c1.449-1.782,1.071-4.259-0.935-5.375c-5.992-3.338-12.615-5.662-19.644-6.749c-2.27-0.351-4.125,1.371-4.125,3.667V29.6
	C69.229,31.898,71.081,34.038,73.273,34.724z M17.132,35.008l19.181,8.758c2.091,0.955,4.876,0.211,6.488-1.425
	c3.321-3.37,7.418-5.969,12.01-7.487c2.181-0.723,4.024-2.891,4.024-5.185V8.641c0-2.296-1.86-4.003-4.125-3.634
	C38.542,7.64,24.579,16.849,15.598,29.787C14.291,31.67,15.042,34.054,17.132,35.008z M85.71,90.171
	c-1.656-1.592-4.458-1.714-6.443-0.561c-4.422,2.558-9.546,4.036-15.011,4.036c-16.635,0-30.167-13.533-30.167-30.168
	c0-1.583,0.125-3.143,0.365-4.661c0.361-2.266-0.763-4.824-2.85-5.774l-18.982-8.668c-2.091-0.954-4.458,0.012-5.12,2.213
	c-1.616,5.351-2.517,11.011-2.517,16.891c0,32.685,26.59,59.271,59.271,59.271c13.699,0,26.294-4.71,36.335-12.555
	c1.812-1.412,1.844-3.963,0.188-5.554L85.71,90.171z M107.652,23.235c-1.563-1.683-4.109-1.502-5.559,0.28L88.926,39.73
	c-1.449,1.782-1.327,4.576-0.004,6.452c3.455,4.897,5.502,10.857,5.502,17.297c0,4.45-0.982,8.669-2.729,12.473
	c-0.958,2.087-0.642,4.934,1.015,6.525l15.178,14.58c1.656,1.592,4.157,1.43,5.444-0.471c6.415-9.461,10.195-20.842,10.195-33.107
	C123.527,47.936,117.478,33.81,107.652,23.235z"/>
</svg>
