<?xml version="1.0" encoding="utf-8"?>
<!-- Generator: Adobe Illustrator 16.2.0, SVG Export Plug-In . SVG Version: 6.00 Build 0)  -->
<!DOCTYPE svg PUBLIC "-//W3C//DTD SVG 1.1//EN" "http://www.w3.org/Graphics/SVG/1.1/DTD/svg11.dtd">
<svg version="1.1" id="Layer_1" xmlns="http://www.w3.org/2000/svg" xmlns:xlink="http://www.w3.org/1999/xlink" x="0px" y="0px"
	 width="128px" height="128px" viewBox="0 0 128 128" enable-background="new 0 0 128 128" xml:space="preserve">
<path fill="#59B6DC" d="M64.25,4.75C31.527,4.75,5,31.277,5,64c0,25.101,15.615,46.54,37.656,55.173
	c-0.517-4.687-0.984-11.877,0.208-16.996c1.076-4.625,6.947-29.451,6.947-29.451s-1.774-3.549-1.774-8.795
	c0-8.24,4.775-14.392,10.724-14.392c5.053,0,7.495,3.795,7.495,8.347c0,5.084-3.236,12.684-4.907,19.728
	c-1.396,5.897,2.958,10.708,8.772,10.708c10.534,0,18.627-11.105,18.627-27.133c0-14.188-10.19-24.105-24.749-24.105
	c-16.856,0-26.751,12.645-26.751,25.713c0,5.092,1.959,10.554,4.409,13.52c0.482,0.587,0.551,1.1,0.409,1.697
	c-0.451,1.875-1.45,5.898-1.647,6.724c-0.255,1.084-0.856,1.312-1.979,0.791c-7.402-3.444-12.027-14.265-12.027-22.956
	c0-18.689,13.578-35.851,39.149-35.851c20.553,0,36.526,14.643,36.526,34.219c0,20.417-12.877,36.854-30.744,36.854
	c-6.006,0-11.649-3.121-13.582-6.805c0,0-2.97,11.314-3.691,14.084c-1.338,5.146-4.949,11.595-7.364,15.533
	c5.543,1.717,11.437,2.643,17.543,2.643c32.723,0,59.25-26.527,59.25-59.25S96.973,4.75,64.25,4.75z"/>
</svg>
