<?xml version="1.0" encoding="utf-8"?>
<!-- Generator: Adobe Illustrator 16.2.0, SVG Export Plug-In . SVG Version: 6.00 Build 0)  -->
<!DOCTYPE svg PUBLIC "-//W3C//DTD SVG 1.1//EN" "http://www.w3.org/Graphics/SVG/1.1/DTD/svg11.dtd">
<svg version="1.1" id="Layer_1" xmlns="http://www.w3.org/2000/svg" xmlns:xlink="http://www.w3.org/1999/xlink" x="0px" y="0px"
	 width="128px" height="128px" viewBox="0 0 128 128" enable-background="new 0 0 128 128" xml:space="preserve">
<path id="Icon_Pointer_2_" fill="#59B6DC" d="M98.379,122.45h-47.2c-2.174,0-3.933-1.763-3.933-3.934
	c0-6.05-2.889-9.549-7.26-14.846c-2.428-2.935-5.178-6.265-7.882-10.613c-7.452-11.984-13.897-25.755-15.496-31.167
	c-1.559-5.27-0.515-8.658,0.868-10.509c1.767-2.362,4.656-3.665,8.136-3.665c4.602,0,9.626,3.949,13.767,9.05V16.25
	c0-6.507,5.293-11.8,11.8-11.8c6.507,0,11.8,5.293,11.8,11.8v16.41c1.229-0.438,2.558-0.676,3.934-0.676
	c4.171,0,7.843,2.174,9.948,5.451c1.705-0.964,3.688-1.517,5.785-1.517c5.431,0,10.025,3.691,11.385,8.696
	c1.352-0.538,2.819-0.83,4.348-0.83c6.508,0,11.801,5.293,11.801,11.8v11.8c0,10.037-2.044,18.326-4.025,26.343
	c-1.975,7.985-3.842,15.525-3.842,24.79C102.313,120.688,100.554,122.45,98.379,122.45z M54.813,114.584h39.741
	c0.438-8.481,2.228-15.719,3.964-22.748c1.951-7.904,3.795-15.376,3.795-24.452V54.796c0-2.166-1.759-3.933-3.934-3.933
	c-2.166,0-3.933,1.767-3.933,3.933v4.721c0,2.17-1.76,3.933-3.934,3.933s-3.934-1.763-3.934-3.933V46.929
	c0-2.166-1.759-3.933-3.933-3.933c-2.167,0-3.934,1.767-3.934,3.933v8.654c0,2.17-1.76,3.934-3.934,3.934s-3.934-1.763-3.934-3.934
	V42.996c0-2.167-1.759-3.933-3.933-3.933c-2.167,0-3.934,1.767-3.934,3.933v8.654c0,2.17-1.759,3.933-3.934,3.933
	c-2.174,0-3.933-1.763-3.933-3.933V15.463c0-2.167-1.759-3.934-3.934-3.934c-2.166,0-3.933,1.767-3.933,3.934V75.25
	c0,2.171-1.759,3.934-3.934,3.934c-2.174,0-3.933-1.763-3.933-3.934v-3.23c-3.457-9.053-11.155-16.828-13.767-16.828
	c-0.914,0-1.537,0.207-1.836,0.895c-0.223,0.515-0.43,1.705,0.1,3.499c1.229,4.156,7.252,16.993,14.912,29.323
	c2.427,3.896,4.886,6.872,7.26,9.753C50.15,103.621,53.776,108.016,54.813,114.584z"/>
</svg>
