<?xml version="1.0" encoding="utf-8"?>
<!-- Generator: Adobe Illustrator 16.2.0, SVG Export Plug-In . SVG Version: 6.00 Build 0)  -->
<!DOCTYPE svg PUBLIC "-//W3C//DTD SVG 1.1//EN" "http://www.w3.org/Graphics/SVG/1.1/DTD/svg11.dtd">
<svg version="1.1" id="Layer_1" xmlns="http://www.w3.org/2000/svg" xmlns:xlink="http://www.w3.org/1999/xlink" x="0px" y="0px"
	 width="128px" height="128px" viewBox="0 0 128 128" enable-background="new 0 0 128 128" xml:space="preserve">
<g id="plain_4_">
	<g>
		<path fill-rule="evenodd" clip-rule="evenodd" fill="#59B6DC" d="M119.013,76.201c-0.418-2.71-2.689-4.481-5.337-4.601
			c-0.959-0.046-1.931,0.057-2.886,0.176c-1.154,0.149-2.295,0.408-3.446,0.581c-0.796,0.119-1.599,0.172-2.395,0.255
			c-0.017-0.076-0.027-0.093-0.021-0.103c1.483-2.803,3.028-5.573,4.432-8.416c1.078-2.179,1.997-4.435,2.949-6.677
			c1.572-3.708,2.829-7.536,3.871-11.423c0.998-3.722,1.854-7.487,2.122-11.351c0.106-1.542,0.183-3.091,0.173-4.634
			c-0.007-1.234-0.143-2.468-0.266-3.695c-0.139-1.406-0.563-2.74-1.15-4.023c-0.776-1.691-1.98-3.078-3.248-4.398
			c-1.012-1.055-2.126-2.017-3.233-2.979c-1.576-1.37-3.366-2.429-5.188-3.437c-3.999-2.211-9.359-3.702-10.786-3.811
			c-3.271-0.249-9.541-0.395-12.051-0.093c-2.272,0.274-4.524,0.864-6.707,1.54c-0.816,0.252-1.563,0.185-2.339,0.112
			c-0.594-0.053-1.181-0.168-1.774-0.198c-2.269-0.113-4.538-0.257-6.803-0.233c-2.169,0.023-4.319,0.388-6.422,0.984
			c-1.758,0.501-3.479,1.119-5.055,2.042c-0.673,0.398-1.207,0.324-1.907,0.125c-2.345-0.677-4.707-1.314-7.088-1.848
			c-1.486-0.332-3.012-0.495-4.531-0.654c-1.453-0.149-2.916-0.242-4.378-0.272c-1.426-0.03-2.866-0.03-4.286,0.096
			c-2.266,0.199-4.485,0.664-6.644,1.403c-2.398,0.826-4.594,2.02-6.578,3.589c-2.01,1.592-3.625,3.536-4.922,5.755
			c-1.367,2.342-2.305,4.85-2.886,7.48c-0.315,1.426-0.643,2.896-0.858,4.342c-0.066,0.451-0.583,5.331-0.003,8.919
			c0.162,1.003,0.308,2.027,0.477,3.032c0.269,1.589,0.622,3.171,0.947,4.75c0.458,2.203,0.948,4.405,1.452,6.598
			c0.368,1.599,0.794,3.184,1.232,4.763c0.67,2.411,1.334,4.826,2.09,7.211c0.7,2.216,1.508,4.398,2.307,6.584
			c1.104,3.022,2.429,5.944,4.018,8.747c1.373,2.425,2.942,4.7,5.042,6.568c1.39,1.23,2.932,2.179,4.73,2.649
			c1.41,0.372,2.846,0.418,4.292,0.123c1.672-0.345,3.158-1.068,4.475-2.146c0.153-0.122,0.318-0.219,0.498,0.011
			c0.684,0.862,1.596,1.439,2.551,1.937c2.577,1.347,5.387,1.748,8.239,1.911c0.69,0.04,1.39-0.06,2.086-0.076
			c1.354-0.04,2.674-0.302,3.971-0.677c0.68-0.199,1.343-0.448,2.033-0.681c0.037,0.736,0.083,1.446,0.106,2.153
			c0.037,1.29,0.057,2.577,0.097,3.867c0.016,0.591,0.04,1.178,0.093,1.765c0.143,1.513,0.278,3.022,0.458,4.528
			c0.126,1.038,0.255,2.083,0.501,3.098c0.491,2.043,1.158,4.033,2.003,5.964c0.829,1.895,2.023,3.493,3.619,4.813
			c2.06,1.705,4.478,2.431,7.085,2.563c1.078,0.057,2.189,0.007,3.251-0.188c1.682-0.306,3.359-0.69,4.998-1.185
			c3.334-1.005,6.213-2.743,8.366-5.55c1.227-1.602,2.231-3.333,2.875-5.244c0.534-1.578,1.039-3.174,1.437-4.789
			c0.315-1.274,0.471-2.588,0.663-3.888c0.127-0.859,0.203-1.729,0.282-2.598c0.13-1.406,0.262-2.813,0.355-4.226
			c0.066-0.981,0.063-1.967,0.103-2.952c0.013-0.299,0.06-0.597,0.09-0.896c0.022-0.278,0.162-0.371,0.447-0.368
			c0.992,0.014,1.987,0.043,2.979-0.003c1.111-0.05,2.232-0.097,3.327-0.282c1.556-0.259,3.104-0.591,4.631-0.988
			c1.805-0.472,3.459-1.317,5.052-2.279c1.854-1.121,3.542-2.435,4.916-4.13C118.737,79.773,119.302,78.065,119.013,76.201z
			 M115.849,77.113c-0.063,0.85-0.451,1.576-1.015,2.199c-2.664,2.936-6.004,4.717-9.825,5.593
			c-1.453,0.332-2.949,0.508-4.435,0.644c-1.268,0.116-2.551,0.136-3.821,0.09c-0.933-0.033-1.857-0.249-2.813-0.385
			c-0.096,0.872-0.186,1.781-0.298,2.687c-0.14,1.161-0.306,2.315-0.445,3.476c-0.132,1.102-0.238,2.21-0.378,3.308
			c-0.136,1.071-0.305,2.136-0.447,3.204c-0.133,0.995-0.229,1.993-0.379,2.985c-0.225,1.522-0.444,3.048-0.739,4.561
			c-0.358,1.805-0.902,3.553-1.795,5.182c-1.088,1.986-2.63,3.503-4.594,4.62c-2.023,1.158-4.235,1.762-6.478,2.263
			c-1.589,0.358-3.225,0.414-4.83,0.269c-2.789-0.252-5.171-1.443-6.969-3.605c-1.715-2.063-2.879-4.429-3.294-7.105
			c-0.199-1.273-0.342-2.558-0.458-3.838c-0.123-1.426-0.209-2.859-0.275-4.288c-0.083-1.818-0.143-3.633-0.183-5.45
			c-0.05-2.232-0.066-4.468-0.096-6.7c-0.003-0.054-0.01-0.109-0.007-0.087c-1.134,0.684-2.252,1.43-3.436,2.044
			c-1.387,0.72-2.893,1.138-4.455,1.257c-1.224,0.093-2.461,0.176-3.678,0.08c-1.997-0.163-3.991-0.475-5.778-1.457
			c-0.727-0.401-1.483-0.885-1.98-1.522c-1.197-1.528-0.624-3.459,1.181-4.388c1.247-0.644,2.607-0.909,3.96-1.225
			c1.174-0.271,2.345-0.58,3.493-0.955c1.131-0.371,1.848-1.29,2.554-2.192c0.368-0.471,0.733-0.942,1.121-1.439
			c-0.468-0.05-0.909-0.1-1.347-0.14c-1.337-0.129-2.61-0.497-3.831-1.035c-1.042-0.461-1.058-0.514-1.824,0.319
			c-1.277,1.386-2.518,2.806-3.769,4.212c-0.922,1.038-1.837,2.083-2.753,3.121c-0.905,1.028-1.758,2.116-2.736,3.072
			c-1.45,1.423-3.201,2.275-5.288,2.179c-1.34-0.06-2.567-0.53-3.668-1.3c-2.275-1.582-3.811-3.802-5.205-6.13
			c-1.791-2.985-3.164-6.163-4.338-9.427c-0.813-2.259-1.629-4.518-2.338-6.81c-0.773-2.488-1.446-5.005-2.113-7.526
			c-0.504-1.9-0.952-3.818-1.376-5.738c-0.484-2.183-0.949-4.372-1.36-6.571c-0.275-1.482-0.438-2.988-0.66-4.481
			c-0.302-2.017-0.358-4.05-0.249-6.07c0.099-1.824,0.361-3.642,0.62-5.45c0.361-2.504,1.184-4.866,2.372-7.099
			c0.727-1.366,1.629-2.61,2.673-3.765c1.712-1.897,3.785-3.264,6.09-4.295c1.612-0.716,3.313-1.151,5.048-1.486
			c2.577-0.504,5.174-0.484,7.772-0.428c1.138,0.023,2.269,0.229,3.403,0.342c2.445,0.242,4.84,0.756,7.205,1.393
			c1.725,0.461,3.414,1.058,5.122,1.579c0.172,0.053,0.425,0.05,0.564-0.043c2.315-1.512,4.85-2.511,7.54-3.082
			c1.021-0.215,2.076-0.312,3.125-0.378c1.27-0.08,2.551-0.156,3.818-0.083c1.522,0.086,3.042,0.312,4.558,0.521
			c0.733,0.1,1.453,0.355,2.189,0.424c0.352,0.033,0.727-0.226,1.098-0.312c1.904-0.438,3.795-0.929,5.715-1.274
			c1.43-0.259,2.89-0.378,4.339-0.464c1.622-0.093,3.254-0.159,4.873-0.083c2.047,0.1,4.076,0.392,6.083,0.859
			c2.484,0.577,4.866,1.416,7.132,2.584c1.695,0.869,3.304,1.88,4.753,3.121c0.949,0.816,1.921,1.619,2.78,2.527
			c1.058,1.118,2.136,2.239,2.799,3.672c0.501,1.081,0.856,2.202,0.956,3.386c0.122,1.473,0.269,2.952,0.255,4.425
			c-0.01,1.41-0.202,2.816-0.342,4.226c-0.309,3.204-1.005,6.342-1.851,9.437c-0.7,2.554-1.52,5.085-2.405,7.583
			c-0.815,2.302-1.758,4.564-2.706,6.816c-0.703,1.665-1.46,3.311-2.282,4.919c-1.556,3.051-3.178,6.07-5.049,8.943
			c-0.321,0.497-0.63,1.005-0.945,1.512c0.816,0.551,1.741,0.747,2.674,0.847c0.889,0.096,1.791,0.155,2.677,0.086
			c1.416-0.103,2.829-0.306,4.239-0.504c1.396-0.196,2.763-0.591,4.199-0.488C114.92,74.686,115.944,75.771,115.849,77.113z"/>
		<path fill-rule="evenodd" clip-rule="evenodd" fill="#59B6DC" d="M95.416,73.999c-0.607-0.783-1.228-1.56-1.824-2.352
			c-0.933-1.251-1.603-2.644-2.279-4.044c-0.637-1.323-1.42-2.58-2.093-3.891c-1.174-2.289-2.368-4.571-3.45-6.903
			c-1.359-2.932-2.435-5.964-2.772-9.211c-0.143-1.373-0.18-2.743,0.1-4.106c0.444-2.172,1.582-3.871,3.489-5.035
			c1.768-1.081,3.741-1.433,5.762-1.539c1.254-0.069,2.515-0.013,3.814-0.013c-0.007-0.05-0.007-0.143-0.043-0.219
			c-0.81-1.695-1.565-3.417-2.451-5.065c-1.247-2.332-2.847-4.435-4.627-6.385c-1.32-1.443-2.747-2.783-4.313-3.967
			c-1.539-1.165-3.161-2.206-4.89-3.055c-2.063-1.015-4.212-1.801-6.468-2.298c-2.166-0.481-4.346-0.776-6.567-0.8
			c-1.895-0.023-3.778,0.063-5.626,0.491c-2.786,0.646-5.334,1.794-7.549,3.652c-1.241,1.035-2.319,2.203-3.264,3.5
			c-1.111,1.522-2.007,3.171-2.773,4.896c-1.052,2.368-1.771,4.833-2.266,7.367c-0.246,1.264-0.441,2.541-0.637,3.814
			c-0.07,0.444-0.073,0.899-0.113,1.41c0.342-0.179,0.587-0.315,0.842-0.438c0.269-0.129,0.547-0.242,0.819-0.368
			c2.78-1.271,5.656-2.09,8.75-1.994c1.313,0.04,2.571,0.299,3.742,0.876c2.242,1.104,3.552,2.985,4.123,5.363
			c0.392,1.642,0.664,3.314,0.926,4.986c0.202,1.303,0.415,2.62,0.438,3.937c0.033,1.921-0.063,3.848-0.169,5.769
			c-0.086,1.638-0.431,3.247-1.002,4.776c-1.038,2.776-2.199,5.51-3.28,8.272c-0.358,0.912-0.63,1.857-0.969,2.862
			c0.521,0,0.942-0.006,1.367,0c0.166,0.004,0.335,0.007,0.494,0.047c1.244,0.292,2.322,0.855,3.208,1.811
			c1.178,1.274,1.798,2.76,1.831,4.481c0.017,0.952-0.083,1.907-0.079,2.863c0.02,4.441,0.053,8.883,0.089,13.327
			c0.007,0.724,0.043,1.449,0.093,2.176c0.11,1.517,0.22,3.035,0.368,4.551c0.104,1.072,0.249,2.144,0.418,3.211
			c0.242,1.51,0.929,2.856,1.709,4.14c0.673,1.108,1.546,2.047,2.696,2.697c1.957,1.098,4.063,1.19,6.187,0.786
			c1.433-0.275,2.843-0.717,4.232-1.168c1.373-0.447,2.613-1.178,3.655-2.186c0.976-0.945,1.665-2.1,2.133-3.37
			c0.905-2.468,1.188-5.068,1.563-7.646c0.143-0.966,0.262-1.935,0.392-2.899c0.146-1.102,0.291-2.202,0.435-3.304
			c0.103-0.819,0.198-1.639,0.298-2.458c0.143-1.178,0.296-2.354,0.432-3.532c0.103-0.909,0.192-1.824,0.285-2.736
			c0.119-1.168,0.249-2.332,0.352-3.5c0.079-0.886,0.047-1.788,0.206-2.657c0.285-1.595,1.041-2.952,2.454-3.831
			c0.591-0.364,1.261-0.606,1.917-0.919C95.492,74.122,95.459,74.056,95.416,73.999z"/>
		<path fill-rule="evenodd" clip-rule="evenodd" fill="#59B6DC" d="M41.956,67.454c-0.707-1.672-1.131-3.413-1.257-5.217
			c-0.12-1.695,0.083-3.38,0.255-5.068c0.169-1.632,0.308-3.274,0.358-4.916c0.083-2.697-0.099-5.39-0.229-8.083
			c-0.077-1.608,0.109-3.23,0.252-4.839c0.129-1.45,0.289-2.902,0.564-4.329c0.461-2.395,1.071-4.757,1.937-7.045
			c0.823-2.173,1.768-4.282,3.104-6.186c0.916-1.307,1.954-2.524,2.949-3.801c-0.046-0.017-0.169-0.063-0.295-0.103
			c-3.248-1.032-6.544-1.837-9.941-2.189c-1.602-0.166-3.214-0.265-4.823-0.358c-0.494-0.03-0.995,0.037-1.493,0.083
			c-1.227,0.116-2.468,0.163-3.675,0.395c-2.057,0.392-4.027,1.048-5.852,2.116c-1.639,0.962-3.015,2.203-4.169,3.695
			c-1.273,1.645-2.129,3.502-2.747,5.486c-0.726,2.342-1.071,4.747-1.164,7.178c-0.083,2.13-0.123,4.272,0.242,6.396
			c0.275,1.579,0.458,3.174,0.76,4.75c0.411,2.143,0.852,4.283,1.363,6.409c0.726,3.039,1.456,6.08,2.318,9.082
			c0.826,2.876,1.758,5.728,2.767,8.544c0.826,2.299,1.781,4.551,2.79,6.78c0.653,1.446,1.446,2.843,2.279,4.199
			c0.885,1.442,1.891,2.813,3.257,3.857c1.721,1.32,3.055,1.526,4.806,0.076c0.75-0.62,1.383-1.387,2.037-2.116
			c1.038-1.161,2.037-2.352,3.068-3.516c1.313-1.486,2.647-2.952,3.967-4.429c0.279-0.312,0.547-0.633,0.819-0.948
			c-0.159-0.14-0.312-0.262-0.448-0.395C44.115,71.385,42.845,69.554,41.956,67.454z"/>
		<path fill-rule="evenodd" clip-rule="evenodd" fill="#59B6DC" d="M91.787,23.302c1.074,1.261,2.113,2.554,3.071,3.904
			c1.857,2.604,3.341,5.42,4.432,8.432c0.484,1.33,0.869,2.67,0.696,4.12c-0.119,1.019-0.109,2.053-0.198,3.075
			c-0.077,0.849-0.209,1.695-0.319,2.544c-0.165,1.28-0.404,2.554-0.478,3.841c-0.066,1.22,0.004,2.455,0.08,3.682
			c0.079,1.244,0.245,2.481,0.361,3.725c0.13,1.41,0.302,2.819,0.342,4.229c0.033,1.161-0.069,2.329-0.173,3.486
			c-0.119,1.393-0.474,2.743-1.001,4.037c-0.368,0.912-0.813,1.794-1.231,2.71c0.044,0.043,0.1,0.116,0.17,0.176
			c0.072,0.066,0.155,0.122,0.255,0.198c0.097-0.176,0.169-0.324,0.256-0.461c2.172-3.423,4.103-6.979,5.774-10.667
			c1.078-2.375,2.087-4.787,3.052-7.208c1.51-3.771,2.7-7.649,3.622-11.606c0.415-1.774,0.733-3.576,1.012-5.38
			c0.219-1.41,0.401-2.833,0.444-4.256c0.043-1.509-0.039-3.028-0.179-4.534c-0.106-1.134-0.385-2.279-1.098-3.204
			c-1.145-1.486-2.379-2.906-3.897-4.034c-1.281-0.945-2.555-1.92-3.928-2.717c-2.176-1.26-4.534-2.103-6.995-2.673
			c-2.402-0.561-4.837-0.803-7.284-0.856c-1.443-0.03-2.896,0.126-4.336,0.262c-1.307,0.123-2.604,0.332-3.921,0.504
			c1.413,0.792,2.804,1.499,4.117,2.332C87.193,18.711,89.664,20.814,91.787,23.302z"/>
		<path fill-rule="evenodd" clip-rule="evenodd" fill="#59B6DC" d="M55.937,72.237c0.892-2.853,2.106-5.572,3.284-8.315
			c0.955-2.219,1.476-4.561,1.648-6.966c0.086-1.184,0.063-2.385,0.003-3.576c-0.066-1.32-0.169-2.644-0.362-3.951
			c-0.249-1.671-0.53-3.347-0.925-4.985c-0.428-1.778-1.509-3.015-3.363-3.47c-1.128-0.275-2.249-0.265-3.39-0.086
			c-2.786,0.441-5.337,1.466-7.712,2.969c-0.478,0.305-0.74,0.547-0.657,1.234c0.172,1.453,0.212,2.929,0.206,4.395
			c-0.01,2.073-0.1,4.149-0.179,6.223c-0.026,0.677-0.123,1.35-0.196,2.023c-0.109,1.028-0.325,2.06-0.318,3.088
			c0.007,1.058,0.116,2.146,0.372,3.171c0.819,3.253,2.547,5.917,5.384,7.798c1.745,1.154,3.675,1.738,5.791,1.848
			C55.665,73.153,55.794,72.692,55.937,72.237z M52.606,44.312c-0.372-0.783-0.159-1.433,0.707-1.731
			c0.209-0.076,0.428-0.156,0.647-0.176c0.302-0.03,0.607-0.006,0.912-0.006c1.098,0.003,2.153,0.159,3.058,0.855
			c0.581,0.448,0.736,1.042,0.362,1.652c-0.534,0.866-1.35,1.3-2.349,1.383C54.368,46.418,53.263,45.685,52.606,44.312z"/>
		<path fill-rule="evenodd" clip-rule="evenodd" fill="#59B6DC" d="M96.269,44.026c0.126-1.045,0.229-2.09,0.358-3.134
			c0.049-0.418-0.17-0.531-0.521-0.541c-1.107-0.033-2.212-0.069-3.32-0.089c-1.247-0.023-2.461,0.179-3.615,0.65
			c-1.28,0.527-2.256,1.374-2.653,2.767c-0.299,1.042-0.379,2.076-0.272,3.165c0.159,1.658,0.527,3.264,1.108,4.806
			c0.772,2.06,1.582,4.123,2.551,6.097c1.313,2.673,2.796,5.261,4.189,7.894c0.371,0.703,0.687,1.437,1.074,2.259
			c0.81-1.721,1.207-3.442,1.251-5.221c0.039-1.492-0.08-2.995-0.166-4.488c-0.057-0.916-0.186-1.828-0.275-2.74
			c-0.123-1.271-0.312-2.544-0.342-3.818c-0.026-1.3,0.063-2.601,0.176-3.897C95.917,46.494,96.119,45.264,96.269,44.026z
			 M93.773,43.021c-0.411,1.134-1.29,1.774-2.431,1.963c-1.062,0.176-1.994-0.215-2.684-1.064c-0.494-0.604-0.306-1.317,0.435-1.728
			c0.846-0.468,1.781-0.587,2.879-0.657c0.302,0.053,0.75,0.1,1.178,0.223C93.771,41.934,93.999,42.401,93.773,43.021z"/>
		<path fill-rule="evenodd" clip-rule="evenodd" fill="#59B6DC" d="M60.896,77.976c-0.61-0.494-1.413-0.523-1.99,0.021
			c-0.717,0.677-1.35,1.452-1.98,2.216c-0.727,0.886-1.41,1.801-2.352,2.484c-1.367,0.995-2.962,1.406-4.564,1.798
			c-1.277,0.309-2.554,0.597-3.834,0.896c-0.003,0.053-0.01,0.109-0.013,0.162c0.378,0.18,0.747,0.395,1.141,0.521
			c1.95,0.616,3.934,0.925,5.994,0.749c1.486-0.126,2.902-0.451,4.243-1.088c1.848-0.876,3.271-2.262,4.478-3.874
			c0.202-0.269,0.295-0.667,0.318-1.016C62.418,79.621,61.794,78.712,60.896,77.976z"/>
		<path fill-rule="evenodd" clip-rule="evenodd" fill="#59B6DC" d="M108.93,78.467c-1.569,0.166-3.139,0.345-4.714,0.435
			c-0.76,0.043-1.529-0.1-2.295-0.162c-1.284-0.106-2.541-0.392-3.626-1.078c-0.63-0.395-1.154-0.438-1.821-0.216
			c-0.955,0.321-1.734,0.81-1.963,1.844c-0.156,0.7-0.216,1.424-0.275,2.14c-0.014,0.126,0.146,0.355,0.265,0.389
			c0.736,0.195,1.477,0.424,2.229,0.49c0.925,0.083,1.864,0.057,2.796,0.011c1.005-0.05,2.017-0.113,3.009-0.282
			c2.332-0.392,4.591-1.028,6.598-2.352c0.723-0.478,1.439-0.966,2.159-1.45c-0.02-0.033-0.04-0.069-0.06-0.103
			C110.462,78.245,109.699,78.384,108.93,78.467z"/>
	</g>
</g>
</svg>
