<?xml version="1.0" encoding="utf-8"?>
<!-- Generator: Adobe Illustrator 16.2.0, SVG Export Plug-In . SVG Version: 6.00 Build 0)  -->
<!DOCTYPE svg PUBLIC "-//W3C//DTD SVG 1.1//EN" "http://www.w3.org/Graphics/SVG/1.1/DTD/svg11.dtd">
<svg version="1.1" id="Layer_1" xmlns="http://www.w3.org/2000/svg" xmlns:xlink="http://www.w3.org/1999/xlink" x="0px" y="0px"
	 width="128px" height="128px" viewBox="0 0 128 128" enable-background="new 0 0 128 128" xml:space="preserve">
<g id="plain_3_">
	<g>
		<path fill="#59B6DC" d="M49.4,57h28.557C85.907,57,92,55.276,92,47.293V20.067c0-7.748-6.413-13.57-14.171-14.862
			c-4.91-0.816-9.944-1.189-14.834-1.167c-4.883,0.023-8.571,0.439-12.675,1.167C38.217,7.343,37,11.817,37,20.067V27h28v3H35.104
			H24.375c-8.31,0-15.585,7.293-17.862,16.796c-2.624,10.891-2.743,16.512,0,27.885C8.545,83.143,13.398,88,21.708,88H31v-8.419
			C31,70.145,39.703,57,49.4,57z M47.6,23.699c-2.964,0-5.363-2.429-5.363-5.429c0-3.017,2.399-5.468,5.363-5.468
			c2.954,0,5.366,2.452,5.366,5.468C52.965,21.27,50.553,23.699,47.6,23.699z"/>
		<path fill="#59B6DC" d="M120.845,46.796C118.789,38.522,114.867,30,106.548,30H98v17.293C98,57.136,87.474,61,77.957,61H49.4
			C41.576,61,37,72.113,37,79.951v27.226c0,7.744,5.789,12.305,13.342,14.524c9.054,2.663,17.136,3.143,27.966,0
			C85.504,119.616,92,115.424,92,107.177V95H65v-7h27.254h14.294c8.31,0,11.405-4.62,14.297-13.319
			C123.828,65.723,123.699,58.281,120.845,46.796z M79.755,103.542c2.967,0,5.366,2.429,5.366,5.432
			c0,3.014-2.399,5.465-5.366,5.465c-2.95,0-5.362-2.451-5.362-5.465C74.393,105.971,76.805,103.542,79.755,103.542z"/>
	</g>
</g>
</svg>
