<?xml version="1.0" encoding="utf-8"?>
<!-- Generator: Adobe Illustrator 16.2.0, SVG Export Plug-In . SVG Version: 6.00 Build 0)  -->
<!DOCTYPE svg PUBLIC "-//W3C//DTD SVG 1.1//EN" "http://www.w3.org/Graphics/SVG/1.1/DTD/svg11.dtd">
<svg version="1.1" id="Layer_1" xmlns="http://www.w3.org/2000/svg" xmlns:xlink="http://www.w3.org/1999/xlink" x="0px" y="0px"
	 width="128px" height="128px" viewBox="0 0 128 128" enable-background="new 0 0 128 128" xml:space="preserve">
<g id="Icon_Retweet_2_">
	<g>
		<path fill="#59B6DC" d="M106.438,96.272h-6.49V37.858c0-1.791-1.458-3.246-3.245-3.246h-55.17v-6.49h55.17
			c5.368,0,9.735,4.367,9.735,9.736V96.272z"/>
		<polygon fill="#59B6DC" points="103.193,100.913 81.431,75.521 86.013,71.591 103.193,91.633 120.373,71.591 124.956,75.521 		"/>
		<path fill="#59B6DC" d="M86.967,99.519H31.797c-5.369,0-9.736-4.367-9.736-9.736V31.368h6.491v58.415
			c0,1.791,1.458,3.245,3.245,3.245h55.169V99.519z"/>
		<polygon fill="#59B6DC" points="42.487,56.049 25.307,36.007 8.126,56.049 3.544,52.12 25.307,26.728 47.07,52.12 		"/>
	</g>
</g>
</svg>
