<?xml version="1.0" encoding="utf-8"?>
<!-- Generator: Adobe Illustrator 16.2.0, SVG Export Plug-In . SVG Version: 6.00 Build 0)  -->
<!DOCTYPE svg PUBLIC "-//W3C//DTD SVG 1.1//EN" "http://www.w3.org/Graphics/SVG/1.1/DTD/svg11.dtd">
<svg version="1.1" id="Layer_1" xmlns="http://www.w3.org/2000/svg" xmlns:xlink="http://www.w3.org/1999/xlink" x="0px" y="0px"
	 width="128px" height="128px" viewBox="0 0 128 128" enable-background="new 0 0 128 128" xml:space="preserve">
<g>
	<g>
		<path fill-rule="evenodd" clip-rule="evenodd" fill="#59B6DC" d="M37.628,108.527c25.84,3.53,51.225,6.995,77.108,10.528
			c-8.82-14.683-17.41-28.989-26.073-43.412C71.698,86.574,54.885,97.408,37.628,108.527z"/>
		<path fill-rule="evenodd" clip-rule="evenodd" fill="#59B6DC" d="M122.03,27.261c-2.277,3.417-4.56,6.837-6.834,10.258
			c-7.815,11.757-15.627,23.51-23.432,35.268c-0.436,0.658-0.998,1.173-0.384,2.186c7.54,12.453,15.022,24.944,22.522,37.422
			c1.187,1.973,2.384,3.936,3.914,5.825c1.517-30.286,3.029-60.572,4.546-90.866C122.254,27.322,122.144,27.292,122.03,27.261z"/>
		<path fill-rule="evenodd" clip-rule="evenodd" fill="#59B6DC" d="M19.078,66.089c0.354,0.333,1.232,0.528,1.644,0.326
			c7.232-3.558,14.515-7.029,21.589-10.878c2.306-1.256,4.086-3.503,6.069-5.325c6.587-6.042,13.157-12.093,19.727-18.142
			c0.405-0.371,0.878-0.73,1.118-1.197c2.36-4.614,4.68-9.249,7.078-14.018c-2.861-1.077-5.575-2.13-8.323-3.084
			c-0.374-0.134-0.964,0.124-1.365,0.35c-6.36,3.554-12.841,6.919-19,10.793c-3.081,1.938-5.592,4.792-8.319,7.283
			c-4.398,4.011-8.79,8.038-13.123,12.121c-1.149,1.084-2.195,2.323-3.094,3.623c-2.961,4.316-5.839,8.693-8.845,13.198
			C15.915,62.882,17.442,64.542,19.078,66.089z"/>
		<path fill-rule="evenodd" clip-rule="evenodd" fill="#59B6DC" d="M45.519,60.188c-3.599,15.201-7.18,30.32-10.872,45.934
			c17.329-11.17,34.262-22.076,51.083-32.914C72.347,68.872,59.005,64.552,45.519,60.188z"/>
		<path fill-rule="evenodd" clip-rule="evenodd" fill="#59B6DC" d="M117.611,27.405c-14.646,2.446-28.938,4.837-43.415,7.256
			c4.93,11.997,9.76,23.75,14.731,35.84C98.544,56.048,107.972,41.889,117.611,27.405z"/>
		<path fill-rule="evenodd" clip-rule="evenodd" fill="#59B6DC" d="M46.123,57.08c13.184,4.282,26.111,8.478,39.409,12.793
			c-4.937-12.031-9.709-23.644-14.577-35.5C62.659,41.954,54.494,49.423,46.123,57.08z"/>
		<path fill-rule="evenodd" clip-rule="evenodd" fill="#59B6DC" d="M19.624,74.951c-4.679,11.181-9.194,21.983-13.795,32.976
			c8.838-0.261,17.408-0.511,26.272-0.775C27.94,96.413,23.861,85.892,19.624,74.951z"/>
		<path fill-rule="evenodd" clip-rule="evenodd" fill="#59B6DC" d="M32.41,99.508c0.109-0.024,0.219-0.052,0.329-0.075
			c3.153-13.112,6.351-26.139,9.572-39.769c-7.184,3.732-14.039,7.293-21.078,10.955C24.825,79.956,28.657,89.806,32.41,99.508z"/>
		<path fill-rule="evenodd" clip-rule="evenodd" fill="#59B6DC" d="M112.312,25.277c-4.196-1.111-8.389-2.223-12.588-3.331
			c-6.034-1.585-12.069-3.149-18.097-4.751c-0.755-0.199-1.3-0.333-1.743,0.58c-2.13,4.364-4.329,8.693-6.49,13.047
			c-0.069,0.134-0.055,0.305-0.106,0.645c13.064-1.983,26.042-3.949,39.018-5.915C112.308,25.463,112.308,25.37,112.312,25.277z"/>
		<path fill-rule="evenodd" clip-rule="evenodd" fill="#59B6DC" d="M87.974,15.349c11.267,3.119,22.533,6.233,34.194,9.458
			c-1.963-5.585-3.781-10.769-5.65-16.097c-9.575,2.121-19.034,4.216-28.492,6.319C88.008,15.136,87.991,15.243,87.974,15.349z"/>
		<path fill-rule="evenodd" clip-rule="evenodd" fill="#59B6DC" d="M35.309,111.045c-4.237-0.486-8.581-0.037-12.879,0.038
			c-3.523,0.059-7.054,0.192-10.581,0.302c-0.363,0.011-0.727,0.086-1.087,0.478c29.165,2.696,58.333,5.393,87.5,8.089
			c0.021-0.127,0.041-0.261,0.062-0.388c-9.353-1.276-18.701-2.556-28.05-3.828C58.624,114.144,46.991,112.394,35.309,111.045z"/>
		<path fill-rule="evenodd" clip-rule="evenodd" fill="#59B6DC" d="M6.405,97.864c3.76-8.721,7.503-17.445,11.273-26.162
			c0.381-0.875,0.35-1.469-0.388-2.172c-1.582-1.503-3.047-3.122-4.772-4.916c-2.329,11.514-4.604,22.749-6.882,33.975
			c0.083,0.041,0.171,0.082,0.25,0.12C6.065,98.427,6.278,98.163,6.405,97.864z"/>
		<path fill-rule="evenodd" clip-rule="evenodd" fill="#59B6DC" d="M80.484,13.043c6.34-1.629,12.766-2.913,19.161-4.336
			c0.415-0.096,0.819-0.229,1.228-0.346c-0.023-0.103-0.041-0.209-0.062-0.313c-9.006,1.208-18.011,2.419-27.466,3.695
			C75.922,12.869,77.911,13.712,80.484,13.043z"/>
	</g>
</g>
</svg>
