<?xml version="1.0" encoding="utf-8"?>
<!-- Generator: Adobe Illustrator 16.2.0, SVG Export Plug-In . SVG Version: 6.00 Build 0)  -->
<!DOCTYPE svg PUBLIC "-//W3C//DTD SVG 1.1//EN" "http://www.w3.org/Graphics/SVG/1.1/DTD/svg11.dtd">
<svg version="1.1" id="Layer_1" xmlns="http://www.w3.org/2000/svg" xmlns:xlink="http://www.w3.org/1999/xlink" x="0px" y="0px"
	 width="128px" height="128px" viewBox="0 0 128 128" enable-background="new 0 0 128 128" xml:space="preserve">
<g id="Icon_Search_2_">
	<g>
		<path fill="#59B6DC" d="M54.192,99.748c-25.606,0-46.442-20.836-46.442-46.442S28.586,6.863,54.192,6.863
			c25.61,0,46.446,20.836,46.446,46.442S79.803,99.748,54.192,99.748z M54.192,13.542c-21.923,0-39.76,17.84-39.76,39.764
			c0,21.924,17.837,39.764,39.76,39.764c21.927,0,39.764-17.84,39.764-39.764C93.956,31.382,76.119,13.542,54.192,13.542z"/>
		
			<rect x="79.825" y="98.205" transform="matrix(0.7071 0.7071 -0.7071 0.7071 102.0566 -42.7926)" fill="#59B6DC" width="45.717" height="7.183"/>
	</g>
</g>
</svg>
