<?xml version="1.0" encoding="utf-8"?>
<!-- Generator: Adobe Illustrator 16.2.0, SVG Export Plug-In . SVG Version: 6.00 Build 0)  -->
<!DOCTYPE svg PUBLIC "-//W3C//DTD SVG 1.1//EN" "http://www.w3.org/Graphics/SVG/1.1/DTD/svg11.dtd">
<svg version="1.1" id="Layer_1" xmlns="http://www.w3.org/2000/svg" xmlns:xlink="http://www.w3.org/1999/xlink" x="0px" y="0px"
	 width="128px" height="128px" viewBox="0 0 128 128" enable-background="new 0 0 128 128" xml:space="preserve">
<g id="Icon_SoundCloud_2_">
	<g>
		<path fill="#59B6DC" d="M107.556,59.269c-0.185,0-0.363,0.021-0.546,0.027c-2.529-12.523-13.591-21.952-26.86-21.952
			c-8.546,0-16.123,3.956-21.146,10.085c-0.575,0.856-0.813,1.825-0.878,3.407l-0.998,24.877l1.001,15.076
			c0.053,0.752,0.712,1.367,1.467,1.367h47.961c9.081,0,16.444-7.362,16.444-16.443S116.637,59.269,107.556,59.269z"/>
		<path fill="#59B6DC" d="M49.729,48.306c-0.754,0-1.426,0.613-1.493,1.365l-2.222,24.677c-0.067,0.749-0.032,1.976,0.081,2.72
			l2.061,13.735c0.11,0.743,0.819,1.354,1.574,1.354h0.546c0.754,0,1.464-0.61,1.574-1.354l2.061-13.735
			c0.112-0.744,0.147-1.971,0.081-2.72l-2.222-24.677c-0.067-0.752-0.739-1.365-1.493-1.365H49.729z"/>
		<path fill="#59B6DC" d="M38.767,51.047c-0.755,0-1.432,0.613-1.507,1.362l-2.195,21.941c-0.075,0.749-0.045,1.973,0.067,2.717
			l2.061,13.735c0.11,0.743,0.819,1.354,1.574,1.354h0.546c0.755,0,1.464-0.61,1.574-1.354l2.061-13.735
			c0.112-0.744,0.142-1.968,0.067-2.717l-2.195-21.941c-0.075-0.75-0.752-1.362-1.507-1.362H38.767z"/>
		<path fill="#59B6DC" d="M28.077,59.269c-0.755,0-1.472,0.607-1.595,1.352l-2.291,13.741c-0.124,0.744-0.124,1.959,0,2.703
			l2.291,13.74c0.123,0.744,0.84,1.352,1.595,1.352l0,0c0.754,0,1.472-0.607,1.595-1.352l2.291-13.74
			c0.124-0.744,0.124-1.959,0-2.703L29.672,60.62C29.549,59.876,28.832,59.269,28.077,59.269L28.077,59.269z"/>
		<path fill="#59B6DC" d="M17.114,56.528c-0.755,0-1.458,0.61-1.563,1.357l-2.355,16.471c-0.104,0.747-0.091,1.965,0.032,2.709
			l2.291,13.74c0.123,0.744,0.84,1.352,1.595,1.352l0,0c0.755,0,1.472-0.607,1.595-1.352L21,77.064
			c0.123-0.744,0.136-1.962,0.032-2.709l-2.355-16.471C18.573,57.138,17.869,56.528,17.114,56.528L17.114,56.528z"/>
		<path fill="#59B6DC" d="M6.973,64.75c-0.752,0-1.491,0.604-1.638,1.344l-1.657,8.275c-0.147,0.738-0.171,1.954-0.051,2.698
			l1.758,10.994c0.121,0.744,0.835,1.354,1.587,1.354l0,0c0.755,0,1.47-0.61,1.587-1.354l1.761-10.994
			c0.118-0.744,0.094-1.96-0.053-2.698l-1.654-8.275C8.464,65.354,7.728,64.75,6.973,64.75L6.973,64.75z"/>
	</g>
</g>
</svg>
