<?xml version="1.0" encoding="utf-8"?>
<!-- Generator: Adobe Illustrator 16.2.0, SVG Export Plug-In . SVG Version: 6.00 Build 0)  -->
<!DOCTYPE svg PUBLIC "-//W3C//DTD SVG 1.1//EN" "http://www.w3.org/Graphics/SVG/1.1/DTD/svg11.dtd">
<svg version="1.1" id="Layer_1" xmlns="http://www.w3.org/2000/svg" xmlns:xlink="http://www.w3.org/1999/xlink" x="0px" y="0px"
	 width="128px" height="128px" viewBox="0 0 128 128" enable-background="new 0 0 128 128" xml:space="preserve">
<path fill="#59B6DC" d="M122.063,109.673H5.944c-2.176,0-3.937,1.761-3.937,3.937s1.761,3.937,3.937,3.937h116.118
	c2.177,0,3.938-1.761,3.938-3.937S124.239,109.673,122.063,109.673z M20.004,84.017c8.462,0,15.321-6.863,15.321-15.321
	c0-2.072-0.423-4.045-1.169-5.848l10.058-10.1c2.011,0.973,4.237,1.561,6.621,1.561c1.046,0,2.076-0.107,3.064-0.308l12.361,18.778
	c-1.646,2.441-2.611,5.387-2.611,8.559c0,8.462,6.859,15.321,15.321,15.321c8.463,0,15.322-6.859,15.322-15.321
	c0-3.68-1.35-7.013-3.515-9.654l16.633-31.362c0.457,0.042,0.896,0.139,1.364,0.139c8.463,0,15.325-6.859,15.325-15.321
	s-6.862-15.321-15.325-15.321c-8.458,0-15.321,6.859-15.321,15.321c0,3.679,1.354,7.013,3.519,9.654L80.34,66.154
	c-0.457-0.043-0.899-0.139-1.369-0.139c-0.969,0-1.91,0.111-2.829,0.284L63.654,47.338c1.569-2.403,2.5-5.268,2.5-8.351
	c0-8.462-6.859-15.321-15.318-15.321c-8.466,0-15.325,6.859-15.325,15.321c0,1.719,0.346,3.345,0.873,4.887l-10.6,10.646
	c-1.784-0.73-3.729-1.149-5.779-1.149c-8.462,0-15.321,6.863-15.321,15.325C4.683,77.153,11.542,84.017,20.004,84.017z
	 M108.775,17.422c4.253,0,7.717,3.46,7.717,7.716s-3.464,7.712-7.717,7.712c-4.252,0-7.712-3.456-7.712-7.712
	S104.523,17.422,108.775,17.422z M78.971,73.447c4.349,0,7.89,3.541,7.89,7.89s-3.541,7.889-7.89,7.889
	c-4.348,0-7.889-3.54-7.889-7.889S74.623,73.447,78.971,73.447z M50.835,31.167c4.31,0,7.82,3.507,7.82,7.82
	c0,4.314-3.51,7.82-7.82,7.82c-4.314,0-7.824-3.506-7.824-7.82C43.011,34.673,46.521,31.167,50.835,31.167z M20.004,60.802
	c4.349,0,7.89,3.541,7.89,7.894s-3.541,7.89-7.89,7.89c-4.348,0-7.889-3.537-7.889-7.89S15.656,60.802,20.004,60.802z"/>
</svg>
