<?xml version="1.0" encoding="utf-8"?>
<!-- Generator: Adobe Illustrator 16.2.0, SVG Export Plug-In . SVG Version: 6.00 Build 0)  -->
<!DOCTYPE svg PUBLIC "-//W3C//DTD SVG 1.1//EN" "http://www.w3.org/Graphics/SVG/1.1/DTD/svg11.dtd">
<svg version="1.1" id="Layer_1" xmlns="http://www.w3.org/2000/svg" xmlns:xlink="http://www.w3.org/1999/xlink" x="0px" y="0px"
	 width="128px" height="128px" viewBox="0 0 128 128" enable-background="new 0 0 128 128" xml:space="preserve">
<path id="Icon_Twitter_2_" fill="#59B6DC" d="M122.562,28.128c-4.322,1.913-8.938,3.204-13.803,3.798
	c4.965-2.979,8.79-7.697,10.574-13.306c-4.639,2.754-9.783,4.768-15.269,5.834c-4.392-4.694-10.652-7.623-17.55-7.623
	c-13.282,0-24.036,10.776-24.036,24.059c0,1.885,0.202,3.724,0.621,5.485c-19.986-0.993-37.715-10.575-49.554-25.149
	c-2.064,3.55-3.251,7.696-3.251,12.092c0,8.34,4.268,15.715,10.723,20.033c-3.973-0.097-7.697-1.191-10.924-3.003
	c0,0.101,0,0.198,0,0.299c0,11.669,8.294,21.375,19.292,23.586c-2.014,0.547-4.147,0.842-6.331,0.842
	c-1.54,0-3.053-0.147-4.52-0.446c3.057,9.559,11.94,16.51,22.469,16.708c-8.216,6.455-18.597,10.304-29.867,10.304
	c-1.936,0-3.848-0.125-5.737-0.346c10.606,6.901,23.241,10.874,36.799,10.874c44.262,0,68.446-36.671,68.446-68.474
	c0-1.043-0.022-2.087-0.073-3.104C115.26,37.19,119.333,32.969,122.562,28.128z"/>
</svg>
