<?xml version="1.0" encoding="utf-8"?>
<!-- Generator: Adobe Illustrator 16.2.0, SVG Export Plug-In . SVG Version: 6.00 Build 0)  -->
<!DOCTYPE svg PUBLIC "-//W3C//DTD SVG 1.1//EN" "http://www.w3.org/Graphics/SVG/1.1/DTD/svg11.dtd">
<svg version="1.1" id="Layer_1" xmlns="http://www.w3.org/2000/svg" xmlns:xlink="http://www.w3.org/1999/xlink" x="0px" y="0px"
	 width="128px" height="128px" viewBox="0 0 128 128" enable-background="new 0 0 128 128" xml:space="preserve">
<path id="plain_15_" fill="#59B6DC" d="M64.745,4.5C32.021,4.5,5.49,31.028,5.49,63.755c0,32.721,26.531,59.255,59.255,59.255
	S124,96.476,124,63.755C124,31.028,97.469,4.5,64.745,4.5z M78.04,24.907c2.185-3.786,7.022-5.082,10.805-2.9
	c3.786,2.188,5.082,7.022,2.895,10.808c-2.185,3.783-7.02,5.079-10.805,2.894C77.154,33.524,75.858,28.687,78.04,24.907z
	 M64.745,29.387c3.181,0,6.257,0.441,9.179,1.25c0.516,3.178,2.407,6.109,5.412,7.846c3.005,1.731,6.479,1.904,9.487,0.765
	c5.847,5.754,9.654,13.576,10.21,22.292l-11.274,0.164C86.72,49.901,76.815,40.646,64.745,40.646c-3.477,0-6.779,0.771-9.734,2.15
	l-5.498-9.852C54.106,30.673,59.275,29.387,64.745,29.387z M24.453,71.666c-4.369,0-7.911-3.542-7.911-7.911
	c0-4.372,3.542-7.911,7.911-7.911c4.369,0,7.914,3.539,7.914,7.911C32.367,68.124,28.822,71.666,24.453,71.666z M31.466,72.369
	c2.499-2.036,4.097-5.14,4.097-8.614c0-3.477-1.598-6.578-4.097-8.618c2.141-8.281,7.291-15.35,14.211-19.978l5.785,9.691
	c-5.942,4.178-9.824,11.086-9.824,18.904s3.881,14.727,9.824,18.904l-5.785,9.691C38.754,87.726,33.604,80.653,31.466,72.369z
	 M88.845,105.497c-3.782,2.185-8.62,0.889-10.802-2.895c-2.185-3.782-0.889-8.617,2.895-10.805c3.782-2.185,8.62-0.882,10.802,2.895
	C93.927,98.478,92.628,103.313,88.845,105.497z M88.823,88.262c-3.008-1.142-6.482-0.969-9.487,0.766
	c-3.005,1.737-4.896,4.665-5.412,7.846c-2.922,0.809-5.998,1.25-9.179,1.25c-5.47,0-10.639-1.287-15.229-3.558l5.495-9.852
	c2.956,1.376,6.257,2.15,9.734,2.15c12.073,0,21.975-9.253,23.011-21.061l11.277,0.166C98.478,74.684,94.674,82.508,88.823,88.262z"
	/>
</svg>
