<?xml version="1.0" encoding="utf-8"?>
<!-- Generator: Adobe Illustrator 16.2.0, SVG Export Plug-In . SVG Version: 6.00 Build 0)  -->
<!DOCTYPE svg PUBLIC "-//W3C//DTD SVG 1.1//EN" "http://www.w3.org/Graphics/SVG/1.1/DTD/svg11.dtd">
<svg version="1.1" id="Layer_1" xmlns="http://www.w3.org/2000/svg" xmlns:xlink="http://www.w3.org/1999/xlink" x="0px" y="0px"
	 width="128px" height="128px" viewBox="0 0 128 128" enable-background="new 0 0 128 128" xml:space="preserve">
<g id="Icon_Undo_2_">
	<g>
		<path fill="#59B6DC" d="M63.858,116.75c-20.627,0-39.52-12.121-48.131-30.877l6.924-3.175
			c7.372,16.063,23.546,26.437,41.207,26.437c24.985,0,45.317-20.328,45.317-45.313S88.843,18.509,63.858,18.509
			c-18.973,0-34.851,11.569-41.439,30.202l-7.18-2.535c7.58-21.435,26.664-35.287,48.619-35.287
			c29.182,0,52.928,23.75,52.928,52.932C116.786,93.004,93.04,116.75,63.858,116.75z"/>
		<polygon fill="#59B6DC" points="43.39,51.541 10.642,51.541 10.642,18.793 18.829,18.793 18.829,43.354 43.39,43.354 		"/>
	</g>
</g>
</svg>
