<?xml version="1.0" encoding="utf-8"?>
<!-- Generator: Adobe Illustrator 16.2.0, SVG Export Plug-In . SVG Version: 6.00 Build 0)  -->
<!DOCTYPE svg PUBLIC "-//W3C//DTD SVG 1.1//EN" "http://www.w3.org/Graphics/SVG/1.1/DTD/svg11.dtd">
<svg version="1.1" id="Layer_1" xmlns="http://www.w3.org/2000/svg" xmlns:xlink="http://www.w3.org/1999/xlink" x="0px" y="0px"
	 width="128px" height="128px" viewBox="0 0 128 128" enable-background="new 0 0 128 128" xml:space="preserve">
<g id="Icon_User_2_">
	<g>
		<path fill="#59B6DC" d="M64.644,123.698c-32.906,0-59.678-26.772-59.678-59.679c0-32.91,26.772-59.682,59.678-59.682
			s59.679,26.772,59.679,59.682C124.322,96.926,97.55,123.698,64.644,123.698z M64.644,10.896
			c-29.292,0-53.124,23.832-53.124,53.124c0,29.289,23.832,53.121,53.124,53.121s53.124-23.832,53.124-53.121
			C117.768,34.728,93.936,10.896,64.644,10.896z"/>
		<path fill="#59B6DC" d="M29.844,107.195l-6.004-2.641c1.821-4.131,7.205-6.544,13.443-9.343
			c6.018-2.699,13.508-6.059,13.508-10.042v-5.425c-2.131-1.787-5.746-5.625-6.313-11.408c-1.728-1.625-4.592-4.947-4.592-9.054
			c0-2.5,0.988-4.51,1.852-5.791c-0.526-2.678-1.521-8.275-1.521-12.386c0-13.771,9.587-22.669,24.428-22.669
			c4.255,0,9.429,1.142,12.307,4.228c6.727,1.184,12.121,9.146,12.121,18.441c0,5.958-1.047,10.864-1.68,13.288
			c0.702,1.191,1.459,2.95,1.459,4.999c0,4.62-2.334,7.608-4.51,9.206c-0.619,5.697-3.865,9.37-5.845,11.112v5.459
			c0,3.388,6.142,5.667,12.079,7.866c6.755,2.503,13.743,5.092,15.908,10.758l-6.128,2.341c-1.102-2.892-6.923-5.047-12.059-6.95
			c-7.667-2.844-16.355-6.065-16.355-14.015v-8.86l1.532-0.964c0.154-0.104,4.416-2.968,4.416-8.682v-2.221l2.059-0.823
			c0.345-0.159,2.349-1.212,2.349-4.228c0-0.926-0.706-1.962-0.954-2.251l-1.194-1.397l0.551-1.79
			c0.018-0.055,1.817-5.598,1.817-12.847c0-6.186-3.546-12.035-7.298-12.035h-1.883l-0.95-1.626
			c-0.692-1.188-3.643-2.449-7.742-2.449c-11.191,0-17.873,6.021-17.873,16.111c0,4.764,1.669,12.441,1.687,12.517l0.389,1.776
			l-1.298,1.267l0,0c0,0-1.108,1.178-1.108,2.617c0,1.811,2.175,4.072,3.229,4.881l1.277,0.984l0.011,1.625
			c0,5.398,4.661,8.444,4.86,8.572l1.511,0.964l0.018,8.86c0,8.228-9.233,12.372-17.381,16.025
			C36.03,102.957,30.646,105.374,29.844,107.195z"/>
	</g>
</g>
</svg>
