<?xml version="1.0" encoding="utf-8"?>
<!-- Generator: Adobe Illustrator 16.2.0, SVG Export Plug-In . SVG Version: 6.00 Build 0)  -->
<!DOCTYPE svg PUBLIC "-//W3C//DTD SVG 1.1//EN" "http://www.w3.org/Graphics/SVG/1.1/DTD/svg11.dtd">
<svg version="1.1" id="Layer_1" xmlns="http://www.w3.org/2000/svg" xmlns:xlink="http://www.w3.org/1999/xlink" x="0px" y="0px"
	 width="128px" height="128px" viewBox="0 0 128 128" enable-background="new 0 0 128 128" xml:space="preserve">
<g id="plain_1_">
	<g>
		<path fill-rule="evenodd" clip-rule="evenodd" fill="#59B6DC" d="M64.084,120.206c30.965-0.049,56.031-25.235,56.031-56.306
			c0-30.563-24.951-55.737-54.76-56.27C34.052,7.074,7.897,32.476,7.885,63.28C7.875,94.968,32.833,120.251,64.084,120.206z
			 M63.994,10.356c29.728-0.009,53.414,24.143,53.404,54.458c-0.009,28.62-24.324,52.561-53.383,52.566
			c-29.604,0.007-53.411-23.997-53.411-53.849C10.604,34.445,34.784,10.365,63.994,10.356z"/>
		<path fill-rule="evenodd" clip-rule="evenodd" fill="#59B6DC" d="M41.557,38.604c0.484,1.619-0.875,2.184-2.32,2.293
			c-1.525,0.121-3.043,0.233-4.813,0.369c5.835,17.373,11.58,34.496,17.461,52.01c0.417-0.687,0.59-0.88,0.666-1.104
			c3.23-9.649,6.477-19.294,9.625-28.971c0.285-0.883,0.142-2.051-0.172-2.958c-1.664-4.807-3.66-9.508-5.119-14.372
			c-0.998-3.331-2.323-5.481-6.259-5.098c-0.668,0.064-1.491-1.376-2.238-2.124c0.907-0.538,1.809-1.537,2.723-1.552
			c8.016-0.121,16.032-0.121,24.049,0.006c0.92,0.015,1.818,1.041,2.729,1.594c-0.795,0.729-1.479,1.818-2.41,2.1
			c-1.492,0.448-3.146,0.363-4.932,0.523c5.839,17.367,11.557,34.38,17.482,51.998c2.646-8.793,5.112-16.87,7.505-24.969
			c2.139-7.227,0.865-13.979-3.001-20.343c-1.161-1.915-2.589-3.772-3.249-5.86c-0.747-2.375-1.367-5.079-0.971-7.46
			c0.672-4.038,3.77-6.044,7.962-6.428C73.335,6.968,37.289,14.591,24.005,37.724c5.112-0.236,9.995-0.545,14.88-0.614
			C39.809,37.098,41.339,37.878,41.557,38.604z"/>
		<path fill-rule="evenodd" clip-rule="evenodd" fill="#59B6DC" d="M50.696,109.04c-0.106,0.314-0.112,0.659-0.194,1.177
			c9.886,2.741,19.578,2.544,29.504-0.802c-5.067-13.873-10.02-27.44-15.159-41.516C59.992,81.999,55.339,95.521,50.696,109.04z"/>
		<path fill-rule="evenodd" clip-rule="evenodd" fill="#59B6DC" d="M43.058,107.165c-7.663-21.019-15.223-41.759-22.84-62.653
			C9.917,64.641,17.755,95.346,43.058,107.165z"/>
		<path fill-rule="evenodd" clip-rule="evenodd" fill="#59B6DC" d="M112.102,66.907c0.724-9.517-2.556-22.691-5.394-24.506
			c-0.314,3.5-0.094,7.396-1.098,10.944c-2.363,8.361-5.258,16.578-8.041,24.815c-3.028,8.954-6.174,17.869-9.266,26.799
			C102.839,96.344,110.831,83.627,112.102,66.907z"/>
	</g>
</g>
</svg>
