<?xml version="1.0" encoding="utf-8"?>
<!-- Generator: Adobe Illustrator 16.2.0, SVG Export Plug-In . SVG Version: 6.00 Build 0)  -->
<!DOCTYPE svg PUBLIC "-//W3C//DTD SVG 1.1//EN" "http://www.w3.org/Graphics/SVG/1.1/DTD/svg11.dtd">
<svg version="1.1" id="Layer_1" xmlns="http://www.w3.org/2000/svg" xmlns:xlink="http://www.w3.org/1999/xlink" x="0px" y="0px"
	 width="128px" height="128px" viewBox="0 0 128 128" enable-background="new 0 0 128 128" xml:space="preserve">
<g id="plain_16_">
	<g>
		<path fill="#59B6DC" d="M20.579,43.126c-4.11-0.004-7.436,3.335-7.439,7.442l0.003,31.156c0,4.121,3.333,7.446,7.446,7.446
			c4.107,0,7.439-3.325,7.436-7.446V50.565C28.025,46.455,24.689,43.123,20.579,43.126 M80.585,15.143l5.194-9.482
			c0.277-0.497,0.096-1.126-0.405-1.41c-0.504-0.267-1.133-0.085-1.399,0.416l-5.247,9.585c-4.416-1.968-9.354-3.066-14.583-3.063
			c-5.211-0.003-10.15,1.091-14.544,3.044l-5.254-9.556c-0.27-0.508-0.899-0.689-1.396-0.412c-0.504,0.273-0.689,0.902-0.405,1.399
			l5.194,9.475c-10.21,5.265-17.109,15.293-17.102,26.804l67.03-0.011C97.666,30.429,90.781,20.425,80.585,15.143 M48.903,29.8
			c-1.545-0.003-2.806-1.261-2.806-2.806c0-1.549,1.257-2.817,2.806-2.817c1.553,0,2.814,1.268,2.814,2.817
			C51.717,28.54,50.456,29.8,48.903,29.8 M79.42,29.793c-1.549,0.003-2.807-1.254-2.807-2.807c0.004-1.542,1.258-2.813,2.807-2.813
			c1.542,0,2.807,1.271,2.807,2.813C82.227,28.536,80.973,29.797,79.42,29.793 M30.91,44.533l0.011,48.286
			c-0.003,4.392,3.549,7.94,7.937,7.94h5.411l0.003,16.491c0,4.106,3.339,7.439,7.436,7.439c4.114,0,7.442-3.336,7.442-7.446V100.76
			h10.047v16.484c0,4.103,3.339,7.446,7.438,7.438c4.114,0.004,7.446-3.339,7.446-7.442l-0.007-16.48l5.425-0.007
			c4.38,0.003,7.939-3.549,7.947-7.943l-0.008-48.291L30.91,44.533z M115.188,50.555c0-4.11-3.332-7.443-7.442-7.436
			c-4.104-0.011-7.436,3.329-7.436,7.439v31.164c0,4.113,3.332,7.438,7.446,7.438c4.106,0,7.436-3.325,7.438-7.442L115.188,50.555z"
			/>
	</g>
</g>
</svg>
