<?xml version="1.0" encoding="utf-8"?>
<!-- Generator: Adobe Illustrator 16.2.0, SVG Export Plug-In . SVG Version: 6.00 Build 0)  -->
<!DOCTYPE svg PUBLIC "-//W3C//DTD SVG 1.1//EN" "http://www.w3.org/Graphics/SVG/1.1/DTD/svg11.dtd">
<svg version="1.1" id="Layer_1" xmlns="http://www.w3.org/2000/svg" xmlns:xlink="http://www.w3.org/1999/xlink" x="0px" y="0px"
	 width="128px" height="128px" viewBox="0 0 128 128" enable-background="new 0 0 128 128" xml:space="preserve">
<g id="original_8_">
	<g>
		<path fill="#59B6DC" d="M97.444,67.827c0.169,18.102,15.883,24.128,16.056,24.201c-0.132,0.43-2.512,8.59-8.277,17.018
			c-4.987,7.283-10.158,14.547-18.311,14.697c-8.006,0.147-10.584-4.748-19.743-4.748c-9.155,0-12.016,4.598-19.596,4.896
			c-7.874,0.297-13.86-7.882-18.887-15.138C18.41,93.897,10.562,66.784,21.102,48.481c5.237-9.085,14.594-14.844,24.752-14.991
			c7.727-0.151,15.021,5.196,19.743,5.196c4.72,0,13.585-6.427,22.901-5.483c3.9,0.162,14.844,1.576,21.877,11.866
			C109.81,45.422,97.312,52.693,97.444,67.827 M82.395,23.376c4.18-5.057,6.985-12.097,6.221-19.097
			c-6.022,0.239-13.301,4.014-17.62,9.063c-3.87,4.477-7.26,11.638-6.346,18.505C71.359,32.366,78.216,28.437,82.395,23.376"/>
	</g>
</g>
</svg>
