<?xml version="1.0" encoding="utf-8"?>
<!-- Generator: Adobe Illustrator 16.2.0, SVG Export Plug-In . SVG Version: 6.00 Build 0)  -->
<!DOCTYPE svg PUBLIC "-//W3C//DTD SVG 1.1//EN" "http://www.w3.org/Graphics/SVG/1.1/DTD/svg11.dtd">
<svg version="1.1" id="Layer_1" xmlns="http://www.w3.org/2000/svg" xmlns:xlink="http://www.w3.org/1999/xlink" x="0px" y="0px"
	 width="128px" height="128px" viewBox="0 0 128 128" enable-background="new 0 0 128 128" xml:space="preserve">
<g id="original-wordmark_2_">
	<g>
		<path id="polygon287_9_" fill="#59B6DC" d="M38.055,77.296l-11.084,4.761l10.268,4.389l11.907-4.389L38.055,77.296z M21.39,83.251
			l-0.374,21.43l16.223,7.143v-22.25L21.39,83.251z M54.727,83.251l-14.662,5.578v20.984l14.662-5.955V83.251z"/>
		<path id="polygon311_9_" fill="#59B6DC" d="M72.212,16.579l-11.163,4.765l10.343,4.388l11.903-4.388L72.212,16.579z M56.73,22.905
			v21.427l13.842,4.022l0.446-19.498L56.73,22.905z M87.687,24.096L74.59,29.677v21.056l13.097-5.952V24.096z"/>
		<path id="use3387_9_" fill="#59B6DC" d="M19.787,46.74L8.702,51.499l10.271,4.394l11.904-4.394L19.787,46.74z M3.121,52.695
			L2.75,74.125l16.223,7.14V59.018L3.121,52.695z M36.455,52.695l-14.656,5.581v20.982l14.656-5.952V52.695z"/>
		<path id="use3389_9_" fill="#59B6DC" d="M55.504,45.947L44.42,50.712l10.265,4.391l11.904-4.391L55.504,45.947z M38.839,51.902
			l-0.374,21.424l16.22,7.148v-22.25L38.839,51.902z M72.17,51.902L57.514,57.48v20.981L72.17,72.51V51.902z"/>
		<path id="use3391_9_" fill="#59B6DC" d="M107.092,16.579l-11.084,4.765l10.268,4.388l11.907-4.388L107.092,16.579z M90.427,22.534
			l-0.371,21.427l16.22,7.146v-22.25L90.427,22.534z M123.761,22.534l-14.658,5.581V49.1l14.658-5.955V22.534z"/>
	</g>
</g>
</svg>
