<?xml version="1.0" encoding="utf-8"?>
<!-- Generator: Adobe Illustrator 16.2.0, SVG Export Plug-In . SVG Version: 6.00 Build 0)  -->
<!DOCTYPE svg PUBLIC "-//W3C//DTD SVG 1.1//EN" "http://www.w3.org/Graphics/SVG/1.1/DTD/svg11.dtd">
<svg version="1.1" id="Layer_1" xmlns="http://www.w3.org/2000/svg" xmlns:xlink="http://www.w3.org/1999/xlink" x="0px" y="0px"
	 width="128px" height="128px" viewBox="0 0 128 128" enable-background="new 0 0 128 128" xml:space="preserve">
<g id="plain-wordmark_1_">
	<g>
		<g>
			<path fill="#59B6DC" d="M11.137,110.303h3.999c1.823,0,3.146,0.259,3.969,0.777c0.826,0.519,1.236,1.344,1.236,2.477
				c0,0.766-0.181,1.396-0.54,1.89c-0.362,0.494-0.841,0.79-1.44,0.89v0.087c0.813,0.181,1.407,0.521,1.763,1.019
				c0.365,0.497,0.546,1.163,0.546,1.986c0,1.175-0.425,2.088-1.272,2.745s-1.998,0.985-3.454,0.985h-4.807V110.303z
				 M13.858,115.393h1.585c0.741,0,1.271-0.111,1.606-0.344c0.329-0.229,0.494-0.605,0.494-1.133c0-0.491-0.178-0.844-0.539-1.058
				c-0.359-0.215-0.931-0.323-1.712-0.323h-1.435V115.393z M13.858,117.556v3.352h1.781c0.75,0,1.302-0.147,1.661-0.434
				c0.355-0.287,0.536-0.727,0.536-1.317c0-1.063-0.762-1.601-2.284-1.601H13.858z"/>
			<path fill="#59B6DC" d="M34.901,116.712c0,2.128-0.527,3.762-1.582,4.906c-1.058,1.146-2.57,1.715-4.538,1.715
				s-3.481-0.569-4.536-1.715c-1.055-1.145-1.585-2.784-1.585-4.924s0.53-3.773,1.591-4.903c1.055-1.127,2.573-1.69,4.547-1.69
				c1.974,0,3.483,0.566,4.532,1.706C34.38,112.945,34.901,114.579,34.901,116.712z M25.521,116.712
				c0,1.438,0.271,2.517,0.816,3.243c0.546,0.729,1.359,1.094,2.444,1.094c2.176,0,3.264-1.446,3.264-4.337
				c0-2.896-1.085-4.345-3.246-4.345c-1.082,0-1.902,0.367-2.453,1.097C25.798,114.193,25.521,115.274,25.521,116.712z"/>
			<path fill="#59B6DC" d="M49.234,116.712c0,2.128-0.527,3.762-1.582,4.906c-1.058,1.146-2.571,1.715-4.539,1.715
				s-3.483-0.569-4.535-1.715c-1.055-1.145-1.585-2.784-1.585-4.924s0.53-3.773,1.591-4.903c1.055-1.127,2.571-1.69,4.547-1.69
				c1.974,0,3.487,0.566,4.533,1.706C48.712,112.945,49.234,114.579,49.234,116.712z M39.853,116.712
				c0,1.438,0.271,2.517,0.816,3.243c0.545,0.729,1.359,1.094,2.444,1.094c2.176,0,3.261-1.446,3.261-4.337
				c0-2.896-1.082-4.345-3.243-4.345c-1.082,0-1.901,0.367-2.453,1.097C40.13,114.193,39.853,115.274,39.853,116.712z"/>
			<path fill="#59B6DC" d="M56.855,123.158h-2.724v-10.587h-3.49v-2.269h9.707v2.269h-3.493V123.158z"/>
			<path fill="#59B6DC" d="M69.913,119.587c0,1.163-0.419,2.076-1.251,2.742c-0.835,0.669-1.998,1.004-3.486,1.004
				c-1.375,0-2.586-0.256-3.644-0.774v-2.531c0.871,0.389,1.603,0.66,2.206,0.819c0.6,0.157,1.148,0.235,1.648,0.235
				c0.597,0,1.055-0.114,1.374-0.341c0.319-0.229,0.479-0.572,0.479-1.021c0-0.253-0.069-0.476-0.211-0.675
				c-0.139-0.193-0.347-0.383-0.618-0.566c-0.274-0.181-0.829-0.471-1.667-0.868c-0.787-0.371-1.377-0.727-1.769-1.063
				c-0.392-0.341-0.705-0.738-0.94-1.19c-0.235-0.449-0.35-0.977-0.35-1.579c0-1.14,0.382-2.031,1.151-2.683
				c0.774-0.653,1.838-0.976,3.197-0.976c0.672,0,1.305,0.078,1.914,0.234c0.608,0.163,1.238,0.38,1.904,0.669l-0.88,2.122
				c-0.688-0.283-1.254-0.479-1.703-0.591c-0.445-0.111-0.889-0.169-1.322-0.169c-0.516,0-0.91,0.121-1.185,0.361
				c-0.277,0.238-0.413,0.555-0.413,0.943c0,0.238,0.051,0.449,0.166,0.624c0.111,0.181,0.286,0.353,0.53,0.521
				s0.819,0.467,1.727,0.901c1.202,0.575,2.028,1.15,2.475,1.729C69.689,118.041,69.913,118.749,69.913,119.587z"/>
			<path fill="#59B6DC" d="M77.202,123.158h-2.724v-10.587h-3.493v-2.269h9.707v2.269h-3.49V123.158z"/>
			<path fill="#59B6DC" d="M85.396,118.225v4.934h-2.725v-12.855h3.746c1.748,0,3.037,0.319,3.875,0.952
				c0.841,0.636,1.26,1.604,1.26,2.898c0,0.757-0.208,1.429-0.624,2.017c-0.419,0.591-1.006,1.052-1.769,1.386
				c1.935,2.894,3.194,4.756,3.779,5.603h-3.022l-3.068-4.934H85.396z M85.396,116.01h0.88c0.861,0,1.498-0.145,1.91-0.431
				c0.41-0.289,0.615-0.741,0.615-1.356c0-0.608-0.211-1.042-0.63-1.299c-0.419-0.259-1.07-0.389-1.947-0.389h-0.828V116.01z"/>
			<path fill="#59B6DC" d="M102.429,123.158l-0.935-3.062h-4.686l-0.932,3.062h-2.938l4.538-12.91h3.333l4.557,12.91H102.429z
				 M100.847,117.81c-0.865-2.772-1.347-4.337-1.455-4.704c-0.109-0.362-0.188-0.648-0.235-0.859
				c-0.193,0.751-0.744,2.604-1.657,5.563H100.847z"/>
			<path fill="#59B6DC" d="M115.863,114.313c0,1.383-0.435,2.441-1.296,3.17c-0.865,0.735-2.095,1.104-3.688,1.104h-1.173v4.571
				h-2.721v-12.855h4.104c1.558,0,2.745,0.334,3.556,1.006C115.456,111.981,115.863,112.981,115.863,114.313z M109.706,116.351
				h0.898c0.838,0,1.465-0.166,1.884-0.497c0.415-0.328,0.623-0.813,0.623-1.443c0-0.639-0.175-1.115-0.524-1.42
				c-0.349-0.304-0.895-0.455-1.639-0.455h-1.242V116.351z"/>
		</g>
		<path fill="#59B6DC" d="M73.064,56.682C71.16,56.055,68.415,56,64.832,56H53v18h12.829c2.408,0,4.096,0.321,5.069,0.141
			c1.715-0.301,3.148-0.604,4.3-1.324c1.148-0.715,2.095-1.653,2.839-3.027c0.744-1.368,1.115-2.893,1.115-4.683
			c0-2.101-0.539-3.77-1.612-5.318C76.464,58.239,74.976,57.306,73.064,56.682z"/>
		<path fill="#59B6DC" d="M71.088,48.77c1.896-0.569,3.321-1.792,4.282-3.096c0.962-1.305,1.44-3.085,1.44-5.057
			c0-1.868-0.449-3.587-1.344-5.009c-0.896-1.417-2.179-2.843-3.836-3.367C69.964,31.716,67.11,31,63.066,31H53v19h10.988
			C67.288,50,69.656,49.204,71.088,48.77z"/>
		<path fill="#59B6DC" d="M115,17.579C115,10.08,108.919,4,101.418,4H26.582C19.081,4,13,10.08,13,17.579v74.842
			C13,99.921,19.081,106,26.582,106h74.836C108.919,106,115,99.921,115,92.421V17.579z M85.197,72.504
			c-1.112,2.266-2.489,4.014-4.128,5.24c-1.637,1.229-3.692,1.922-6.163,2.549C72.441,80.92,69.412,81,65.829,81H47V25h18.486
			c4.3,0,7.744,0.665,10.342,1.805c2.601,1.139,4.632,2.939,6.105,5.308c1.471,2.362,2.209,4.867,2.209,7.453
			c0,2.405-0.654,4.68-1.959,6.805s-3.278,3.843-5.912,5.15c3.405,0.995,6.021,2.705,7.85,5.106c1.83,2.405,2.746,5.25,2.746,8.526
			C86.867,67.787,86.313,70.24,85.197,72.504z"/>
	</g>
</g>
</svg>
