<?xml version="1.0" encoding="utf-8"?>
<!-- Generator: Adobe Illustrator 16.2.0, SVG Export Plug-In . SVG Version: 6.00 Build 0)  -->
<!DOCTYPE svg PUBLIC "-//W3C//DTD SVG 1.1//EN" "http://www.w3.org/Graphics/SVG/1.1/DTD/svg11.dtd">
<svg version="1.1" id="Layer_1" xmlns="http://www.w3.org/2000/svg" xmlns:xlink="http://www.w3.org/1999/xlink" x="0px" y="0px"
	 width="128px" height="128px" viewBox="0 0 128 128" enable-background="new 0 0 128 128" xml:space="preserve">
<path fill="#59B6DC" d="M77.565,102.21V63.032h11.319v39.178h28.717V19.758c0-2.159-1.75-3.906-3.905-3.906H92.79
	c-2.155,0-3.905,1.747-3.905,3.906v35.463H73.66c-2.155,0-3.905,1.747-3.905,3.905v43.083H77.565z M121.087,109.254H5.905
	c-2.158,0-3.905,1.747-3.905,3.905c0,2.159,1.747,3.905,3.905,3.905h115.182c2.159,0,3.906-1.746,3.906-3.905
	C124.993,111.001,123.246,109.254,121.087,109.254z M15.863,102.21V87.386h11.319v14.824h28.713V49.646
	c0-2.159-1.747-3.905-3.905-3.905H31.087c-2.154,0-3.905,1.746-3.905,3.905v29.931H11.958c-2.155,0-3.906,1.747-3.906,3.905v18.729
	H15.863z"/>
</svg>
