<?xml version="1.0" encoding="utf-8"?>
<!-- Generator: Adobe Illustrator 16.2.0, SVG Export Plug-In . SVG Version: 6.00 Build 0)  -->
<!DOCTYPE svg PUBLIC "-//W3C//DTD SVG 1.1//EN" "http://www.w3.org/Graphics/SVG/1.1/DTD/svg11.dtd">
<svg version="1.1" id="Layer_1" xmlns="http://www.w3.org/2000/svg" xmlns:xlink="http://www.w3.org/1999/xlink" x="0px" y="0px"
	 width="128px" height="128px" viewBox="0 0 128 128" enable-background="new 0 0 128 128" xml:space="preserve">
<path id="Icon_Paperclip_2_" fill="#59B6DC" d="M27.851,115.334c-5.534,0-10.736-2.156-14.649-6.07
	c-3.913-3.912-6.065-9.115-6.065-14.645c0-5.533,2.153-10.736,6.065-14.648l59.284-59.284c10.801-10.797,28.376-10.8,39.177,0
	c5.233,5.231,8.112,12.189,8.112,19.589s-2.879,14.357-8.112,19.588l-44.465,44.46l-4.592-4.594l44.461-44.462
	c8.267-8.268,8.267-21.719,0-29.987c-8.262-8.266-21.72-8.269-29.989,0L17.797,84.566c-2.685,2.684-4.165,6.252-4.165,10.053
	c0,3.797,1.48,7.365,4.165,10.051c5.543,5.547,14.563,5.539,20.104,0l44.464-44.462c2.818-2.818,2.818-7.406,0-10.227
	c-2.817-2.82-7.409-2.818-10.228,0.001L42.5,79.627l-4.599-4.6l29.645-29.64c5.35-5.351,14.063-5.354,19.415,0
	c5.353,5.354,5.353,14.063,0,19.416L42.5,109.264C38.583,113.178,33.384,115.334,27.851,115.334z"/>
</svg>
