<?xml version="1.0" encoding="utf-8"?>
<!-- Generator: Adobe Illustrator 16.2.0, SVG Export Plug-In . SVG Version: 6.00 Build 0)  -->
<!DOCTYPE svg PUBLIC "-//W3C//DTD SVG 1.1//EN" "http://www.w3.org/Graphics/SVG/1.1/DTD/svg11.dtd">
<svg version="1.1" id="Layer_1" xmlns="http://www.w3.org/2000/svg" xmlns:xlink="http://www.w3.org/1999/xlink" x="0px" y="0px"
	 width="128px" height="128px" viewBox="0 0 128 128" enable-background="new 0 0 128 128" xml:space="preserve">
<path fill="#59B6DC" d="M111.398,59.813c0.209-1.203,0.34-2.436,0.34-3.702c0-12.111-9.821-21.93-21.936-21.93
	c-4.154,0-8.022,1.173-11.334,3.181c-5.599-7.448-14.505-12.266-24.538-12.266c-16.188,0-29.437,12.537-30.589,28.43
	C12.93,56.457,5.295,66.017,5.295,77.368c0,13.678,11.09,24.771,24.771,24.771h72.084c12.251,0,22.18-9.935,22.18-22.183
	C124.329,71.011,119.025,63.324,111.398,59.813z"/>
</svg>
