<?xml version="1.0" encoding="utf-8"?>
<!-- Generator: Adobe Illustrator 16.2.0, SVG Export Plug-In . SVG Version: 6.00 Build 0)  -->
<!DOCTYPE svg PUBLIC "-//W3C//DTD SVG 1.1//EN" "http://www.w3.org/Graphics/SVG/1.1/DTD/svg11.dtd">
<svg version="1.1" id="Layer_1" xmlns="http://www.w3.org/2000/svg" xmlns:xlink="http://www.w3.org/1999/xlink" x="0px" y="0px"
	 width="128px" height="128px" viewBox="0 0 128 128" enable-background="new 0 0 128 128" xml:space="preserve">
<g>
	<g>
		<g>
			<g>
				<path fill="#59B6DC" stroke="#59B6DC" stroke-miterlimit="10" d="M52.987,114.679c-1.42,0-2.574-1.148-2.574-2.569V78.111
					H16.415c-1.42,0-2.564-1.153-2.564-2.569c0-1.415,1.144-2.568,2.564-2.568h36.572c1.416,0,2.569,1.153,2.569,2.568v36.567
					C55.556,113.53,54.402,114.679,52.987,114.679L52.987,114.679z"/>
			</g>
			<g>
				<path fill="#59B6DC" stroke="#59B6DC" stroke-miterlimit="10" d="M7.574,123.571c-0.658,0-1.315-0.253-1.815-0.753
					c-1.001-1.001-1.001-2.631,0-3.627l45.412-45.465c1.001-1.001,2.626-1.001,3.627,0c1.005,1.001,1.005,2.626,0,3.632
					l-45.413,45.46C8.885,123.318,8.227,123.571,7.574,123.571L7.574,123.571z"/>
			</g>
		</g>
		<g>
			<g>
				<path fill="#59B6DC" stroke="#59B6DC" stroke-miterlimit="10" d="M74.729,114.679c-1.421,0-2.564-1.148-2.564-2.569V75.542
					c0-1.415,1.144-2.568,2.564-2.568h36.558c1.42,0,2.573,1.153,2.573,2.568c0,1.416-1.153,2.569-2.573,2.569H77.297v33.998
					C77.297,113.53,76.148,114.679,74.729,114.679L74.729,114.679z"/>
			</g>
			<g>
				<path fill="#59B6DC" stroke="#59B6DC" stroke-miterlimit="10" d="M120.141,123.571c-0.658,0-1.315-0.253-1.812-0.753
					l-45.417-45.46c-1.001-1.006-1.001-2.631,0-3.632s2.631-1.001,3.632,0l45.412,45.465c1.001,0.996,1.001,2.626,0,3.627
					C121.451,123.318,120.798,123.571,120.141,123.571L120.141,123.571z"/>
			</g>
		</g>
		<g>
			<g>
				<path fill="#59B6DC" stroke="#59B6DC" stroke-miterlimit="10" d="M111.286,56.441H74.729c-1.421,0-2.564-1.148-2.564-2.569
					v-36.57c0-1.42,1.144-2.566,2.564-2.566c1.42,0,2.568,1.146,2.568,2.566v34.006h33.989c1.42,0,2.573,1.148,2.573,2.564
					C113.859,55.293,112.706,56.441,111.286,56.441L111.286,56.441z"/>
			</g>
			<g>
				<path fill="#59B6DC" stroke="#59B6DC" stroke-miterlimit="10" d="M74.729,56.441c-0.658,0-1.315-0.252-1.816-0.758
					c-1.001-0.996-1.001-2.621,0-3.622l45.417-45.465c0.992-1,2.622-1,3.627,0c1.001,1.001,1.001,2.631,0,3.629L76.544,55.684
					C76.043,56.189,75.386,56.441,74.729,56.441L74.729,56.441z"/>
			</g>
		</g>
		<g>
			<g>
				<path fill="#59B6DC" stroke="#59B6DC" stroke-miterlimit="10" d="M52.987,56.441H16.415c-1.42,0-2.564-1.148-2.564-2.569
					c0-1.416,1.144-2.564,2.564-2.564h33.999V17.303c0-1.42,1.153-2.566,2.574-2.566c1.416,0,2.569,1.146,2.569,2.566v36.57
					C55.556,55.293,54.402,56.441,52.987,56.441L52.987,56.441z"/>
			</g>
			<g>
				<path fill="#59B6DC" stroke="#59B6DC" stroke-miterlimit="10" d="M52.987,56.441c-0.658,0-1.32-0.252-1.816-0.758L5.759,10.226
					c-1.001-0.999-1.001-2.628,0-3.629c1.005-1,2.63-1,3.626,0l45.413,45.465c1.005,1.001,1.005,2.626,0,3.622
					C54.297,56.189,53.64,56.441,52.987,56.441L52.987,56.441z"/>
			</g>
		</g>
	</g>
</g>
</svg>
