<?xml version="1.0" encoding="utf-8"?>
<!-- Generator: Adobe Illustrator 16.2.0, SVG Export Plug-In . SVG Version: 6.00 Build 0)  -->
<!DOCTYPE svg PUBLIC "-//W3C//DTD SVG 1.1//EN" "http://www.w3.org/Graphics/SVG/1.1/DTD/svg11.dtd">
<svg version="1.1" id="Layer_1" xmlns="http://www.w3.org/2000/svg" xmlns:xlink="http://www.w3.org/1999/xlink" x="0px" y="0px"
	 width="128px" height="128px" viewBox="0 0 128 128" enable-background="new 0 0 128 128" xml:space="preserve">
<path id="plain_13_" fill="#59B6DC" d="M12.24,5.5l9.517,106.737L64.461,124.1l42.825-11.872L116.813,5.5H12.24z M96.538,65.918
	v0.037l-4.48,26.929l-28.017,7.283L36.83,93.359l-0.934-20.28h6.055h7.084l0.931,10.17l14.075,3.793l14.214-3.945l2.432-16.775
	H64.524l0,0H50.17h-0.04l-0.264-3.102l-0.594-6.774l-0.317-3.64h15.568l0,0h17.323l1.194-13.516H64.57h-0.046H32.992h-0.043
	l-0.26-2.838l-0.598-6.9l-0.313-3.778h32.747h0.046h37.783L96.538,65.918z"/>
</svg>
