<?xml version="1.0" encoding="utf-8"?>
<!-- Generator: Adobe Illustrator 16.2.0, SVG Export Plug-In . SVG Version: 6.00 Build 0)  -->
<!DOCTYPE svg PUBLIC "-//W3C//DTD SVG 1.1//EN" "http://www.w3.org/Graphics/SVG/1.1/DTD/svg11.dtd">
<svg version="1.1" id="Layer_1" xmlns="http://www.w3.org/2000/svg" xmlns:xlink="http://www.w3.org/1999/xlink" x="0px" y="0px"
	 width="128px" height="128px" viewBox="0 0 128 128" enable-background="new 0 0 128 128" xml:space="preserve">
<path id="plain_10_" fill="#59B6DC" d="M89.769,27.272c-5.946-3.703-11.555-5.16-17.163-8.863
	c-3.479-2.357-8.304-7.965-12.342-12.79c-0.787,7.741-3.141,10.882-5.836,13.125c-5.719,4.49-9.312,5.836-14.25,8.528
	c-4.148,2.133-26.699,15.596-26.699,44.542s24.345,50.257,51.382,50.257c27.037,0,50.485-19.631,50.485-49.363
	C115.346,42.979,93.361,29.516,89.769,27.272z M90.417,111.513c-0.563,0.563-5.722,4.152-11.779,4.715
	c-6.06,0.559-14.246,0.897-19.188-3.593c-0.783-0.783-0.559-1.905,0-2.354c0.566-0.449,1.015-0.784,1.684-0.784
	c0.677,0,0.566,0,0.897,0.222c2.243,1.794,5.612,3.254,12.791,3.254s12.228-2.019,14.475-3.703c1.011-0.783,1.456-0.11,1.57,0.339
	C90.979,110.057,91.2,110.729,90.417,111.513z M70.783,101.308c1.235-1.125,3.254-2.92,5.159-3.703
	c1.909-0.787,2.92-0.673,4.715-0.673c1.791,0,3.703,0.11,5.049,1.011c1.343,0.895,2.133,2.917,2.578,4.035
	c0.445,1.121,0,1.798-0.897,2.243c-0.783,0.452-0.897,0.225-1.681-1.232c-0.787-1.46-1.46-2.916-5.388-2.916
	c-3.927,0-5.159,1.346-7.064,2.916c-1.912,1.57-2.581,2.133-3.258,1.232C69.326,103.327,69.548,102.43,70.783,101.308z
	 M100.516,102.205c-4.042-0.338-12.117-12.904-17.28-13.129c-6.502-0.224-20.642,13.574-31.751,13.574
	c-6.73,0-8.746-1.008-10.992-2.468c-3.365-2.357-5.049-5.946-4.939-10.882c0.114-8.749,8.304-16.941,18.626-17.056
	c13.125-0.107,22.212,13.015,28.835,12.904c5.604-0.11,16.379-11.106,21.649-11.106c5.607,0,7.182,5.836,7.182,9.312
	c0,3.479-1.125,9.764-3.817,13.688C105.337,100.97,103.652,102.43,100.516,102.205z"/>
</svg>
