<?xml version="1.0" encoding="utf-8"?>
<!-- Generator: Adobe Illustrator 16.2.0, SVG Export Plug-In . SVG Version: 6.00 Build 0)  -->
<!DOCTYPE svg PUBLIC "-//W3C//DTD SVG 1.1//EN" "http://www.w3.org/Graphics/SVG/1.1/DTD/svg11.dtd">
<svg version="1.1" id="Layer_1" xmlns="http://www.w3.org/2000/svg" xmlns:xlink="http://www.w3.org/1999/xlink" x="0px" y="0px"
	 width="128px" height="128px" viewBox="0 0 128 128" enable-background="new 0 0 128 128" xml:space="preserve">
<g id="Icon_Envelope_2_">
	<g>
		<path fill="#59B6DC" d="M122.794,31.027l-4.643-4.643l-43.99,43.991c-5.604,5.602-14.718,5.602-20.315,0L9.853,26.385L5.21,31.027
			l32.847,32.847L5.21,96.723l4.643,4.64l32.847-32.847l6.5,6.504c3.957,3.953,9.21,6.131,14.8,6.131
			c5.591,0,10.851-2.178,14.8-6.131l6.504-6.504l32.848,32.847l4.643-4.64L89.946,63.874L122.794,31.027z"/>
		<path fill="#59B6DC" d="M113.412,109.883H14.588C8.75,109.883,4,105.133,4,99.294V28.706c0-5.839,4.75-10.588,10.588-10.588
			h98.824c5.838,0,10.588,4.75,10.588,10.588v70.588C124,105.133,119.25,109.883,113.412,109.883z M14.588,25.176
			c-1.944,0-3.53,1.584-3.53,3.53v70.588c0,1.944,1.586,3.529,3.53,3.529h98.824c1.947,0,3.529-1.585,3.529-3.529V28.706
			c0-1.946-1.582-3.53-3.529-3.53H14.588z"/>
	</g>
</g>
</svg>
