<?xml version="1.0" encoding="utf-8"?>
<!-- Generator: Adobe Illustrator 16.2.0, SVG Export Plug-In . SVG Version: 6.00 Build 0)  -->
<!DOCTYPE svg PUBLIC "-//W3C//DTD SVG 1.1//EN" "http://www.w3.org/Graphics/SVG/1.1/DTD/svg11.dtd">
<svg version="1.1" id="Layer_1" xmlns="http://www.w3.org/2000/svg" xmlns:xlink="http://www.w3.org/1999/xlink" x="0px" y="0px"
	 width="128px" height="128px" viewBox="0 0 128 128" enable-background="new 0 0 128 128" xml:space="preserve">
<g>
	<g>
		<g>
			<g>
				<path fill="#59B6DC" stroke="#59B6DC" stroke-miterlimit="10" d="M8.034,47.438c-1.419,0-2.565-1.151-2.565-2.57v-36.6
					c0-1.419,1.146-2.566,2.565-2.566h36.605c1.419,0,2.565,1.146,2.565,2.566c0,1.419-1.146,2.57-2.565,2.57h-34.03v34.03
					C10.608,46.287,9.458,47.438,8.034,47.438L8.034,47.438z"/>
			</g>
			<g>
				<path fill="#59B6DC" stroke="#59B6DC" stroke-miterlimit="10" d="M53.5,56.335c-0.665,0-1.315-0.25-1.82-0.751L6.224,10.087
					c-1.005-1.005-1.005-2.634,0-3.634c1.005-1.005,2.625-1.005,3.634,0L55.31,51.955c1.005,1.001,1.005,2.629,0,3.63
					C54.814,56.085,54.155,56.335,53.5,56.335L53.5,56.335z"/>
			</g>
		</g>
		<g>
			<g>
				<path fill="#59B6DC" stroke="#59B6DC" stroke-miterlimit="10" d="M120.45,47.438c-1.42,0-2.57-1.151-2.57-2.57v-34.03H83.845
					c-1.414,0-2.561-1.151-2.561-2.57c0-1.419,1.146-2.566,2.561-2.566h36.605c1.414,0,2.569,1.146,2.569,2.566v36.6
					C123.02,46.287,121.864,47.438,120.45,47.438L120.45,47.438z"/>
			</g>
			<g>
				<path fill="#59B6DC" stroke="#59B6DC" stroke-miterlimit="10" d="M75.002,56.335c-0.654,0-1.314-0.25-1.811-0.751
					c-1.005-1-1.005-2.629-0.004-3.63L118.63,6.453c1.006-1.005,2.63-1.001,3.631-0.005c1.005,1.005,1.005,2.634,0,3.639
					L76.821,55.584C76.321,56.085,75.662,56.335,75.002,56.335L75.002,56.335z"/>
			</g>
		</g>
		<g>
			<g>
				<path fill="#59B6DC" stroke="#59B6DC" stroke-miterlimit="10" d="M44.639,123.299H8.034c-1.419,0-2.565-1.146-2.565-2.565
					V84.133c0-1.419,1.146-2.569,2.565-2.569c1.424,0,2.575,1.15,2.575,2.569v34.03h34.03c1.419,0,2.565,1.151,2.565,2.57
					S46.058,123.299,44.639,123.299L44.639,123.299z"/>
			</g>
			<g>
				<path fill="#59B6DC" stroke="#59B6DC" stroke-miterlimit="10" d="M8.034,123.299c-0.65,0-1.31-0.25-1.81-0.75
					c-1.005-1.001-1.005-2.63,0-3.635L51.68,73.416c1.005-1.001,2.629-1.001,3.63,0c1.005,1.001,1.005,2.63,0,3.63L9.858,122.549
					C9.353,123.049,8.698,123.299,8.034,123.299L8.034,123.299z"/>
			</g>
		</g>
		<g>
			<g>
				<path fill="#59B6DC" stroke="#59B6DC" stroke-miterlimit="10" d="M120.45,123.299H83.845c-1.414,0-2.561-1.146-2.561-2.565
					s1.146-2.57,2.561-2.57h34.035v-34.03c0-1.419,1.15-2.569,2.57-2.569c1.414,0,2.569,1.15,2.569,2.569v36.601
					C123.02,122.152,121.864,123.299,120.45,123.299L120.45,123.299z"/>
			</g>
			<g>
				<path fill="#59B6DC" stroke="#59B6DC" stroke-miterlimit="10" d="M120.45,123.299c-0.664,0-1.319-0.25-1.82-0.75L73.188,77.046
					c-1.001-1-1.001-2.629,0.004-3.63c1.001-1.001,2.63-1.001,3.63,0l45.439,45.498c1.005,1.005,1.005,2.634,0,3.639
					C121.765,123.049,121.104,123.299,120.45,123.299L120.45,123.299z"/>
			</g>
		</g>
	</g>
</g>
</svg>
