<?xml version="1.0" encoding="utf-8"?>
<!-- Generator: Adobe Illustrator 16.2.0, SVG Export Plug-In . SVG Version: 6.00 Build 0)  -->
<!DOCTYPE svg PUBLIC "-//W3C//DTD SVG 1.1//EN" "http://www.w3.org/Graphics/SVG/1.1/DTD/svg11.dtd">
<svg version="1.1" id="Layer_1" xmlns="http://www.w3.org/2000/svg" xmlns:xlink="http://www.w3.org/1999/xlink" x="0px" y="0px"
	 width="128px" height="128px" viewBox="0 0 128 128" enable-background="new 0 0 128 128" xml:space="preserve">
<path id="Icon_GitHub_2_" fill-rule="evenodd" clip-rule="evenodd" fill="#59B6DC" d="M64.996,5.837C32.419,5.837,6,32.252,6,64.841
	c0,26.066,16.901,48.18,40.351,55.98c2.95,0.542,4.026-1.278,4.026-2.842c0-1.402-0.05-5.113-0.081-10.037
	c-16.409,3.564-19.874-7.909-19.874-7.909c-2.681-6.814-6.549-8.631-6.549-8.631c-5.358-3.66,0.403-3.584,0.403-3.584
	c5.923,0.415,9.038,6.081,9.038,6.081c5.266,9.015,13.809,6.41,17.174,4.901c0.534-3.814,2.059-6.415,3.741-7.891
	c-13.098-1.486-26.873-6.549-26.873-29.158c0-6.441,2.297-11.708,6.073-15.833c-0.607-1.491-2.631-7.49,0.58-15.614
	c0,0,4.955-1.586,16.225,6.05c4.701-1.31,9.749-1.963,14.769-1.986c5.013,0.023,10.06,0.676,14.77,1.986
	c11.262-7.636,16.209-6.05,16.209-6.05c3.219,8.124,1.195,14.124,0.588,15.614c3.783,4.125,6.065,9.392,6.065,15.833
	c0,22.667-13.798,27.653-26.942,29.112c2.121,1.825,4.011,5.424,4.011,10.929c0,7.886-0.077,14.25-0.077,16.187
	c0,1.574,1.064,3.411,4.057,2.835C107.11,112.997,124,90.899,124,64.841C124,32.252,97.581,5.837,64.996,5.837z"/>
</svg>
