<?xml version="1.0" encoding="utf-8"?>
<!-- Generator: Adobe Illustrator 16.2.0, SVG Export Plug-In . SVG Version: 6.00 Build 0)  -->
<!DOCTYPE svg PUBLIC "-//W3C//DTD SVG 1.1//EN" "http://www.w3.org/Graphics/SVG/1.1/DTD/svg11.dtd">
<svg version="1.1" id="Layer_1" xmlns="http://www.w3.org/2000/svg" xmlns:xlink="http://www.w3.org/1999/xlink" x="0px" y="0px"
	 width="128px" height="128px" viewBox="0 0 128 128" enable-background="new 0 0 128 128" xml:space="preserve">
<g id="Icon_Google_Plus_2_">
	<g>
		<path fill-rule="evenodd" clip-rule="evenodd" fill="#59B6DC" d="M41.864,58.841v12.981h21.473
			c-0.864,5.573-6.49,16.336-21.473,16.336c-12.926,0-23.475-10.71-23.475-23.908c0-13.198,10.549-23.908,23.475-23.908
			c7.358,0,12.279,3.138,15.091,5.842l10.277-9.899c-6.601-6.167-15.147-9.899-25.369-9.899C20.93,26.386,4,43.316,4,64.25
			s16.93,37.863,37.864,37.863c21.853,0,36.347-15.36,36.347-36.997c0-2.488-0.27-4.382-0.592-6.275H41.864z"/>
		<polygon fill-rule="evenodd" clip-rule="evenodd" fill="#59B6DC" points="123,58.841 112.182,58.841 112.182,48.023 
			101.363,48.023 101.363,58.841 90.546,58.841 90.546,69.659 101.363,69.659 101.363,80.478 112.182,80.478 112.182,69.659 
			123,69.659 		"/>
	</g>
</g>
</svg>
