<?xml version="1.0" encoding="utf-8"?>
<!-- Generator: Adobe Illustrator 16.2.0, SVG Export Plug-In . SVG Version: 6.00 Build 0)  -->
<!DOCTYPE svg PUBLIC "-//W3C//DTD SVG 1.1//EN" "http://www.w3.org/Graphics/SVG/1.1/DTD/svg11.dtd">
<svg version="1.1" id="Layer_1" xmlns="http://www.w3.org/2000/svg" xmlns:xlink="http://www.w3.org/1999/xlink" x="0px" y="0px"
	 width="128px" height="128px" viewBox="0 0 128 128" enable-background="new 0 0 128 128" xml:space="preserve">
<path fill="#59B6DC" d="M35.193,90.388H7.708c-2.226,0-4.026,1.802-4.026,4.026v14.651c0,2.226,1.801,4.026,4.026,4.026h27.485
	c2.222,0,4.026-1.801,4.026-4.026V94.414C39.22,92.189,37.415,90.388,35.193,90.388z M27.49,72.27h32.452v11.175h12.079V72.27
	h28.925v11.175h12.079V66.229c0-3.338-2.705-6.04-6.039-6.04H21.451c-3.338,0-6.04,2.701-6.04,6.04v17.215H27.49V72.27z
	 M48.043,41.804h11.898v11.438h12.079V41.804h11.907c2.221,0,4.026-1.801,4.026-4.027V19.088c0-2.224-1.806-4.026-4.026-4.026
	H48.043c-2.226,0-4.027,1.803-4.027,4.026v18.689C44.017,40.002,45.818,41.804,48.043,41.804z M79.724,90.388H52.243
	c-2.226,0-4.026,1.802-4.026,4.026v14.651c0,2.226,1.801,4.026,4.026,4.026h27.481c2.222,0,4.026-1.801,4.026-4.026V94.414
	C83.75,92.189,81.945,90.388,79.724,90.388z M120.724,90.388H93.246c-2.226,0-4.026,1.802-4.026,4.026v14.651
	c0,2.226,1.801,4.026,4.026,4.026h27.478c2.226,0,4.026-1.801,4.026-4.026V94.414C124.75,92.189,122.949,90.388,120.724,90.388z"/>
</svg>
