<?xml version="1.0" encoding="utf-8"?>
<!-- Generator: Adobe Illustrator 16.2.0, SVG Export Plug-In . SVG Version: 6.00 Build 0)  -->
<!DOCTYPE svg PUBLIC "-//W3C//DTD SVG 1.1//EN" "http://www.w3.org/Graphics/SVG/1.1/DTD/svg11.dtd">
<svg version="1.1" id="Layer_1" xmlns="http://www.w3.org/2000/svg" xmlns:xlink="http://www.w3.org/1999/xlink" x="0px" y="0px"
	 width="128px" height="128px" viewBox="0 0 128 128" enable-background="new 0 0 128 128" xml:space="preserve">
<path id="Icon_Heart_2_" fill="#59B6DC" d="M64.678,114.331l-2.084-1.62c-45.68-35.597-58.05-48.125-58.05-68.474
	c0-16.733,14.229-30.345,31.718-30.345c14.618,0,22.88,7.937,28.416,13.91c5.54-5.974,13.802-13.91,28.417-13.91
	c17.489,0,31.722,13.612,31.722,30.345c0,20.348-12.373,32.877-58.05,68.474L64.678,114.331z M36.262,20.211
	c-13.847,0-25.11,10.779-25.11,24.026c0,17.434,11.471,29.089,53.526,61.938c42.062-32.85,53.53-44.504,53.53-61.938
	c0-13.247-11.267-24.026-25.113-24.026c-12.682,0-19.293,7.22-24.611,13.031l-3.805,4.083l-3.802-4.083
	C55.563,27.431,48.944,20.211,36.262,20.211z"/>
</svg>
