<?xml version="1.0" encoding="utf-8"?>
<!-- Generator: Adobe Illustrator 16.2.0, SVG Export Plug-In . SVG Version: 6.00 Build 0)  -->
<!DOCTYPE svg PUBLIC "-//W3C//DTD SVG 1.1//EN" "http://www.w3.org/Graphics/SVG/1.1/DTD/svg11.dtd">
<svg version="1.1" id="Layer_1" xmlns="http://www.w3.org/2000/svg" xmlns:xlink="http://www.w3.org/1999/xlink" x="0px" y="0px"
	 width="128px" height="128px" viewBox="0 0 128 128" enable-background="new 0 0 128 128" xml:space="preserve">
<path id="original_2_" fill="#59B6DC" d="M124.971,67.363c0-9.827-2.538-19.444-6.99-27.456C136.96-3.043,97.646,3.051,95.455,3.483
	c-8.326,1.627-16.029,4.144-23.141,7.462c-1.046-0.057-2.103-0.138-3.166-0.138c-26.526,0-48.729,18.473-54.408,43.277
	c13.978-15.687,23.762-22.028,29.622-24.56c-0.932,0.836-1.851,1.68-2.751,2.527c-0.297,0.288-0.588,0.567-0.886,0.854
	c-0.595,0.571-1.184,1.138-1.765,1.716c-0.344,0.344-0.677,0.688-1.018,1.035c-0.514,0.524-1.028,1.042-1.528,1.567
	c-0.354,0.375-0.706,0.748-1.053,1.124c-0.468,0.503-0.932,1.003-1.39,1.503c-0.354,0.397-0.702,0.787-1.053,1.18
	c-0.429,0.486-0.861,0.975-1.283,1.46c-0.354,0.408-0.699,0.812-1.042,1.216c-0.404,0.475-0.797,0.947-1.191,1.422
	c-0.344,0.418-0.691,0.836-1.032,1.255c-0.365,0.45-0.727,0.904-1.081,1.354c-0.348,0.439-0.695,0.879-1.032,1.312
	c-0.326,0.415-0.638,0.833-0.957,1.248c-0.358,0.471-0.712,0.936-1.06,1.404c-0.248,0.333-0.485,0.663-0.73,0.996
	c-2.208,3.01-4.222,5.959-6.041,8.795c-0.004,0.011-0.011,0.014-0.018,0.021c-0.475,0.751-0.939,1.481-1.393,2.212
	c-0.025,0.042-0.046,0.082-0.071,0.117c-0.454,0.734-0.894,1.454-1.322,2.166c-0.014,0.025-0.032,0.05-0.042,0.078
	c-1.148,1.911-2.216,3.761-3.176,5.502c-5.023,9.11-7.473,15.474-7.579,15.85c-15.874,56.761,33.677,32.794,40.589,29.217
	c7.441,3.676,15.825,6.218,24.69,6.218c24.272,0,44.925-14.874,52.614-36.654H92.428c-4.342,7.26-12.69,12.605-22.294,12.605
	c-14.063,0-25.459-12.605-25.459-23.496h79.835C124.814,75.328,124.971,69.795,124.971,67.363z M12.384,116.538
	c-3.914-4.016-4.605-13.793,4.034-31.617c4.36,12.539,13.06,23.046,24.308,29.71C35.131,117.708,20.285,124.639,12.384,116.538z
	 M44.55,57.179c0.439-10.89,11.563-23.01,25.222-23.01c13.662,0,24.782,12.12,25.226,23.01H44.55z M89.323,14.515
	c5.165-2.492,17.958-7.771,25.222-2.868c4.807,3.247,8.66,8.341,2.038,25.499C110.234,26.933,100.681,18.921,89.323,14.515z"/>
</svg>
