<?xml version="1.0" encoding="utf-8"?>
<!-- Generator: Adobe Illustrator 16.2.0, SVG Export Plug-In . SVG Version: 6.00 Build 0)  -->
<!DOCTYPE svg PUBLIC "-//W3C//DTD SVG 1.1//EN" "http://www.w3.org/Graphics/SVG/1.1/DTD/svg11.dtd">
<svg version="1.1" id="Layer_1" xmlns="http://www.w3.org/2000/svg" xmlns:xlink="http://www.w3.org/1999/xlink" x="0px" y="0px"
	 width="128px" height="128px" viewBox="0 0 128 128" enable-background="new 0 0 128 128" xml:space="preserve">
<path id="Icon_Instagram_2_" fill-rule="evenodd" clip-rule="evenodd" fill="#59B6DC" d="M109.75,55.746H99.568
	c0.742,2.878,1.182,5.889,1.182,9.004c0,19.881-16.119,36-36,36s-36-16.119-36-36c0-3.116,0.439-6.126,1.187-9.004H19.75v49.504
	c0,2.479,2.013,4.496,4.5,4.496h81c2.487,0,4.5-2.018,4.5-4.496V55.746z M109.75,24.25c0-2.487-2.013-4.5-4.5-4.5h-13.5
	c-2.487,0-4.5,2.013-4.5,4.5v13.5c0,2.483,2.013,4.5,4.5,4.5h13.5c2.487,0,4.5-2.017,4.5-4.5V24.25z M64.75,42.25
	c-12.428,0-22.5,10.072-22.5,22.5c0,12.424,10.072,22.5,22.5,22.5s22.5-10.076,22.5-22.5C87.25,52.322,77.178,42.25,64.75,42.25
	 M109.75,123.25h-90c-7.458,0-13.5-6.047-13.5-13.504V19.75c0-7.458,6.042-13.5,13.5-13.5h90c7.457,0,13.5,6.042,13.5,13.5v89.996
	C123.25,117.203,117.207,123.25,109.75,123.25"/>
</svg>
