<?xml version="1.0" encoding="utf-8"?>
<!-- Generator: Adobe Illustrator 16.2.0, SVG Export Plug-In . SVG Version: 6.00 Build 0)  -->
<!DOCTYPE svg PUBLIC "-//W3C//DTD SVG 1.1//EN" "http://www.w3.org/Graphics/SVG/1.1/DTD/svg11.dtd">
<svg version="1.1" id="Layer_1" xmlns="http://www.w3.org/2000/svg" xmlns:xlink="http://www.w3.org/1999/xlink" x="0px" y="0px"
	 width="128px" height="128px" viewBox="0 0 128 128" enable-background="new 0 0 128 128" xml:space="preserve">
<g id="plain-wordmark_6_">
	<g>
		<path fill="#59B6DC" d="M48.173,80.802c0.063,0.029,0.131,0.063,0.19,0.092c0.113,0.054,0.226,0.107,0.338,0.163
			c0.434,0.205,0.874,0.41,1.313,0.606c0.095,0.044,0.184,0.083,0.279,0.125c0.505,0.223,1.016,0.434,1.527,0.636
			c0.125,0.05,0.25,0.098,0.375,0.146c0.475,0.187,0.959,0.368,1.443,0.537c0.063,0.021,0.122,0.042,0.181,0.063
			c0.532,0.185,1.069,0.359,1.613,0.525c0.128,0.039,0.256,0.081,0.386,0.116c0.553,0.169,1.093,0.365,1.664,0.47
			c36.07,6.579,46.547-21.676,46.547-21.676c-8.798,11.463-24.417,14.49-39.219,11.124c-0.562-0.127-1.105-0.303-1.651-0.466
			c-0.14-0.039-0.276-0.083-0.413-0.122c-0.535-0.166-1.063-0.339-1.589-0.52c-0.074-0.027-0.146-0.051-0.217-0.08
			c-0.475-0.164-0.938-0.339-1.402-0.521c-0.134-0.05-0.265-0.101-0.395-0.154c-0.508-0.199-1.013-0.41-1.512-0.627
			c-0.107-0.044-0.202-0.092-0.303-0.137c-0.431-0.192-0.855-0.389-1.277-0.591c-0.125-0.06-0.247-0.115-0.372-0.178
			c-0.33-0.164-0.659-0.333-0.989-0.502c-0.217-0.116-0.44-0.227-0.66-0.348c-0.398-0.214-0.79-0.434-1.182-0.663
			c-0.131-0.074-0.268-0.146-0.398-0.223c-0.523-0.306-1.034-0.624-1.545-0.944c-0.14-0.089-0.276-0.185-0.416-0.276
			c-0.369-0.237-0.737-0.481-1.096-0.73c-0.122-0.08-0.235-0.17-0.354-0.247c-0.351-0.246-0.695-0.499-1.04-0.751
			c-0.155-0.116-0.306-0.231-0.458-0.348c-0.315-0.24-0.627-0.481-0.936-0.731c-0.14-0.113-0.279-0.223-0.418-0.335
			c-0.392-0.324-0.781-0.647-1.165-0.98c-0.042-0.036-0.083-0.071-0.128-0.107c-0.413-0.365-0.823-0.74-1.227-1.117
			c-0.116-0.11-0.229-0.22-0.345-0.333c-0.297-0.282-0.591-0.567-0.879-0.862c-0.116-0.116-0.231-0.229-0.344-0.344
			c-0.369-0.375-0.728-0.758-1.082-1.144c-0.018-0.018-0.036-0.036-0.053-0.056c-0.375-0.41-0.737-0.826-1.096-1.248
			c-0.098-0.116-0.19-0.226-0.288-0.342c-0.264-0.318-0.529-0.645-0.787-0.974c-0.098-0.116-0.193-0.238-0.288-0.359
			c-0.312-0.401-0.615-0.805-0.912-1.215c-8.216-11.208-11.169-26.666-4.601-39.359l-5.822,7.385
			c-7.456,10.72-6.529,24.664-0.832,36.058c0.137,0.271,0.279,0.541,0.416,0.808c0.089,0.169,0.175,0.345,0.268,0.514
			c0.053,0.098,0.113,0.199,0.167,0.294c0.098,0.184,0.196,0.354,0.297,0.532c0.178,0.312,0.356,0.624,0.543,0.933
			c0.104,0.169,0.205,0.342,0.312,0.511c0.205,0.333,0.416,0.66,0.63,0.986c0.089,0.143,0.178,0.282,0.267,0.416
			c0.3,0.445,0.603,0.885,0.915,1.318c0.009,0.013,0.018,0.027,0.027,0.036c0.05,0.071,0.104,0.14,0.154,0.208
			c0.271,0.374,0.549,0.742,0.834,1.107c0.101,0.134,0.208,0.268,0.315,0.398c0.25,0.317,0.505,0.633,0.767,0.947
			c0.101,0.116,0.196,0.238,0.297,0.351c0.351,0.413,0.707,0.826,1.069,1.227c0.009,0.007,0.018,0.016,0.024,0.021
			c0.015,0.018,0.03,0.026,0.042,0.047c0.356,0.387,0.719,0.767,1.09,1.15c0.116,0.115,0.229,0.234,0.348,0.351
			c0.288,0.288,0.576,0.57,0.873,0.855c0.119,0.112,0.238,0.229,0.356,0.335c0.392,0.371,0.787,0.734,1.191,1.088
			c0.009,0.006,0.012,0.012,0.021,0.015c0.065,0.063,0.137,0.118,0.205,0.178c0.356,0.307,0.719,0.615,1.084,0.915
			c0.149,0.122,0.297,0.237,0.449,0.356c0.3,0.241,0.6,0.476,0.906,0.707c0.158,0.122,0.321,0.243,0.481,0.368
			c0.333,0.247,0.671,0.49,1.013,0.725c0.125,0.093,0.247,0.179,0.372,0.265c0.033,0.023,0.065,0.051,0.101,0.071
			c0.321,0.223,0.653,0.437,0.983,0.65c0.14,0.096,0.282,0.193,0.425,0.285c0.508,0.321,1.022,0.639,1.542,0.942
			c0.14,0.083,0.282,0.16,0.425,0.24c0.383,0.22,0.766,0.439,1.158,0.647c0.211,0.116,0.428,0.223,0.639,0.333
			C47.621,80.517,47.894,80.659,48.173,80.802z"/>
		<path fill="#59B6DC" d="M51.818,44.494c0.808,1.155,1.702,2.534,2.777,3.466c0.386,0.428,0.793,0.847,1.209,1.257
			c0.104,0.104,0.211,0.208,0.318,0.314c0.404,0.389,0.814,0.772,1.236,1.147c0.018,0.015,0.036,0.033,0.053,0.044
			c0.003,0.003,0.006,0.006,0.012,0.012c0.467,0.41,0.951,0.805,1.444,1.194c0.107,0.083,0.217,0.169,0.327,0.258
			c0.493,0.377,0.995,0.746,1.509,1.102c0.018,0.009,0.029,0.021,0.047,0.033c0.226,0.157,0.458,0.303,0.686,0.455
			c0.11,0.071,0.217,0.148,0.33,0.217c0.365,0.235,0.736,0.466,1.117,0.683c0.053,0.036,0.107,0.063,0.16,0.092
			c0.327,0.19,0.657,0.374,0.986,0.552c0.119,0.065,0.238,0.125,0.354,0.187c0.229,0.119,0.46,0.241,0.692,0.357
			c0.035,0.018,0.071,0.032,0.106,0.047c0.476,0.234,0.954,0.458,1.444,0.671c0.104,0.047,0.214,0.089,0.317,0.13
			c0.393,0.167,0.787,0.33,1.186,0.484c0.166,0.063,0.338,0.122,0.505,0.184c0.362,0.134,0.725,0.255,1.087,0.377
			c0.166,0.053,0.327,0.107,0.493,0.157c0.517,0.164,1.03,0.365,1.571,0.455c27.848,4.616,34.279-16.828,34.279-16.828
			c-5.796,8.347-17.021,12.327-28.998,9.22c-0.531-0.14-1.055-0.291-1.577-0.455c-0.16-0.05-0.314-0.101-0.476-0.154
			c-0.368-0.119-0.736-0.247-1.102-0.38c-0.166-0.059-0.336-0.122-0.496-0.184c-0.401-0.154-0.796-0.315-1.188-0.478
			c-0.106-0.048-0.217-0.089-0.32-0.137c-0.493-0.214-0.975-0.439-1.453-0.674c-0.246-0.122-0.49-0.25-0.728-0.375
			c-0.143-0.071-0.282-0.143-0.422-0.214c-0.309-0.169-0.617-0.344-0.921-0.522c-0.074-0.039-0.148-0.081-0.22-0.125
			c-0.38-0.22-0.748-0.445-1.117-0.68c-0.115-0.071-0.226-0.148-0.338-0.226c-0.241-0.155-0.484-0.315-0.722-0.479
			c-0.515-0.354-1.013-0.725-1.506-1.099c-0.113-0.089-0.226-0.178-0.339-0.267c-5.243-4.138-9.398-9.797-11.374-16.21
			c-2.071-6.654-1.625-14.119,1.963-20.181l-4.408,6.223c-5.395,7.762-5.1,18.152-0.891,26.363
			C50.14,41.886,50.93,43.222,51.818,44.494z"/>
		<path fill="#59B6DC" d="M81.169,34.89c0.231,0.086,0.46,0.16,0.695,0.241c0.101,0.03,0.202,0.065,0.303,0.095
			c0.327,0.101,0.653,0.223,0.992,0.288c15.375,2.968,19.549-7.892,20.659-9.49c-3.656,5.258-9.793,6.52-17.326,4.693
			c-0.595-0.143-1.251-0.359-1.824-0.564c-0.736-0.262-1.461-0.562-2.165-0.897c-1.34-0.645-2.611-1.423-3.794-2.314
			c-6.742-5.118-10.931-14.874-6.531-22.822l-2.38,3.279c-3.179,4.682-3.493,10.492-1.286,15.66
			C70.838,28.545,75.608,32.85,81.169,34.89z"/>
		<g>
			<path fill="#59B6DC" d="M66.328,97.849h-4.17c-0.232,0-0.46,0.185-0.511,0.41l-1.479,6.85l-1.479,6.848
				c-0.047,0.226-0.279,0.412-0.511,0.412h-2.531h-0.422c-2.917,0-2.579-2.02-1.984-4.788c0.006-0.026,0.012-0.054,0.018-0.083
				l0.068-0.348c0.003-0.023,0.009-0.045,0.012-0.065l0.133-0.71l0.143-0.764c0.042-0.229,0.107-0.563,0.152-0.774l0.674-3.286
				l0.671-3.288c0.047-0.229-0.104-0.413-0.336-0.413h-4.28c-0.232,0-0.46,0.185-0.505,0.41l-0.921,4.366l-0.921,4.367
				c0,0,0,0.003-0.003,0.006l-0.086,0.407c-1.057,4.839-0.778,9.451,4.984,9.598c0.095,0.003,0.167,0.003,0.167,0.003h9.042
				c0.232,0,0.46-0.185,0.511-0.413l1.948-9.164l1.949-9.17C66.709,98.033,66.561,97.849,66.328,97.849L66.328,97.849z"/>
			<path fill="#59B6DC" d="M21.67,97.799h-4.58c-0.232,0-0.463,0.187-0.514,0.412l-0.434,1.916l-0.437,1.916
				c-0.048,0.226,0.098,0.41,0.33,0.41h4.613c0.231,0,0.463-0.185,0.511-0.41l0.422-1.916l0.422-1.916l0,0
				C22.051,97.985,21.902,97.799,21.67,97.799L21.67,97.799z"/>
			<path fill="#59B6DC" d="M20.34,103.763h-4.613c-0.231,0-0.46,0.185-0.514,0.41l-0.647,2.873l-0.647,2.869
				c-0.054,0.229-0.134,0.597-0.182,0.826l-0.624,2.929l-0.621,2.932c-0.047,0.226-0.148,0.591-0.223,0.811
				c0,0-0.861,2.563-2.311,2.537c-0.063-0.003-0.122-0.003-0.181-0.006c-0.701-0.012-1.253-0.021-1.253-0.021H8.521
				c-0.229-0.003-0.46,0.175-0.517,0.4l-0.478,2.011l-0.479,2.012c-0.053,0.226,0.092,0.41,0.321,0.416
				c0.823,0.009,2.665,0.029,3.779,0.029c3.621,0,5.528-2.005,6.751-7.776l1.432-6.627l1.342-6.215
				C20.723,103.947,20.572,103.763,20.34,103.763L20.34,103.763z"/>
			<path fill="#59B6DC" d="M105.318,102.21l-0.189-0.79l-0.19-0.809l-0.095-0.41c-0.375-1.455-1.474-2.296-3.865-2.296l-3.719-0.006
				l-3.425-0.003h-0.297h-3.559c-0.231,0-0.464,0.185-0.511,0.41l0,0l-0.17,0.808l-0.199,0.95l-0.059,0.268l-1.735,8.131
				l-1.646,7.72c-0.051,0.226-0.065,0.505-0.038,0.615c0.026,0.115,0.472,0.208,0.703,0.208h3.476c0.232,0,0.529-0.042,0.653-0.093
				c0.125-0.053,0.313-0.508,0.356-0.733l0.618-3.057l0.621-3.06c0,0,0-0.003,0.003-0.006l0.08-0.407l0.752-3.511l0.659-3.104
				c0.051-0.223,0.279-0.41,0.511-0.41l10.943-0.006C105.227,102.619,105.372,102.436,105.318,102.21L105.318,102.21z"/>
			<path fill="#59B6DC" d="M119.407,95.065c-0.231,0.003-0.608,0.003-0.84,0.003h-3.506c-0.231,0-0.528,0.157-0.659,0.348
				l-7.744,11.348c-0.131,0.189-0.279,0.163-0.329-0.063l-0.57-2.501c-0.054-0.227-0.285-0.41-0.518-0.41h-4.979
				c-0.231,0-0.368,0.181-0.306,0.404l2.23,7.814c0.065,0.223,0.071,0.589,0.013,0.814l-0.972,3.784
				c-0.06,0.223,0.083,0.407,0.314,0.407h4.922c0.232,0,0.47-0.185,0.526-0.407l0.972-3.784c0.059-0.226,0.22-0.559,0.359-0.746
				l12.573-16.685c0.137-0.188,0.063-0.339-0.166-0.336L119.407,95.065L119.407,95.065z"/>
			<path fill="#59B6DC" d="M79.85,104.854v-0.003c-0.029,0.249-0.261,0.434-0.492,0.434h-6.31c-0.22,0-0.333-0.148-0.297-0.33
				c0-0.006,0-0.012,0.006-0.015l-0.006,0.003c0-0.009,0-0.015,0.003-0.023c0,0,0.012-0.042,0.029-0.107
				c0.604-1.601,1.83-2.655,4.138-2.655C79.521,102.156,80.028,103.428,79.85,104.854L79.85,104.854z M77.996,97.566
				c-8.1,0-10.021,4.92-11.098,9.883c-1.075,5.062-0.985,9.791,7.402,9.791h0.298c0.023,0,0.053,0,0.077,0h0.237h0.083h0.22
				c0.036,0,0.065,0,0.102,0c0.083,0,0.166-0.003,0.249-0.003h0.06c0.333,0,0.671,0,1.007-0.003h0.018
				c2.214-0.006,4.436-0.024,5.335-0.033c0.229-0.003,0.455-0.187,0.503-0.412l0.338-1.658l0.065-0.323l0.407-1.979
				c0.045-0.229-0.104-0.413-0.336-0.413h-7.539c-3,0-3.888-0.796-3.559-3.14h12.049l0,0h0.006c0.192-0.003,0.368-0.134,0.439-0.312
				c0.012-0.033,0.023-0.068,0.029-0.104l0,0c1.788-6.746,1.274-11.291-6.393-11.291V97.566z"/>
			<path fill="#59B6DC" d="M39.701,104.829l-0.113,0.404l0,0l-0.909,3.223l-0.909,3.224c-0.065,0.226-0.306,0.406-0.538,0.406
				h-4.815c-3.654,0-4.545-2.857-3.654-7.072c0.891-4.311,2.632-6.986,6.229-7.26C39.903,97.386,40.89,100.84,39.701,104.829
				L39.701,104.829z M43.004,111.84c0,0,2.27-5.517,2.786-8.697c0.704-4.263-1.432-10.447-9.674-10.447
				c-8.196,0-11.754,5.902-13.115,12.318c-1.357,6.464,0.422,12.132,8.573,12.087l6.428-0.023l6.012-0.024
				c0.229-0.003,0.466-0.184,0.522-0.406l1.049-3.993c0.056-0.226-0.083-0.409-0.315-0.412l-1.001-0.006l-1.004-0.007
				c-0.196,0-0.309-0.127-0.285-0.297C42.984,111.902,42.993,111.869,43.004,111.84L43.004,111.84z"/>
			<path fill="#59B6DC" d="M83.581,108.147c0,0.154-0.125,0.279-0.276,0.279s-0.276-0.125-0.276-0.279
				c0-0.151,0.125-0.276,0.276-0.276S83.581,107.996,83.581,108.147z"/>
		</g>
	</g>
</g>
</svg>
