<?xml version="1.0" encoding="utf-8"?>
<!-- Generator: Adobe Illustrator 16.2.0, SVG Export Plug-In . SVG Version: 6.00 Build 0)  -->
<!DOCTYPE svg PUBLIC "-//W3C//DTD SVG 1.1//EN" "http://www.w3.org/Graphics/SVG/1.1/DTD/svg11.dtd">
<svg version="1.1" id="Layer_1" xmlns="http://www.w3.org/2000/svg" xmlns:xlink="http://www.w3.org/1999/xlink" x="0px" y="0px"
	 width="128px" height="128px" viewBox="0 0 128 128" enable-background="new 0 0 128 128" xml:space="preserve">
<g id="plain">
	<g>
		<path fill-rule="evenodd" clip-rule="evenodd" fill="#59B6DC" d="M120.688,31.065c-5.063-2.511-10.006-5.063-15.125-7.468
			c-9.976-4.688-19.594-10.005-29.623-14.589C72.683,7.52,69.559,5.8,66.381,4.149c-1.063-0.551-2.015-0.554-3.093-0.006
			c-4.14,2.118-8.342,4.104-12.524,6.124c-9.928,4.79-19.824,9.951-29.794,14.661C16.632,26.973,12,29.157,8,31.239
			c0,21.922,0,43.778,0,65.617c0,0.045,0.528,0.042,0.654,0.104c3.146,1.552,6.384,3.07,9.503,4.674
			c3.181,1.639,6.466,3.13,9.695,4.667c10.015,4.775,19.909,9.838,29.845,14.78c1.92,0.956,3.908,1.798,5.795,2.813
			c0.956,0.518,1.694,0.47,2.665,0.006c2.966-1.414,5.947-2.819,8.898-4.26c11.446-5.59,22.59-11.411,34.105-16.866
			C113.17,100.873,116,98.81,121,96.761c0-21.896,0-43.749,0-65.591C120,31.128,120.813,31.128,120.688,31.065z M106.077,91.713
			c-2.382,2.489-5.174,4.37-8.241,5.88c-0.767,0.378-1.555,0.824-2.379,0.953c-1.264,0.2-1.704,1.198-2.295,2.028
			c-1.006,1.42-3.43,2.854-5.11,2.879c-0.464,0.006-0.932-0.03-1.39,0.006c-1.821,0.146-3.476-0.303-5.107-1.124
			c-2.238-1.123-4.665-1.309-7.157-1.243c-1.309,0.039-2.456,0.339-3.553,0.971c-1.462,0.842-2.247,2.763-1.932,4.344
			c0.074,0.39-0.3,0.866-0.549,1.519c-0.545-0.458-1.135-0.713-1.159-1.015c-0.165-2.017-0.284-4.11,1.139-5.761
			c1.95-2.262,4.49-3.505,7.489-3.721c0.77-0.055,1.545,0.015,2.318-0.013c1.872-0.057,3.64,0.291,5.461,0.794
			c1.507,0.42,3.283,0.507,4.805-0.467c0.533-2.004-0.526-3.454-1.988-4.395c-1.543-0.995-3.095-2.046-5-2.483
			c-1.36-0.312-2.559-1.271-3.892-1.771c-1.339-0.501-2.678-1.043-4.014-1.528c-1.276-0.464-2.727-0.446-3.871-1.279
			c-2.118,0.1-4.176-0.848-6.297-0.452c-2.774,0.516-5.572,0.968-8.202,2.034c-1.983,0.806-3.993,1.555-5.896,2.567
			c-1.126,0.599-2.414,0.89-3.577,1.438c-0.911,0.429-1.797,0.956-2.588,1.576c-1.36,1.069-2.271,2.399-1.839,4.287
			c1.675,0.778,3.361,0.884,5.159,0.278c1.941-0.653,3.993-0.516,6.015-0.638c2.562-0.153,4.805,0.646,6.866,1.935
			c1.959,1.22,3.304,2.975,3.232,5.482c-0.015,0.539,0.081,1.1-0.027,1.617c-0.096,0.459-0.401,0.872-0.725,1.525
			c-0.641-0.668-1.678-0.827-0.731-1.843c-0.608-1.114-0.251-2.654-1.468-3.486c-1.079-0.734-2.127-1.559-3.562-1.483
			c-0.848,0.045-1.708,0.075-2.549-0.006c-1.995-0.183-3.787,0.488-5.473,1.36c-2.331,1.204-4.796,0.94-7.252,0.974
			c-1.384-0.779-3.038-1.139-4.074-2.454c-0.527-0.665-0.755-1.86-1.381-2.085c-0.818-0.293-1.563-0.854-2.37-0.982
			c-2.04-0.323-3.469-1.756-5.159-2.669c-1.426-0.771-2.564-2.088-3.774-3.224c-1.324-1.24-2.007-2.798-2.313-4.607
			c-0.456-2.684,0.587-5.173,2.028-6.692c1.896-1.995,4.257-3.028,6.803-3.966c-0.623-1.234-1.103-2.618-1.944-3.729
			c-0.806-1.061-0.883-2.313-1.21-3.445c-0.369-1.285-0.338-2.822-0.015-4.131c0.318-1.285,1.108-2.504,1.899-3.598
			c0.719-0.991,1.687-1.809,2.609-2.63c0.296-0.261,0.793-0.291,1.171-0.417c0.509,0.707,0.351,1.189-0.149,1.698
			c-0.521,0.53-0.953,1.147-1.426,1.723c-1.342,1.63-0.917,3.571-0.898,5.413c0.012,1.184,0.719,2.172,1.396,3.122
			c1.3,1.824,2.63,3.544,4.847,4.448c1.187,0.485,2.307,0.898,3.589,0.859c1.15-0.039,2.301-0.009,4.014-0.009
			c-1.006-0.449-1.516-0.671-2.016-0.904c-3.526-1.639-5.359-4.425-5.362-8.134c0-1.314,0.128-2.645-0.039-3.939
			c-0.15-1.118,0.497-2.007,0.53-3.059c0.027-0.944-0.435-1.998,0.438-2.822c-0.237-1.798,0.44-3.64-0.357-5.419
			c-0.422-0.938-0.072-1.983-0.491-3.041c-0.809-2.043-1.39-4.026-4.032-4.275c-0.281-0.027-0.521-0.491-0.773-0.74
			c0.461-0.998,0.935-1.198,1.98-0.869c2.675,0.848,4.275,2.654,5.563,5.036c1.384,2.561,1.845,5.284,2.354,8.091
			c0.509,2.816,0.225,5.608,0.417,8.4c0.063,0.932,0.314,1.866,0.602,2.759c0.275,0.872,0.695,1.387,1.587,1.474
			C46.077,68.763,48,68.673,48,67.483c0-0.707,0-1.474,0-2.357c0-0.479-0.818-1.684-2.193-1.639
			c-0.523,0.018-0.638-0.758-0.617-1.459c0.057-2.007,0.232-4.032,0.055-6.027c-0.191-2.151,0.337-4.242,0.657-6.285
			c0.282-1.81,0.506-3.711,1.247-5.494c0.68-1.647,0.818-3.523,1.48-5.186c1.216-3.062,2.591-6.051,4.299-8.9
			c0.971-1.627,2.278-3.022,3.099-4.736c0.063-0.132,0.143-0.257,0.235-0.365c1.205-1.36,2.34-2.786,3.628-4.056
			c1.552-1.531,3.232-2.93,4.921-4.443c1.768,1.57,3.613,2.93,5.116,4.596c4.08,4.517,7.666,9.433,9.976,15.101
			c1.073,2.639,2.098,5.329,2.64,8.199c0.488,2.588,0.997,5.165,1.429,7.768c0.555,3.37,0.108,6.698,0.375,10.03
			c0.051,0.659-0.421,1.291-0.771,1.261C82.191,63.383,81,64.632,81,65.126c0,0.854,0,1.624,0,2.379c0,0.893,1.865,1.21,3.07,1.171
			c1.453-0.045,2.211-0.826,2.606-2.33c0.435-1.648,0.537-3.287,0.394-4.922c-0.21-2.375,0.257-4.694,0.581-6.989
			c0.377-2.678,1.294-5.293,2.708-7.669c0.943-1.585,3.756-3.753,5.409-4.08c0.729-0.147,1.343,0.105,1.609,1.111
			c-0.276,0.213-0.589,0.665-0.942,0.698c-2.339,0.228-3.034,2.049-3.729,3.81c-0.377,0.953-0.289,2.094-0.574,3.02
			c-0.485,1.59-0.341,3.139-0.348,4.703c-0.006,0.94,0.264,1.884,0.438,2.822c0.162,0.866-0.38,1.818,0.42,2.627
			c0.191,0.194,0.042,0.74,0.042,1.123c0,1.471-0.03,2.942,0.006,4.407c0.09,3.682-2.463,7.771-6.92,8.885
			c2.771,0.236,5.467,0.458,8.076-1.142c2.546-1.561,3.906-3.954,5.332-6.365c0.036-2.774,0.413-5.656-2.163-7.678
			c-0.56-0.44-0.719-0.941-0.539-1.842c0.479,0.066,0.989-0.018,1.181,0.188c1.42,1.531,3.295,2.688,3.972,4.841
			c0.189,0.608,0.773,1.18,0.749,1.752c-0.063,1.498,0.246,2.98-0.209,4.523c-0.348,1.181-0.72,2.34-1.243,3.436
			c-0.495,1.037-1.157,1.995-1.783,3.047c0.875,0.429,1.714,0.982,2.631,1.255c1.962,0.578,3.307,1.936,4.658,3.328
			c1.345,1.385,1.513,3.242,2.027,4.958C107.739,88.063,107.578,90.143,106.077,91.713z"/>
		<path fill-rule="evenodd" clip-rule="evenodd" fill="#59B6DC" d="M33.884,83.954c-0.764,0.068-1.546-0.033-2.313,0.021
			c-1.247,0.09-2.409,0.539-3.427,1.223c-1.03,0.691-1.103,1.33-0.617,2.522c0.482,1.186,1.201,2.166,2.115,3.073
			c1.632,1.618,3.331,3.125,5.335,4.248c0.713-3.967,2.933-6.839,6.312-8.951c-0.59-0.291-1.055-0.488-1.486-0.737
			C37.967,84.302,36.023,83.766,33.884,83.954z"/>
		<path fill-rule="evenodd" clip-rule="evenodd" fill="#59B6DC" d="M101.718,85.344c-0.568-0.503-2.75-1.356-3.601-1.375
			c-1.084-0.018-2.169,0.072-3.244-0.021c-1.614-0.135-3.011,0.497-4.419,1.099c-0.658,0.282-1.278,0.647-2.052,1.046
			c3.373,2.109,5.593,4.981,6.318,9.029c0.89-0.636,1.813-1.189,2.605-1.891c1.433-1.264,2.825-2.576,4.149-3.954
			c0.423-0.438,0.596-1.13,0.836-1.726C102.649,86.704,102.435,85.982,101.718,85.344z"/>
		<path fill-rule="evenodd" clip-rule="evenodd" fill="#59B6DC" d="M57.802,63.086c-1.055,0.03-1.363,0.47-1.312,1.86
			c0.042,1.061,0.494,1.468,1.555,1.387c0.86-0.063,1.785-1.019,1.692-1.746C59.644,63.835,58.646,63.062,57.802,63.086z"/>
		<path fill-rule="evenodd" clip-rule="evenodd" fill="#59B6DC" d="M71.93,63.086c-0.995-0.045-2.031,0.839-1.983,1.689
			c0.048,0.768,1.007,1.561,1.881,1.558c1.021-0.003,1.357-0.389,1.366-1.572C73.205,63.526,72.906,63.131,71.93,63.086z"/>
	</g>
</g>
</svg>
