<?xml version="1.0" encoding="utf-8"?>
<!-- Generator: Adobe Illustrator 16.2.0, SVG Export Plug-In . SVG Version: 6.00 Build 0)  -->
<!DOCTYPE svg PUBLIC "-//W3C//DTD SVG 1.1//EN" "http://www.w3.org/Graphics/SVG/1.1/DTD/svg11.dtd">
<svg version="1.1" id="Layer_1" xmlns="http://www.w3.org/2000/svg" xmlns:xlink="http://www.w3.org/1999/xlink" x="0px" y="0px"
	 width="128px" height="128px" viewBox="0 0 128 128" enable-background="new 0 0 128 128" xml:space="preserve">
<g id="Icon_Like_2_">
	<g>
		<path fill="#59B6DC" d="M122.75,64.91c0-7.737-6.052-11.833-14.55-11.833H83.798c1.699-6.674,2.557-12.783,2.557-18.205
			c0-21.063-5.938-25.487-10.923-25.487c-3.445,0-5.803,0.359-9.131,2.325c-0.91,0.541-1.543,1.444-1.732,2.485l-3.587,19.72
			c-3.848,10.368-13.867,19.296-21.96,25.558V111.4c2.791,0,5.956,1.568,9.309,3.229c3.954,1.959,8.046,3.986,12.537,3.986h34.59
			c7.274,0,12.711-5.768,12.711-10.924c0-0.995-0.103-1.901-0.273-2.72c4.501-1.668,7.573-5.479,7.573-10.023
			c0-2.165-0.384-4.046-1.173-5.696c2.755-1.944,5.543-5.123,5.543-8.867c0-2.041-0.942-4.477-2.329-6.134
			C120.674,71.876,122.75,68.37,122.75,64.91z M115.119,64.91c0,4.608-4.893,5.156-5.497,7.396
			c-0.661,2.465,2.951,3.453,2.951,7.776c0,4.552-5.496,4.498-6.25,6.845c-0.89,2.788,1.806,3.545,1.806,8.021
			c0,0.281-0.028,0.552-0.121,0.814c-0.75,3.744-6.314,3.847-7.274,5.387c-1.024,1.649,0.146,2.674,0.146,6.542
			c0,2.123-2.386,3.642-5.422,3.642h-34.59c-2.788,0-5.952-1.568-9.305-3.229c-2.862-1.419-5.792-2.869-8.9-3.566V65.877
			c9.031-6.912,20.744-17.188,25.274-29.771c0.067-0.188,0.12-0.384,0.156-0.583l3.32-18.276c1.103-0.466,2.112-0.58,4.019-0.58
			c0.804,0,3.641,4.359,3.641,18.205c0,5.294-0.942,11.41-2.809,18.205h-0.896c-2.013,0-3.641,1.628-3.641,3.641
			c0,2.013,1.628,3.641,3.641,3.641H108.2C111.784,60.359,115.119,62.066,115.119,64.91z"/>
		<path fill="#59B6DC" d="M35.38,118.615H13.535c-4.014,0-7.282-3.268-7.282-7.282V60.359c0-4.014,3.268-7.282,7.282-7.282H35.38
			c4.018,0,7.282,3.268,7.282,7.282v50.974C42.663,115.348,39.398,118.615,35.38,118.615z M35.38,111.333L35.38,111.333
			 M13.535,60.359v50.974h21.839l0.007-50.974H13.535z"/>
		<rect x="13.535" y="60.359" fill="#59B6DC" width="0" height="0"/>
	</g>
</g>
</svg>
