<?xml version="1.0" encoding="utf-8"?>
<!-- Generator: Adobe Illustrator 16.2.0, SVG Export Plug-In . SVG Version: 6.00 Build 0)  -->
<!DOCTYPE svg PUBLIC "-//W3C//DTD SVG 1.1//EN" "http://www.w3.org/Graphics/SVG/1.1/DTD/svg11.dtd">
<svg version="1.1" id="Layer_1" xmlns="http://www.w3.org/2000/svg" xmlns:xlink="http://www.w3.org/1999/xlink" x="0px" y="0px"
	 width="128px" height="128px" viewBox="0 0 128 128" enable-background="new 0 0 128 128" xml:space="preserve">
<path id="plain_8_" fill-rule="evenodd" clip-rule="evenodd" fill="#59B6DC" d="M111.095,102.666
	c-1.701-1.397-3.436-2.765-5.025-4.283c-1.771-1.688-2.883-3.733-2.638-6.321c0.138-1.488-0.206-2.771-2.002-3.269
	c0.422-1.09,0.817-1.826,0.979-2.604c0.18-0.87,0.166-1.786,0.192-2.683c0.249-9.43-3.154-17.694-8.199-25.407
	c-2.323-3.547-4.751-7.031-7.228-10.477C83.3,42.24,81.909,36.19,81.841,29.657c-0.036-2.997-0.39-6.043-1.024-8.972
	c-1.243-5.719-4.306-10.189-9.861-12.587c-4.257-1.839-8.664-2.202-13.16-1.027c-6.534,1.711-10.483,6.566-10.411,13.336
	c0.072,6.521,0.396,13.045,0.874,19.55c0.271,3.684-0.298,6.864-2.739,9.79c-2.353,2.811-4.456,5.84-6.491,8.896
	c-1.165,1.744-2.196,3.645-2.916,5.614c-1.96,5.359-3.759,10.765-6.887,15.62c-1.158,1.796-1.289,3.809-0.468,5.866
	c0.212,0.533,0.343,1.354,0.082,1.783c-2.225,3.697-4.744,6.953-9.528,7.663c-3.763,0.56-3.949,1.243-3.834,5.124
	c0.095,3.16,0.059,6.348-0.265,9.488c-0.343,3.363,0.01,4.279,3.259,5.085c7.502,1.864,15.064,3.455,22.239,6.488
	c3.056,1.292,6.122,0.844,8.582-1.669c2.569-2.621,5.814-3.648,9.318-3.651c5.952-0.007,11.9,0.281,17.855,0.347
	c1.609,0.02,2.536,0.618,3.184,2.084c0.795,1.79,2.14,3.108,4.211,3.337c3.966,0.438,7.584-0.15,10.591-3.18
	c3.707-3.736,7.987-6.691,12.889-8.736c1.403-0.582,2.726-1.505,3.887-2.506C113.336,105.581,113.222,104.423,111.095,102.666z
	 M62.438,26.483c0.717-2.46,2.402-4.061,4.963-4.545c2.153-0.406,3.979,0.651,5.34,3.072c1.459,2.611,1.943,5.34,0.693,8.196
	c-1.027,2.343-1.505,2.562-3.903,1.77c-0.448-0.147-0.887-0.324-1.685-0.618c0.674-0.563,1.093-0.979,1.577-1.309
	c1.073-0.729,1.374-1.757,1.276-2.977c-0.131-1.606-1.395-3.027-2.687-3.007c-1.162,0.016-2.144,1.105-2.274,2.758
	c-0.078,1.031,0.092,2.081,0.164,3.4C62.645,32.254,61.447,29.886,62.438,26.483z M50.368,24.353
	c1.204-1.826,3.026-2.192,4.829-0.972c1.921,1.306,3.357,4.977,2.614,7.172c-0.271,0.798-1.066,1.42-1.623,2.124
	c-0.193-0.118-0.383-0.236-0.573-0.354c-0.216-1.188-0.262-2.447-0.716-3.534c-0.288-0.69-1.188-1.123-1.816-1.669
	c-0.589,0.7-1.604,1.365-1.662,2.107c-0.085,1.027,0.451,2.159,0.916,3.154c0.294,0.625,0.949,1.083,1.623,1.816
	c-0.645,0.504-1.244,0.975-1.819,1.427C49.282,33.069,48.431,27.278,50.368,24.353z M86.025,85.135
	c-0.193,2.464-0.478,2.568-2.951,2.932c-1.761,0.259-2.238,0.717-2.323,2.808c-0.104,2.444-0.098,4.895-0.013,7.339
	c0.059,1.675-0.508,2.99-1.662,4.158c-6.403,6.491-14.053,9.567-23.205,8.451c-3.946-0.48-6.531-2.886-8.612-6.285
	c0.929-0.344,1.616-0.575,2.284-0.848c2.958-1.2,3.508-3.742,1.148-5.941c-1.783-1.662-3.772-3.108-5.687-4.63
	c-1.849-1.472-3.727-2.915-5.579-4.381c-1.577-1.257-2.179-2.869-2.218-4.914c-0.088-4.905,0.923-9.495,2.971-13.958
	c1.829-3.985,3.246-8.16,4.96-12.198c0.883-2.087,1.803-4.221,3.102-6.05c1.25-1.754,2.022-3.472,1.885-5.625
	c-0.082-1.208-0.016-2.424-0.016-3.638c0.222-0.108,0.445-0.219,0.67-0.331c1.08,0.933,2.179,1.845,3.239,2.801
	c3.828,3.452,7.47,3.609,11.661,0.635c1.786-1.27,3.72-2.339,5.611-3.458c0.471-0.278,1.034-0.399,1.832-0.697
	c2.039,4.793,4.034,9.498,6.033,14.2c1.018,2.389,1.829,4.892,3.093,7.143c2.525,4.522,3.873,9.292,3.851,14.458
	C86.091,79.785,86.229,82.475,86.025,85.135z"/>
</svg>
