<?xml version="1.0" encoding="utf-8"?>
<!-- Generator: Adobe Illustrator 16.2.0, SVG Export Plug-In . SVG Version: 6.00 Build 0)  -->
<!DOCTYPE svg PUBLIC "-//W3C//DTD SVG 1.1//EN" "http://www.w3.org/Graphics/SVG/1.1/DTD/svg11.dtd">
<svg version="1.1" id="Layer_1" xmlns="http://www.w3.org/2000/svg" xmlns:xlink="http://www.w3.org/1999/xlink" x="0px" y="0px"
	 width="128px" height="128px" viewBox="0 0 128 128" enable-background="new 0 0 128 128" xml:space="preserve">
<g id="Icon_Pencil_2_">
	<g>
		<path fill="#59B6DC" d="M13.142,116.856l9.127-36.51l55.545-55.544L105.2,52.184l-55.549,55.548L13.142,116.856z M28.557,83.907
			l-5.845,23.379l23.379-5.841l49.261-49.261L77.814,34.649L28.557,83.907z"/>
		<path fill="#59B6DC" d="M43.571,105.656c-2.367-9.489-9.736-16.858-19.23-19.228l1.685-6.755
			c11.999,2.99,21.311,12.304,24.301,24.301L43.571,105.656z"/>
		
			<rect x="61.235" y="30.875" transform="matrix(0.7074 0.7068 -0.7068 0.7074 65.0803 -26.6396)" fill="#59B6DC" width="6.961" height="68.816"/>
		<path fill="#59B6DC" d="M17.927,112.075l10.86-2.72c-1.002-4.006-4.136-7.143-8.145-8.145L17.927,112.075z"/>
		<path fill="#59B6DC" d="M107.759,49.622L80.38,22.24l10.907-10.906l1.704,0.227c13.221,1.762,23.687,12.227,25.448,25.448
			l0.227,1.706L107.759,49.622z M90.228,22.24l17.531,17.535l3.498-3.495c-1.839-8.782-8.755-15.696-17.535-17.537L90.228,22.24z"/>
	</g>
</g>
</svg>
