<?xml version="1.0" encoding="utf-8"?>
<!-- Generator: Adobe Illustrator 16.2.0, SVG Export Plug-In . SVG Version: 6.00 Build 0)  -->
<!DOCTYPE svg PUBLIC "-//W3C//DTD SVG 1.1//EN" "http://www.w3.org/Graphics/SVG/1.1/DTD/svg11.dtd">
<svg version="1.1" id="Layer_1" xmlns="http://www.w3.org/2000/svg" xmlns:xlink="http://www.w3.org/1999/xlink" x="0px" y="0px"
	 width="128px" height="128px" viewBox="0 0 128 128" enable-background="new 0 0 128 128" xml:space="preserve">
<g id="plain_5_">
	<g>
		<path fill="#59B6DC" d="M64,33.293C30.535,33.293,3.406,47.041,3.406,64S30.535,94.707,64,94.707
			c33.465,0,60.594-13.748,60.594-30.707S97.465,33.293,64,33.293z M48.233,69.983c-1.446,1.353-3.053,1.444-4.821,2.022
			C41.644,72.58,39.395,72,36.657,72h-6.203l-1.717,11h-7.242l6.46-33h13.927c4.186,0,7.245,0.765,9.165,2.966
			c1.92,2.196,2.496,5.099,1.733,9.042c-0.316,1.623-0.849,3.022-1.602,4.366C50.429,67.719,49.446,68.869,48.233,69.983z M69.37,72
			l2.857-13.84c0.324-1.671,0.206-3.229-0.358-3.836C71.304,53.716,70.102,53,68.264,53h-5.742L58.82,72h-7.183l6.46-33h7.186
			l-1.72,11h6.401c4.028,0,6.806,0.369,8.332,1.772c1.529,1.409,1.987,2.647,1.377,5.794L76.668,72H69.37z M109.298,61.841
			c-0.313,1.623-0.849,3.107-1.599,4.452c-0.753,1.344-1.733,2.576-2.946,3.69c-1.446,1.353-3.054,1.444-4.821,2.022
			C98.164,72.58,95.912,72,93.175,72h-6.2l-1.72,11h-7.239l6.46-33h13.927c4.187,0,7.245,0.765,9.163,2.966
			C109.488,55.163,110.064,57.899,109.298,61.841z"/>
		<path fill="#59B6DC" d="M95.657,53h-4.96l-2.705,14h4.406c2.919,0,5.094,0.198,6.521-0.905c1.43-1.098,2.395-2.561,2.895-5.134
			c0.479-2.47,0.263-4.82-0.653-5.835C100.243,54.11,98.411,53,95.657,53z"/>
		<path fill="#59B6DC" d="M39.14,53h-4.963l-2.703,14h4.403c2.919,0,5.094,0.198,6.524-0.905c1.427-1.098,2.392-2.561,2.893-5.134
			c0.479-2.47,0.262-4.82-0.654-5.835C43.725,54.11,41.891,53,39.14,53z"/>
	</g>
</g>
</svg>
