<?xml version="1.0" encoding="utf-8"?>
<!-- Generator: Adobe Illustrator 16.2.0, SVG Export Plug-In . SVG Version: 6.00 Build 0)  -->
<!DOCTYPE svg PUBLIC "-//W3C//DTD SVG 1.1//EN" "http://www.w3.org/Graphics/SVG/1.1/DTD/svg11.dtd">
<svg version="1.1" id="Layer_1" xmlns="http://www.w3.org/2000/svg" xmlns:xlink="http://www.w3.org/1999/xlink" x="0px" y="0px"
	 width="128px" height="128px" viewBox="0 0 128 128" enable-background="new 0 0 128 128" xml:space="preserve">
<g id="Icon_Image_2_">
	<g>
		<path fill="#59B6DC" d="M113.137,109.627H14.863c-5.806,0-10.529-4.723-10.529-10.529V28.902c0-5.806,4.723-10.529,10.529-10.529
			h98.273c5.807,0,10.529,4.723,10.529,10.529v70.195C123.666,104.904,118.943,109.627,113.137,109.627z M14.863,25.393
			c-1.937,0-3.51,1.575-3.51,3.51v70.195c0,1.934,1.573,3.51,3.51,3.51h98.273c1.937,0,3.51-1.576,3.51-3.51V28.902
			c0-1.935-1.573-3.51-3.51-3.51H14.863z"/>
		<path fill="#59B6DC" d="M81.549,60.245c-7.605,0-13.792-6.188-13.792-13.794s6.187-13.794,13.792-13.794
			s13.792,6.188,13.792,13.794S89.154,60.245,81.549,60.245z M81.549,39.187c-4.007,0-7.267,3.258-7.267,7.265
			s3.26,7.265,7.267,7.265s7.267-3.258,7.267-7.265S85.556,39.187,81.549,39.187z"/>
		<polygon fill="#59B6DC" points="100.369,108.496 42.928,54.429 10.065,84.942 5.623,80.157 42.955,45.493 104.846,103.738 		"/>
		<polygon fill="#59B6DC" points="118.106,90.673 99.098,75.225 83.026,88.284 78.906,83.218 99.098,66.814 122.227,85.607 		"/>
	</g>
</g>
</svg>
