<?xml version="1.0" encoding="utf-8"?>
<!-- Generator: Adobe Illustrator 16.2.0, SVG Export Plug-In . SVG Version: 6.00 Build 0)  -->
<!DOCTYPE svg PUBLIC "-//W3C//DTD SVG 1.1//EN" "http://www.w3.org/Graphics/SVG/1.1/DTD/svg11.dtd">
<svg version="1.1" id="Layer_1" xmlns="http://www.w3.org/2000/svg" xmlns:xlink="http://www.w3.org/1999/xlink" x="0px" y="0px"
	 width="128px" height="128px" viewBox="0 0 128 128" enable-background="new 0 0 128 128" xml:space="preserve">
<g id="Icon_Question_2_">
	<g>
		<g>
			<path fill="#59B6DC" d="M31.57,30.504c1.623-4.708,4.025-8.702,7.216-12.002c3.185-3.294,7.052-5.858,11.591-7.697
				c4.54-1.839,9.731-2.758,15.564-2.758c4.543,0,8.781,0.676,12.727,2.028c3.946,1.352,7.43,3.325,10.456,5.919
				s5.401,5.73,7.131,9.402s2.594,7.892,2.594,12.648c0,6.053-1.321,11.186-3.97,15.4c-2.649,4.214-6.029,8.27-10.133,12.161
				c-3.35,3.349-6.029,5.974-8.026,7.861c-1.997,1.894-3.483,3.757-4.457,5.59c-0.975,1.839-1.62,4.086-1.949,6.729
				c-0.316,2.649-0.536,4.306-0.646,9.274H59.456c-0.109-4.969,0.165-6.973,0.81-10.327c0.646-3.35,1.705-6.376,3.161-9.08
				c1.461-2.697,3.403-5.291,5.84-7.782c2.43-2.484,5.37-5.292,8.829-8.428c3.033-2.807,5.542-5.943,7.539-9.402
				c2.003-3.459,3.002-7.295,3.002-11.515c0-3.24-0.621-6.211-1.863-8.915c-1.242-2.697-2.917-4.999-5.023-6.887
				c-2.107-1.894-4.567-3.379-7.381-4.463c-2.813-1.078-5.785-1.62-8.915-1.62c-4.323,0-8.163,0.761-11.512,2.271
				c-3.349,1.517-6.108,3.593-8.267,6.242c-2.165,2.649-3.785,5.755-4.865,9.323c-1.081,3.568-1.568,6.485-1.458,10.699H29.137
				C29.137,39.443,29.95,35.205,31.57,30.504z M70.265,107.529V120H57.831v-12.471H70.265z"/>
		</g>
	</g>
</g>
</svg>
