<?xml version="1.0" encoding="utf-8"?>
<!-- Generator: Adobe Illustrator 16.2.0, SVG Export Plug-In . SVG Version: 6.00 Build 0)  -->
<!DOCTYPE svg PUBLIC "-//W3C//DTD SVG 1.1//EN" "http://www.w3.org/Graphics/SVG/1.1/DTD/svg11.dtd">
<svg version="1.1" id="Layer_1" xmlns="http://www.w3.org/2000/svg" xmlns:xlink="http://www.w3.org/1999/xlink" x="0px" y="0px"
	 width="128px" height="128px" viewBox="0 0 128 128" enable-background="new 0 0 128 128" xml:space="preserve">
<g id="Icon_Redo_2_">
	<g>
		<path fill="#59B6DC" d="M64.391,117.499c-29.458,0-53.427-23.97-53.427-53.427c0-29.457,23.969-53.431,53.427-53.431
			c22.16,0,41.426,13.982,49.076,35.619l-7.247,2.558c-6.65-18.808-22.679-30.486-41.829-30.486
			c-25.221,0-45.744,20.519-45.744,45.739c0,25.22,20.523,45.739,45.744,45.739c17.827,0,34.153-10.471,41.595-26.685l6.988,3.205
			C104.282,105.264,85.212,117.499,64.391,117.499z"/>
		<polygon fill="#59B6DC" points="118.107,51.675 85.051,51.675 85.051,43.411 109.843,43.411 109.843,18.618 118.107,18.618 		"/>
	</g>
</g>
</svg>
