<?xml version="1.0" encoding="utf-8"?>
<!-- Generator: Adobe Illustrator 16.2.0, SVG Export Plug-In . SVG Version: 6.00 Build 0)  -->
<!DOCTYPE svg PUBLIC "-//W3C//DTD SVG 1.1//EN" "http://www.w3.org/Graphics/SVG/1.1/DTD/svg11.dtd">
<svg version="1.1" id="Layer_1" xmlns="http://www.w3.org/2000/svg" xmlns:xlink="http://www.w3.org/1999/xlink" x="0px" y="0px"
	 width="128px" height="128px" viewBox="0 0 128 128" enable-background="new 0 0 128 128" xml:space="preserve">
<g id="Icon_Refresh_2_">
	<g>
		<path fill="#59B6DC" d="M63.625,116.627c-29.169,0-52.904-23.735-52.904-52.904c0-12.906,4.699-25.333,13.227-34.995l5.706,5.031
			c-7.3,8.275-11.324,18.916-11.324,29.964c0,24.974,20.322,45.292,45.296,45.292c6.586,0,12.938-1.379,18.868-4.104l3.181,6.917
			C78.733,115.013,71.313,116.627,63.625,116.627z"/>
		<path fill="#59B6DC" d="M103.056,98.993l-5.667-5.074c7.433-8.312,11.532-19.032,11.532-30.196
			c0-24.974-20.322-45.292-45.296-45.292c-6.585,0-12.93,1.378-18.868,4.104l-3.172-6.917c6.937-3.184,14.353-4.803,22.041-4.803
			c29.169,0,52.903,23.739,52.903,52.908C116.528,76.761,111.746,89.288,103.056,98.993z"/>
		<polygon fill="#59B6DC" points="34.983,59.631 26.8,59.631 26.8,35.081 2.25,35.081 2.25,26.897 34.983,26.897 		"/>
		<polygon fill="#59B6DC" points="125,100.548 92.268,100.548 92.268,67.813 100.449,67.813 100.449,92.364 125,92.364 		"/>
	</g>
</g>
</svg>
