<?xml version="1.0" encoding="utf-8"?>
<!-- Generator: Adobe Illustrator 16.2.0, SVG Export Plug-In . SVG Version: 6.00 Build 0)  -->
<!DOCTYPE svg PUBLIC "-//W3C//DTD SVG 1.1//EN" "http://www.w3.org/Graphics/SVG/1.1/DTD/svg11.dtd">
<svg version="1.1" id="Layer_1" xmlns="http://www.w3.org/2000/svg" xmlns:xlink="http://www.w3.org/1999/xlink" x="0px" y="0px"
	 width="128px" height="128px" viewBox="0 0 128 128" enable-background="new 0 0 128 128" xml:space="preserve">
<g id="plain_1_">
	<g>
		<path fill-rule="evenodd" clip-rule="evenodd" fill="#59B6DC" d="M107.713,17.021c-11.682-5.764-23.645-6.35-35.893-2.018
			c-11.27,3.984-20.262,11.112-26.946,20.822C33.568,52.257,25.349,70.188,20.747,89.666c-2.359,9.967-3.884,20.294-3.476,30.589
			c0.035,0.833,0.161-0.551,0.241,2.745c19.342,0,38.493,0,57.764,0c-0.164-3.296-0.273-1.11-0.418-1.478
			c-3.038-7.756-5.442-15.823-7.105-23.988c-2.392-11.724-3.64-23.603-1.175-35.433C70.034,45.534,79.479,33.61,95.4,27.412
			c9.014-3.508,17.574-2.497,25.079,4.094c0.071,0.058,0.213,0.032,0.396,0.061c0.772-1.165,1.561-2.359,2.455-3.71
			C118.601,23.357,113.409,19.83,107.713,17.021z"/>
		<path fill-rule="evenodd" clip-rule="evenodd" fill="#59B6DC" d="M5.953,93.244c-0.441,3.753-0.853,7.267-1.284,10.955
			c3.704,0.447,7.105,0.853,10.652,1.281c0.66-3.862,1.297-7.557,1.95-11.38C13.39,93.808,9.706,93.527,5.953,93.244z"/>
		<path fill-rule="evenodd" clip-rule="evenodd" fill="#59B6DC" d="M26.858,60.531c-3.463-1.352-6.681-2.617-10.018-3.92
			c-1.114,3.16-2.153,6.102-3.238,9.194c3.495,1.12,6.791,2.176,10.208,3.273C24.844,66.176,25.819,63.45,26.858,60.531z"/>
		<path fill-rule="evenodd" clip-rule="evenodd" fill="#59B6DC" d="M74.147,111.878c3.424,0.254,6.852,0.431,10.623,0.65
			c-1.368-2.852-2.588-5.43-3.865-7.976c-0.139-0.279-0.611-0.544-0.93-0.55c-2.903-0.042-5.806-0.022-8.889-0.022
			c0.691,2.514,1.297,4.834,2.005,7.122C73.197,111.446,73.768,111.849,74.147,111.878z"/>
		<path fill-rule="evenodd" clip-rule="evenodd" fill="#59B6DC" d="M43.841,32.681c-2.558-1.693-5.02-3.325-7.614-5.04
			c-2.037,2.279-4.006,4.477-6.085,6.797c2.713,1.825,5.249,3.531,7.827,5.262C39.976,37.299,41.846,35.065,43.841,32.681z"/>
		<path fill-rule="evenodd" clip-rule="evenodd" fill="#59B6DC" d="M68.084,83.751c-0.013,0.306,0.264,0.795,0.531,0.917
			c2.741,1.232,5.513,2.403,8.528,3.704c-0.126-2.382-0.21-4.377-0.352-6.366c-0.025-0.356-0.196-0.875-0.46-1.02
			c-2.52-1.394-5.068-2.727-7.862-4.206C68.319,79.332,68.164,81.54,68.084,83.751z"/>
		<path fill-rule="evenodd" clip-rule="evenodd" fill="#59B6DC" d="M65.828,14.688c-1.767-2.002-3.421-3.881-5.21-5.912
			c-2.433,1.262-4.741,2.462-7.177,3.73c1.796,2.185,3.489,4.251,5.22,6.356C61.097,17.442,63.408,16.097,65.828,14.688z"/>
		<path fill-rule="evenodd" clip-rule="evenodd" fill="#59B6DC" d="M69.095,61.744c-0.154,0.357,0.048,1.12,0.357,1.394
			c2.082,1.876,4.234,3.672,6.629,5.726c0.547-2.298,1.065-4.345,1.503-6.404c0.077-0.367-0.029-0.972-0.286-1.178
			c-1.863-1.503-3.785-2.932-5.776-4.454C70.646,58.565,69.796,60.123,69.095,61.744z"/>
		<path fill-rule="evenodd" clip-rule="evenodd" fill="#59B6DC" d="M81.009,11.582c2.661,0.071,5.322,0.039,8.132,0.039
			c-0.28-1.957-0.412-3.437-0.746-4.873c-0.101-0.428-0.74-0.995-1.175-1.033c-2.668-0.212-5.346-0.296-8.28-0.438
			c0.393,1.976,0.691,3.714,1.113,5.423C80.143,11.063,80.67,11.572,81.009,11.582z"/>
		<path fill-rule="evenodd" clip-rule="evenodd" fill="#59B6DC" d="M84.249,45.718c0.135-0.254,0.167-0.718,0.025-0.94
			c-1.307-2.043-2.664-4.055-4.07-6.176c-1.635,1.503-3.058,2.81-4.554,4.184c2.127,2.356,4.147,4.596,6.298,6.98
			C82.795,48.295,83.551,47.021,84.249,45.718z"/>
		<path fill-rule="evenodd" clip-rule="evenodd" fill="#59B6DC" d="M89.16,31.818c0.969,1.796,1.844,3.424,2.723,5.056
			c4.254-2.336,4.663-3.18,3.157-6.54C93.157,30.808,91.252,31.287,89.16,31.818z"/>
		<path fill-rule="evenodd" clip-rule="evenodd" fill="#59B6DC" d="M109.531,16.245c1.771,1.094,3.64,2.024,5.542,3.047
			c0.464-0.721,0.827-1.284,1.274-1.979c-2.317-1.699-4.557-3.337-7.097-5.194c-0.096,1.056-0.244,1.796-0.209,2.523
			C109.074,15.199,109.165,16.02,109.531,16.245z"/>
		<path fill-rule="evenodd" clip-rule="evenodd" fill="#59B6DC" d="M107,32.246c3,0.206,3,0.405,6,0.611c0-0.882,0-1.606,0-2.6
			c-3-0.418-3-0.833-6-1.265C107,30.142,107,31.142,107,32.246z"/>
	</g>
</g>
</svg>
