<?xml version="1.0" encoding="utf-8"?>
<!-- Generator: Adobe Illustrator 16.2.0, SVG Export Plug-In . SVG Version: 6.00 Build 0)  -->
<!DOCTYPE svg PUBLIC "-//W3C//DTD SVG 1.1//EN" "http://www.w3.org/Graphics/SVG/1.1/DTD/svg11.dtd">
<svg version="1.1" id="Layer_1" xmlns="http://www.w3.org/2000/svg" xmlns:xlink="http://www.w3.org/1999/xlink" x="0px" y="0px"
	 width="128px" height="128px" viewBox="0 0 128 128" enable-background="new 0 0 128 128" xml:space="preserve">
<g id="Icon_Share_Apple_2_">
	<g>
		<polygon fill="#59B6DC" points="83.171,32.177 64.75,13.755 46.329,32.177 41.797,27.638 64.75,4.685 87.703,27.638 		"/>
		<rect x="61.302" y="9.22" fill="#59B6DC" width="6.896" height="72.405"/>
		<path fill="#59B6DC" d="M99.229,123H30.271c-5.704,0-10.343-4.64-10.343-10.344V50.595c0-5.704,4.64-10.344,10.343-10.344h24.135
			v6.896H30.271c-1.902,0-3.448,1.549-3.448,3.448v62.062c0,1.902,1.545,3.448,3.448,3.448h68.958c1.902,0,3.448-1.546,3.448-3.448
			V50.595c0-1.899-1.546-3.448-3.448-3.448H75.094v-6.896h24.135c5.704,0,10.344,4.64,10.344,10.344v62.062
			C109.572,118.36,104.933,123,99.229,123z"/>
	</g>
</g>
</svg>
