<?xml version="1.0" encoding="utf-8"?>
<!-- Generator: Adobe Illustrator 16.2.0, SVG Export Plug-In . SVG Version: 6.00 Build 0)  -->
<!DOCTYPE svg PUBLIC "-//W3C//DTD SVG 1.1//EN" "http://www.w3.org/Graphics/SVG/1.1/DTD/svg11.dtd">
<svg version="1.1" id="Layer_1" xmlns="http://www.w3.org/2000/svg" xmlns:xlink="http://www.w3.org/1999/xlink" x="0px" y="0px"
	 width="128px" height="128px" viewBox="0 0 128 128" enable-background="new 0 0 128 128" xml:space="preserve">
<path id="Icon_Skype_2_" fill="#59B6DC" d="M117.514,73.602c0.593-3.249,0.903-6.578,0.903-9.904c0-7.377-1.44-14.532-4.294-21.268
	c-2.752-6.505-6.69-12.349-11.711-17.365c-5.013-5.021-10.86-8.959-17.366-11.711c-6.735-2.85-13.887-4.294-21.264-4.294
	c-3.479,0-6.958,0.331-10.348,0.977c-0.008,0.004-0.016,0.004-0.024,0.008C48.762,7.57,43.531,6.25,38.24,6.25
	c-8.64,0-16.76,3.366-22.87,9.476C9.26,21.836,5.895,29.959,5.895,38.6c0,5.497,1.413,10.904,4.068,15.683
	c-0.537,3.091-0.823,6.255-0.823,9.415c0,7.377,1.445,14.533,4.298,21.268c2.749,6.51,6.688,12.354,11.708,17.37
	c5.021,5.016,10.856,8.959,17.37,11.703c6.731,2.857,13.891,4.302,21.268,4.302c3.213,0,6.425-0.294,9.568-0.852
	c4.839,2.74,10.319,4.193,15.913,4.193c8.641,0,16.756-3.357,22.866-9.472c6.114-6.106,9.476-14.229,9.476-22.87
	C121.605,83.82,120.185,78.396,117.514,73.602z M64,97.162c-19.412,0-28.096-9.545-28.096-16.696c0-3.668,2.708-6.239,6.441-6.239
	c8.306,0,6.159,11.926,21.655,11.926c7.935,0,12.317-4.306,12.317-8.717c0-2.651-1.308-5.59-6.538-6.877l-17.265-4.314
	c-13.903-3.482-16.425-11.001-16.425-18.067c0-14.67,13.814-20.179,26.785-20.179c11.95,0,26.034,6.603,26.034,15.404
	c0,3.773-3.261,5.965-6.993,5.965c-7.091,0-5.783-9.811-20.066-9.811c-7.086,0-11.013,3.208-11.013,7.801
	c0,4.581,5.602,6.045,10.457,7.155l12.781,2.833c13.996,3.12,17.547,11.292,17.547,18.992C91.62,88.259,82.468,97.162,64,97.162z"/>
</svg>
