<?xml version="1.0" encoding="utf-8"?>
<!-- Generator: Adobe Illustrator 16.2.0, SVG Export Plug-In . SVG Version: 6.00 Build 0)  -->
<!DOCTYPE svg PUBLIC "-//W3C//DTD SVG 1.1//EN" "http://www.w3.org/Graphics/SVG/1.1/DTD/svg11.dtd">
<svg version="1.1" id="Layer_1" xmlns="http://www.w3.org/2000/svg" xmlns:xlink="http://www.w3.org/1999/xlink" x="0px" y="0px"
	 width="128px" height="128px" viewBox="0 0 128 128" enable-background="new 0 0 128 128" xml:space="preserve">
<path id="Spinner_3_2_" fill="#59B6DC" d="M120.437,60.151c-0.982-20.347-13.31-39.686-31.953-48.152
	C68.361,2.862,43.96,6.681,27.189,20.875C11.256,34.357,3.776,56.103,8.319,76.496c4.509,20.246,19.958,36.673,40.069,42.047
	c23.786,6.36,45.512-4.883,58.867-24.46c-12.117,16.168-30.385,26.845-51.089,23.269c-20.394-3.524-37.138-19.054-41.802-39.261
	C9.399,56.575,19.333,34.023,38.53,23.111c19.908-11.315,47.483-7.136,60.737,12.268c3.305,4.837,5.623,10.405,6.831,16.126
	c1.028,4.857,0.597,9.71,1.311,14.554c0.632,4.265,4.401,10.198,9.323,7.009C120.99,70.304,120.709,64.549,120.437,60.151
	C120.378,58.929,120.588,62.597,120.437,60.151z"/>
</svg>
