<?xml version="1.0" encoding="utf-8"?>
<!-- Generator: Adobe Illustrator 16.2.0, SVG Export Plug-In . SVG Version: 6.00 Build 0)  -->
<!DOCTYPE svg PUBLIC "-//W3C//DTD SVG 1.1//EN" "http://www.w3.org/Graphics/SVG/1.1/DTD/svg11.dtd">
<svg version="1.1" id="Layer_1" xmlns="http://www.w3.org/2000/svg" xmlns:xlink="http://www.w3.org/1999/xlink" x="0px" y="0px"
	 width="128px" height="128px" viewBox="0 0 128 128" enable-background="new 0 0 128 128" xml:space="preserve">
<path id="Icon_Star_2_" fill="#59B6DC" d="M99.586,121.525c-0.625,0-1.246-0.195-1.773-0.578L64.419,96.686l-33.393,24.262
	c-1.055,0.77-2.493,0.77-3.548,0c-1.058-0.77-1.498-2.13-1.095-3.376l12.752-39.255L5.744,54.058
	c-1.058-0.77-1.498-2.133-1.095-3.376c0.403-1.243,1.563-2.086,2.869-2.086h41.274L61.55,9.344c0.403-1.243,1.559-2.086,2.869-2.086
	c1.303,0,2.465,0.843,2.869,2.086l12.756,39.251h41.274c1.307,0,2.465,0.843,2.868,2.086c0.407,1.243-0.037,2.607-1.092,3.376
	L89.702,78.316l12.753,39.255c0.402,1.246-0.041,2.606-1.096,3.376C100.829,121.33,100.207,121.525,99.586,121.525z M64.419,89.94
	c0.622,0,1.243,0.191,1.77,0.577l27.655,20.09l-10.559-32.51c-0.407-1.242,0.033-2.606,1.092-3.372l27.651-20.09H77.851
	c-1.307,0-2.466-0.843-2.869-2.086L64.419,20.041L53.857,52.55c-0.407,1.243-1.565,2.086-2.873,2.086H16.803l27.655,20.09
	c1.059,0.766,1.499,2.13,1.095,3.372l-10.562,32.51l27.655-20.09C63.173,90.132,63.794,89.94,64.419,89.94z"/>
</svg>
