<?xml version="1.0" encoding="utf-8"?>
<!-- Generator: Adobe Illustrator 16.2.0, SVG Export Plug-In . SVG Version: 6.00 Build 0)  -->
<!DOCTYPE svg PUBLIC "-//W3C//DTD SVG 1.1//EN" "http://www.w3.org/Graphics/SVG/1.1/DTD/svg11.dtd">
<svg version="1.1" id="Layer_1" xmlns="http://www.w3.org/2000/svg" xmlns:xlink="http://www.w3.org/1999/xlink" x="0px" y="0px"
	 width="128px" height="128px" viewBox="0 0 128 128" enable-background="new 0 0 128 128" xml:space="preserve">
<g id="Icon_Trash_2_">
	<g>
		<rect x="45.846" y="42.623" fill="#59B6DC" width="7.261" height="58.092"/>
		<rect x="60.369" y="42.623" fill="#59B6DC" width="7.262" height="58.092"/>
		<rect x="74.893" y="42.623" fill="#59B6DC" width="7.262" height="58.092"/>
		<rect x="16.8" y="20.838" fill="#59B6DC" width="94.4" height="7.262"/>
		<path fill="#59B6DC" d="M81.898,24.469h-6.751v-7.261c0-2.142-1.744-3.886-3.886-3.886H56.738c-2.142,0-3.886,1.745-3.886,3.886
			v7.261h-6.751v-7.261c0-5.865,4.772-10.637,10.637-10.637h14.523c5.864,0,10.637,4.772,10.637,10.637V24.469z"/>
		<path fill="#59B6DC" d="M85.785,122.5h-43.57c-5.861,0-10.992-4.751-11.438-10.595l-6.705-87.16l7.24-0.553l6.705,87.16
			c0.16,2.07,2.121,3.886,4.198,3.886h43.57c2.077,0,4.038-1.815,4.197-3.886l6.705-87.16l7.24,0.553l-6.705,87.16
			C96.776,117.749,91.646,122.5,85.785,122.5z"/>
	</g>
</g>
</svg>
