<?xml version="1.0" encoding="utf-8"?>
<!-- Generator: Adobe Illustrator 16.2.0, SVG Export Plug-In . SVG Version: 6.00 Build 0)  -->
<!DOCTYPE svg PUBLIC "-//W3C//DTD SVG 1.1//EN" "http://www.w3.org/Graphics/SVG/1.1/DTD/svg11.dtd">
<svg version="1.1" id="Layer_1" xmlns="http://www.w3.org/2000/svg" xmlns:xlink="http://www.w3.org/1999/xlink" x="0px" y="0px"
	 width="128px" height="128px" viewBox="0 0 128 128" enable-background="new 0 0 128 128" xml:space="preserve">
<g id="Icon_Unlock_2_">
	<g>
		<path fill="#59B6DC" d="M36.984,55.903h-7.368v-15.85C29.617,20.543,45.49,4.667,65,4.667c17.815,0,32.91,13.315,35.112,30.968
			l-7.313,0.914C91.058,22.575,79.104,12.042,65,12.042c-15.447,0-28.016,12.564-28.016,28.012V55.903z"/>
		<path fill="#59B6DC" d="M96.699,123.264H33.301c-6.555,0-11.887-5.332-11.887-11.887V63.828c0-6.555,5.332-11.887,11.887-11.887
			h63.398c6.555,0,11.888,5.332,11.888,11.887v47.549C108.587,117.932,103.254,123.264,96.699,123.264z M33.301,59.866
			c-2.187,0-3.962,1.776-3.962,3.962v47.549c0,2.187,1.776,3.962,3.962,3.962h63.398c2.187,0,3.963-1.775,3.963-3.962V63.828
			c0-2.187-1.776-3.962-3.963-3.962H33.301z"/>
		<circle fill="#59B6DC" cx="65" cy="75.715" r="7.925"/>
		<polygon fill="#59B6DC" points="66.981,75.715 63.019,75.715 59.056,99.489 70.943,99.489 		"/>
	</g>
</g>
</svg>
