<?xml version="1.0" encoding="utf-8"?>
<!-- Generator: Adobe Illustrator 16.2.0, SVG Export Plug-In . SVG Version: 6.00 Build 0)  -->
<!DOCTYPE svg PUBLIC "-//W3C//DTD SVG 1.1//EN" "http://www.w3.org/Graphics/SVG/1.1/DTD/svg11.dtd">
<svg version="1.1" id="Layer_1" xmlns="http://www.w3.org/2000/svg" xmlns:xlink="http://www.w3.org/1999/xlink" x="0px" y="0px"
	 width="128px" height="128px" viewBox="0 0 128 128" enable-background="new 0 0 128 128" xml:space="preserve">
<path id="Icon_Vimeo_2_" fill="#59B6DC" d="M122.942,36.733c-0.525,11.524-8.562,27.309-24.104,47.345
	c-16.068,20.928-29.664,31.389-40.789,31.389c-6.886,0-12.717-6.368-17.481-19.114c-3.18-11.683-6.356-23.366-9.541-35.049
	c-3.535-12.742-7.328-19.119-11.383-19.119c-0.884,0-3.98,1.863-9.278,5.577l-5.56-7.178c5.835-5.135,11.587-10.27,17.248-15.409
	c7.782-6.735,13.621-10.278,17.514-10.637c9.199-0.884,14.859,5.414,16.984,18.898c2.297,14.55,3.885,23.599,4.781,27.142
	c2.651,12.07,5.569,18.102,8.753,18.102c2.476,0,6.189-3.918,11.145-11.745c4.952-7.832,7.603-13.788,7.957-17.881
	c0.709-6.761-1.946-10.145-7.957-10.145c-2.83,0-5.747,0.65-8.748,1.938c5.81-19.061,16.909-28.322,33.29-27.792
	C117.92,13.413,123.643,21.303,122.942,36.733z"/>
</svg>
