<?xml version="1.0" encoding="utf-8"?>
<!-- Generator: Adobe Illustrator 16.2.0, SVG Export Plug-In . SVG Version: 6.00 Build 0)  -->
<!DOCTYPE svg PUBLIC "-//W3C//DTD SVG 1.1//EN" "http://www.w3.org/Graphics/SVG/1.1/DTD/svg11.dtd">
<svg version="1.1" id="Layer_1" xmlns="http://www.w3.org/2000/svg" xmlns:xlink="http://www.w3.org/1999/xlink" x="0px" y="0px"
	 width="128px" height="128px" viewBox="0 0 128 128" enable-background="new 0 0 128 128" xml:space="preserve">
<path id="Icon_YouTube_2_" fill="#59B6DC" d="M122.326,40.953c0,0-1.147-8.097-4.671-11.662c-4.467-4.682-9.478-4.705-11.772-4.976
	c-16.443-1.189-41.11-1.189-41.11-1.189h-0.046c0,0-24.667,0-41.11,1.189c-2.295,0.271-7.305,0.294-11.773,4.976
	c-3.522,3.565-4.67,11.662-4.67,11.662S6,50.461,6,59.97v8.522C6,78,7.174,87.509,7.174,87.509s1.147,8.098,4.67,11.662
	c4.468,4.682,10.343,4.532,12.959,5.022c9.397,0.902,39.947,1.182,39.947,1.182s24.689-0.038,41.133-1.224
	c2.295-0.275,7.306-0.299,11.772-4.98c3.523-3.564,4.671-11.662,4.671-11.662S123.5,78,123.5,68.492V59.97
	C123.5,50.461,122.326,40.953,122.326,40.953z M52.618,79.688l-0.004-33.017l31.75,16.565L52.618,79.688z"/>
</svg>
